<svg xmlns="http://www.w3.org/2000/svg" viewBox="0 0 674.33 616.15" width="100%"
height="100%">
  <title>Asset 2</title>
  <g id="Layer_2" data-name="Layer 2">
    <g id="Calque_1" data-name="Calque 1">
      <g>
        <path d="M.39,584.75c-1.57,17.34,97,31.4,220.19,31.4s224.29-14.06,225.86-31.4-97-31.41-220.19-31.41S2,567.4.39,584.75Z" fill="#d8d0bf"/>
        <g>
          <path d="M325.68,537.73a.08.08,0,0,0,0,0c5.9-34,15.71-102.92,13.4-144.72-.28-4.89-9-64.29-4-120,30.88,57.66,35.81,161.35,36,187.13.2,27.43,0,59.11-1,82.44C351.12,547.32,342.8,546.82,325.68,537.73Z" fill="#38322f"/>
          <path d="M338.09,364.4l1.27-.23c0-1.34.08-2.93-1.27-3.16a3.12,3.12,0,0,1,2.34-.38c-.35.24-.71,1.93-.19,1.95,1.22-1.62.87-.91,2.43-2.38-.52.37.32,2.16,1.18,1.94-.17-.26-.15-1.9-.49-2l2.38,1.47c-.58-.23-.28-1.57.14-2.19-.18.42,1.87-.38,2.47-.3l-.87.61c2.41-.74,2.73,2.19,5.14,1.64-.34-.34-1-2.25.19-2.72a26.16,26.16,0,0,0,2.28,2.64l2.71-.5a27.9,27.9,0,0,0-3.78-2.6c.86-.6.18-.69,1.56-.9.41-.6-.85-.64-1.25-.59l3.07-.91.45,1.29-1.41-.2c0,.68.85,1.55,2,2,2.34,7,4.44,14.05,6.31,21,2.32,16.79,3.83,32.69,4.79,46.15-2.45.4-4,1.19-7.11,2.2l.18-.85a3.14,3.14,0,0,0-1.3.84c-1.12-1,2.3-.55,1.25-1.69-.86,1.79-5.82,1.34-6.16,3.36-1.24.34.16-1-1.08-.65l-.22.58-.45-.53a1.49,1.49,0,0,0-1,1.48c.18-.11.58,0,.8-.07-.9.85-2.95.71-3.26,1l1.08-.67c-3.47.61-7.15,2.78-10.55,3.37l.07-.45c-2.28.53-1.9,1.12-3.51,2a366.39,366.39,0,0,0,.74-42.95c-.12-2.05-1.72-13.68-3.17-30.57Z" fill="#202020"/>
          <path d="M343.61,488.31c0,.13,0,.28-.07.44l.12-.08A3.48,3.48,0,0,0,343.61,488.31Zm2.81-16.43h0C346.42,471.81,346.41,471.79,346.42,471.88Zm-1.49,2.3-.68-.65-.08.07Zm7.58-1.19.12.05s0,0,0-.06A.22.22,0,0,1,352.51,473Zm-14,9,0,0h0Zm14.11-3.79c0,.11.17-.34.07-.43C352.69,477.82,352.53,478.21,352.63,478.18Zm-9.11-5.84a.62.62,0,0,1,0-.33C343.42,472.17,343.44,472.27,343.52,472.34Zm.14,6.89.36.19c.39.15,0-.21-.29-.52A.27.27,0,0,1,343.66,479.23Zm-4,2.94-1.19-.2c.08.21.15.35-.38.66l.78-.24ZM352.4,473c-.07.15.09-.45,0-.36C352.07,472.31,352.38,473.53,352.4,473Zm2,2.08a2.44,2.44,0,0,0-.4.42c.16-.12.37,0,.63-.21C354.4,475.27,354.34,475.22,354.4,475.1Zm-3.57-5.62-.21-.19,0,.6A.89.89,0,0,1,350.83,469.48Zm-.21-2.54.26-.24-.11-.11Zm3.28,4a1,1,0,0,0,.22.17A.24.24,0,0,0,353.9,471Zm-.5,2.55s.06-.16.12-.26c-.08.06-.15.14-.22.08Zm-14.92,9.58a8.29,8.29,0,0,1,1.16-.24c-.88.14-.9,1.84-.54,2.59l0-.12c.23-.23.65.31.47.68.14-.11.08-.15,0-.26.77.19-1,1.24,0,1.38-.35-.4,0-.67.27-.79-.14.51.68,1.1-.26,1.52.32.12.35.41.74.07a2.63,2.63,0,0,0,.11.57l.16.59a.3.3,0,0,1,.45-.23c-.53-.33-.2-1.29-.84-1.15.5-.38.86-.44,1.16-.95a5.32,5.32,0,0,1,.09,1.45,7,7,0,0,0,0,1.58l.56.07.54.06-.11.26.5-.54c0,.2,0,.37.07.32a.45.45,0,0,0,.08-.26.54.54,0,0,1,.12.24,3.06,3.06,0,0,0,.31-1.17l-.39.23c0-.39.16-.76.45-.86a1.15,1.15,0,0,1,0,.19c.06-.29.13-.5.24-.56a4.48,4.48,0,0,0,.32.56l-.51.36c.12.56.32,1.23-.23,1.54l.64-.21a2.89,2.89,0,0,0,.74,1.4c.12-.22,0-.46.2-.6.28.88,1.54-.59,1.44.1.37.26,0,.63.26.86,0-.08,0-.23.1-.23l.23.52c.17-.16-.24-.37.19-.54.57.41.94.76,1.54.49.81.09-.45,1,.27.87.14-.4.26-.89.68-1,.22.27.19.59.59.75l0-.62c.36,0,.65,0,.62-.42a.48.48,0,0,0,.65,0c.58.23-.27,1.3-.42,1.57.54-.56,1-.35,1.17-1.15l-.5-.07c.87-1,1.12.59,1.32-.79-.33.15-.77-.06-.64-.44l.52.17c0-.17-.29,0-.11-.27a4.92,4.92,0,0,1,.68.47l0,0a8.7,8.7,0,0,0,.88-.22c-.15.09-.26-.11-.1-.2l.65.07c-.22-.07-.11-.32.1-.52.61-.45,1.09,1,1.38.12-.07.06-.12,0-.19.05l.15-.39c.32.55.75.34,1.18.12s.81-.49,1.2,0c.1-.7-.16-.26-1-.42l.2-.58c-.18.07-.26.25-.5.26.21-.8,1-.57,1.54-.53.06-.3-.72-.62-.09-.9.87-.44.45.83,1,.55l-.11-.76c.91-.12.94-.89,1.31-1.38a.47.47,0,0,1,.31,0c.21-.66,1.37-.71,1.51-1.25-.18,0-.17-.45-.27-.58l.82-.55c-.36.25-.67,0-1-.08.17-.21.42-.22.56-.35-.18,0-.35.06-.43-.14l1-.49a.35.35,0,0,1,0,.26c.14-.18.57-.54.44-1-.15,0-.32,0-.47,0,.26.41-.13.4-.45.4.33-.51,0-.17-.14-.54a.66.66,0,0,1,1-.12,1.06,1.06,0,0,1,.63-1l-.53-.08.32-.38-.73.15c0-.9.9.12,1-.88l-.44-.12c.29-.29,1.1-.25.63-.65.37-.3.47.75.79-.08a1.5,1.5,0,0,1-.31-.8c.28-.24.49.29.38.46.55-1.28-1.34-1-.55-2,.27.4.94-.24.78.65.34-.4-.53-.89.05-1.28l-.64.24c0-.16.26-.32.34-.4h-.46c.91-.49-.27-1,.82-1.31-.85.23.09-.41-.22-.63-.62.46-.09,1.29-.87,1.33-.21-.2.18-.38,0-.58a1.48,1.48,0,0,1-.5.38c-.38-.65.55-1,.78-1.45l-.23.72c.77-.07.15-.32.77-.55-.37-.34.2-.68-.05-1,0,.08-.07.1-.06.18,0-.84-1.24-.88-1.29-1.17s.21-.92.56-.78c.18-.3-.1,1.09.84.46-1.23-.24.37-1.08-.67-1.89-.29.55-.7-.05-.9.42,0-.47.13-.54.39-.86h-.38c.59-.91.65-.4.67-1.53-.12.44-.64-.11-.77.24a1.09,1.09,0,0,1-.06-.8l0,.06c-.41-.95-.75-.45-1.05-1.36l.23-.09c-.33-1.42-2-2-3-2.73l.49,0c-.16,0-.65-.67-1.18-.47.07,0,.16.18.24.18a.82.82,0,0,1-.7.48l0-.39-.22.24c-.43-.14.32-.48-.12-.61-.6,1-2-.26-2.51.69-.15-.79.82,0,.65-.76a1,1,0,0,1-.54.27l.18-.44c-1.39.12-1.9.57-3,.48l0,.09c-.41.21-.62.15-.8-.23-.08.22.2.31.05.51-.73-1.12-1.38,1-1.82.25.09.91-.7,1.91-.29,2.57l-.26-.07c.13.6.81-.11,1,.5l.4-.38.39-.35c0,.23.12.56,0,.65.2,0,.37,0,.12.36a3.27,3.27,0,0,1,2.85-.8,8.42,8.42,0,0,0,2.69.28c.08.09-.06.27-.15.4.51-.47.15.39.26.51s.78-.66.78-.64c0,.32-.21.49-.28.65.28.27.74.25,1.08.38s.72.27.71.69c.37-.08.49-.53.77-.4-.48.17-.42.39-.33.58s.14.43-.17.52c.93-.37.67.67,1.76-.09.22.31-.38.54-.53.51a.87.87,0,0,1,0,1.12c.4.11.06,1.86,1,2.12-.64-.18-.33.07-.61.36l-.56-.15.07.54c-.06.12,0,.15,0,.14s.32-.05.47.19-.29.43-.6.65l-.07-.06-.08.26c0,.2.62-.71.85-.07-.15,0-.93.4-.54.57,0-.33.39-.29.54-.16V475l-.69-.17c0,.65-.06,1.35,0,2.06a6.12,6.12,0,0,1-.37,2c.59.14-.32,1,.56,1.13l-.06-.08c.21-.33.64.33.39.59-.12-.39-1.08.19-.87-.54l-.64.37c-.87-.18-1,.15-1,.59s0,1.05-.51,1.25a.46.46,0,0,1,.22,0c-.89.29-.66,1.63-1,1.58l.3.36c-1,0-1,0-1.43.74.06.05.22.09.19.24-.37-.13-.71-.25-1.06.14l.11.11-.71.4c.39.58,0,.66-.45.66s-.86,0-.65.8c-.31-.27-.91-.19-1.21-.27a.34.34,0,0,1,0,.2c-.5-.59-.75.54-1.12.56s-.2-.4-.16-.66c-.31.76-1.19-.44-1.28-.16-.28.11-.08.58-.14.92-.46-.07,0-1.32-.53-.68.06.06.19.11.14.2-.2.13-.7,1.84-1,1.51l.19-.27c-.4-.34-1.25,1.2-1.18.18l.11-.46c-.88.53-.28-.2-1.18.24v.08c-.31-.17-.67.35-.61-.42l.15-.07a3.12,3.12,0,0,0-.88-.17c0-.08-.17-.26-.28-.13.22-.61-.8-.62-1-.65.27.2,0,.39-.21.59,0-.53,0-.66-.41-.45.39-.7.81-1.46.54-1.66,0,.12,0,.22-.12.34s-.1-.07-.09-.14c-.14.11-.1.28-.31.48.23-.73-.29-.37-.4-.8-.09.24-.28.28-.53.43.65-.56-1,0,.07-.56a1.24,1.24,0,0,1-.62-.39,5.85,5.85,0,0,1-.3-.68c-.15-.47-.18-.92-.6-1.05s.21-.41.22-.58l-.38.05c.72-.54.23-.41,1-1a.77.77,0,0,1-1-.14l.87-.35-.58-.13c.27-.15.18-.34.15-.55,0,.09-.07,0-.17,0,.83,0,.94-.68,1.34-.69-.72-.37.34-.4-.31-.73a1,1,0,0,0,.35-.13c.29.19.65.33.55.13l0,0-.41-.21a1.07,1.07,0,0,0,.33-.36.55.55,0,0,0,.15.24c0-.09-.1-.18-.14-.26s0,0,0-.06,0,0,0,0c-.06-.14-.05-.25.16-.32-.35-.85,1.44-.71,1-1.69,0,.13,0,.27-.17.22.32-.44.15-1.24.65-1.31l.31.28a3.27,3.27,0,0,0,.88-.54l.35.31c.18-.47,1.27-.36.9-1.29.27.22.38-.39.63-.39l-.12-.35a.46.46,0,0,1,.6-.17c.24-1,1.08-.35,1.6-.51v-.11l.58.15c-.15-.32.11.22.25.14.16.18.4.08.61-.17l.33,0c-.33-.23.1-.54.2-1a2.17,2.17,0,0,1,.16.38c.12-.19-.07-.36.1-.42.1.26.53.33.5.78a1,1,0,0,1-.21.27s0,0,0,0l0,0h0a1,1,0,0,1,0,.17c.26-.05.11.11,0,.29.51-.63.39-.07.95-.75-.68.72.54.24-.08.92.54-.49.1.05.55-.38-.28,0-.22-.62-.31-1l.44-.26c.2-.79-.7,0-.73-.29,0,.2.32.14.42,0l-.33.53c-.39,0-.56-.36-.77-.74.34-.14-.25-.42.06-.79l.22.11c.17-.18,0-.4-.12-.61a9.41,9.41,0,0,1-1.55.18c-.51,0-1,.08-1.09.36a.39.39,0,0,1,.6.09,2.88,2.88,0,0,0-.35.26c.28,0,.52-.53,1-.35-.09.38.15.89-.18,1.42-.7.59-.57-1-1.56-.64-.1-.1.26.56-.26.47a2.84,2.84,0,0,1-1.57-1.65c.39.07,1.06.41,1.06-.18-.34-.19-.92-.17-1.05-.49-.18.78.66,0,.34.67-.21.07-.37-.11-.51-.17.23.21-.06.52-.07.69-.71.24-.9.8-1.52,1.2a.94.94,0,0,0,.17.45,2,2,0,0,1-1.52-.8c-.39.28-.23.52-.64.65.09-.87,0,.15-.49-.25-.36.25.1.32.06.57a1.08,1.08,0,0,1-.49-.15c.17.51,1.22.55,1.42,1.14a10.39,10.39,0,0,1,.08,1.41,8.33,8.33,0,0,1-2.53-2.35c-.31-.21,0,.58-.05.74.15.78-.91.36-1,.87l.47-.09c.07.14-.44.57-.68.55.17.11,1.09.29,1.19.59-.31.64-1.7.72-2.23.42,0,0,1.22-.73,1.22-.73-.43-.31-.94.47-1.46.13l-.4,1.12c.08-.12.43-.46.61-.18-.26.42,0,.27,0,.65a9.81,9.81,0,0,1,3.7-.06l-.57.22.21.25c-.63.31-2.81,0-3.42,0-.06.43,1.07.69,1.3.69-.23.71-1.8.18-2,1l-.12-.36c-.19.15-.17.92-.36.8.25.23.91.52,1.15.38l-.63.24-.63.27a6.34,6.34,0,0,1,1.2.12c-.05.26-1.17.32-1.28.11.55.67.22.49.92,1-.09.16-1-.08-1.05-.22a.71.71,0,0,0-.17.82c.5-.64,2.11-.1,2.83-.2a13.4,13.4,0,0,0-1.44.58A16,16,0,0,0,338.48,483.08Zm13.06-10.51v0C351.42,472.68,351.35,472.75,351.54,472.57Zm10.45.55-.13-.07C362,473,362.12,472.91,362,473.12Zm-10.43,18.49c.21-.19.28-.46.51,0C352,491.94,351.7,491.69,351.56,491.61Zm-9.14-2.6a.38.38,0,0,1,.39.12C342.58,489.2,342.41,489.19,342.42,489Zm12.06-18.26.24.07.15-.05Zm-.1,1.43c.09.22.11.48.4,0a0,0,0,0,1,0,0C354.72,472,354.6,471.85,354.38,472.18ZM353.9,471a.15.15,0,0,1,0-.17l-.38.06C353.42,471,353.68,470.93,353.9,471Zm-3.34,21.94,0,.14.29-.4C350.7,492.69,350.61,492.72,350.56,492.89Zm3-1.78.08.17C353.7,491.25,353.66,491.18,353.57,491.11Zm2.07,0-.13-.53.05.58Zm-12.41-1.16a.92.92,0,0,1-.17.22A.22.22,0,0,0,343.23,489.92Zm16.08-.39c.14-.13.38-.18.51-.32C359.43,488.64,359.71,489.36,359.31,489.53ZM352.84,473l-.09,0C352.81,473.16,352.83,473.12,352.84,473Zm-3.43-3.85c-.58.08.08.26.14.41C349.94,469.39,349.49,469.34,349.41,469.19ZM339,477.65c.54.34.48.13.84-.11-.24.07,0-.44-.3-.4C339.57,477.71,339,477,339,477.65Zm10.51-6.9c-.16,0-.25.09-.18.24l.41.06C349.74,470.88,349.58,470.84,349.47,470.75Zm.56-4.59.23.53v-.63C350.24,466.21,350.1,466.18,350,466.16ZM353.3,487a.28.28,0,0,0-.19-.19A.25.25,0,0,0,353.3,487Zm-4.23-13.67a1.29,1.29,0,0,0,.27-.37C349.21,472.63,349.16,473.05,349.07,473.34Zm-.32,0s0,.07,0,.11c.22.22.29.08.36-.13A.36.36,0,0,1,348.75,473.36Zm12.8,13-.07,0,0,0ZM352.16,466a1.09,1.09,0,0,1-.26,0C352,466.07,352.11,466.06,352.16,466Zm7.25-3.65s0,0,.08,0S359.43,462.32,359.41,462.38Zm2.62,24-.48-.07C361.73,486.43,361.77,486.68,362,486.4Zm2.87-11.92,0,0C365.05,474.38,365.08,474.31,364.9,474.48Zm-10.26.35a1.58,1.58,0,0,0-.24.27A1.72,1.72,0,0,0,354.64,474.83Zm.31-2.49a.22.22,0,0,1-.12-.11C354.87,472.34,354.82,472.54,355,472.34Zm.06-1.24-.1.4.34-.4Zm.74,3.18c.09-.25.42-.32.32-.63-.46.11-.52.44-.87.71,0-.21-.08-.3-.18-.33a1.79,1.79,0,0,1,0,.46h0l.05,0c0-.05,0-.15.14-.09l-.14.09v0s0,0-.05,0h0a1.06,1.06,0,0,1,.25.09.54.54,0,0,1,0-.25C355.58,474.5,355.66,473.81,355.75,474.28Zm-.53,2.9.12,0C355.15,477.13,355.16,477.15,355.22,477.18Zm0-2.59a.33.33,0,0,1-.08.35c0,.12.22,0,.34-.07S355.35,474.66,355.23,474.59Zm-.7-1s-.34.57-.35.57l.31-.35A1,1,0,0,0,354.53,473.59Zm.44,3.66c.15,0,.34,0,.15,0,.39.1.19,0,.1,0Zm-.44.06c-.16-.15,0,.05,0,0Zm-.5,1.83.24.21L354,479Zm1.46-4.27a.51.51,0,0,1,0,.24c.12-.09.2-.19.11-.25S355.55,474.83,355.49,474.87Zm0,1v-.08H355A.79.79,0,0,0,355.45,475.84Zm-.87,1.28.25,0a.58.58,0,0,0-.51-.17C354.44,476.94,354.45,477,354.58,477.12Zm.87-1.28v0C355.5,475.84,355.49,475.84,355.45,475.84Zm-1,0,.24-.1.15-.11Zm.83.53c.15,0,.32,0,.27-.18A1.41,1.41,0,0,1,355.26,476.35Zm-.22,1c-.23.1.12.42.39.24C355.13,477.62,355.12,477.48,355,477.38Zm.38-1.78a1.32,1.32,0,0,1,0,.16h0A1.12,1.12,0,0,0,355.42,475.6Zm-.72.69a.61.61,0,0,1,.37.16l.19-.1A4,4,0,0,0,354.7,476.29Zm.76,1.18a5.27,5.27,0,0,0,.61-.14l0-.06A5.24,5.24,0,0,1,355.46,477.47Zm1.56-2.94-.4-.1-.11.5c.16-.08.43-.1.3-.34Zm.12,1.8-.07,0c.15.27.38.07.51,0-.14,0-.23.11-.34,0s.13-.18.2-.22a2.53,2.53,0,0,0-.91-.2A1.21,1.21,0,0,1,357.14,476.33Zm.44,0a.15.15,0,0,1,.09,0C357.68,476.29,357.64,476.31,357.58,476.35Zm-2.22-1.05,0,0C355.41,475.3,355.4,475.3,355.36,475.3Zm1.36,1.34c-.29-.32-.6,0-.85.07C356.25,476.55,356.42,476.72,356.72,476.64Zm-1.25,2.61.26.08,0-.27C355.64,478.89,355.6,479.28,355.47,479.25Zm-1.5-5.41.25-.31-.17.07Zm.73,5.39,0-.16c.07-.17.28-.07.45-.08s.29-.11.13-.41a.33.33,0,0,1-.33.23,2.45,2.45,0,0,0-.49-.05Zm-.17-1.92,0,.05c.2,0,.18.06,0-.1C354.54,477.3,354.54,477.31,354.53,477.31Zm2.23-4.42.2-.12c0-.07-.06-.08,0-.15C356.72,472.52,356.66,472.74,356.76,472.89Zm-2.34,1.27a1.11,1.11,0,0,1,.6-.13l0-.09,0,.06-.29-.29A1.3,1.3,0,0,0,354.42,474.16Zm.56.34a1.13,1.13,0,0,0-.26,0C354.63,474.56,354.84,474.53,355,474.5Zm.25.82v0C355.18,475.31,355.13,475.31,355.23,475.32Zm.13,0a.7.7,0,0,0,.1-.19,1.44,1.44,0,0,0-.22.19Zm.71.83-.1-.23-.28.27A.71.71,0,0,1,356.07,476.13Zm-.14-.31,0,.08.13-.13ZM355,473.1a.7.7,0,0,1-.26.56c.63-.38,1.8-1,1.84-1.46-.49,0-.51-.44-.28-.77-.15,0-.16.24-.25.31l-.13-.43c-.51.53-.16,1.1-.63,1.36.27-.05.51-.36.58.09C355.71,473.18,355.24,473,355,473.1Zm-.33.6h0l.06,0Z" fill="#202020"/>
          <path d="M365.54,576.22c-7.26.43,4.79.71-4.25.39-1.8-.06-2.38-18-4.18-18.09-1.41-.09-4,17.51-5.45,17.51-12,0-34.43.72-29.48-20.11.73-3.08,2-9.5,3.5-18.19,17.12,9.09,25.44,9.59,44.34,4.84C369.17,562.31,367.75,576.09,365.54,576.22Z" fill="#202020"/>
          <path d="M334.59,540.56c1.69.26,4.62-.29,8-1h0v.16s0,.05,0,.08v0a.53.53,0,0,0,0,.13h0c0,.06,0,.11,0,.16h0c0,.19,0,.43-.09.69,7.34-4.35,14.53-2.34,17.25,2.62-1.11,2.82-3.82,8.55-7.45,8.42-4.81-.17-3.9-7.43-3.9-7.43s-2,5-5.35,4.92c-1.69,0-2.19-1.93-2.28-3.81a5,5,0,0,1-2.14,1.87,4.58,4.58,0,0,1-1.52.37C331.85,548.11,334.59,540.56,334.59,540.56Z" fill="#38322f"/>
        </g>
        <g>
          <path d="M135.62,532.33a.09.09,0,0,0,0,0c5.9-34,15.71-102.93,13.4-144.73-.28-4.89-9-64.29-4-120,30.88,57.66,35.81,161.35,36,187.13.2,27.43,0,59.11-1,82.44C161.06,541.92,152.74,541.42,135.62,532.33Z" fill="#38322f"/>
          <path d="M148,359l1.27-.23c0-1.34.08-2.92-1.28-3.16a3.16,3.16,0,0,1,2.35-.38c-.35.24-.71,1.93-.19,1.95,1.22-1.61.87-.9,2.43-2.37-.52.36.32,2.16,1.18,1.93-.17-.26-.15-1.9-.5-2l2.39,1.48c-.58-.24-.28-1.57.14-2.2-.18.42,1.87-.37,2.46-.3l-.86.61c2.41-.74,2.73,2.19,5.14,1.64-.34-.33-1-2.25.19-2.71a27.28,27.28,0,0,0,2.27,2.63l2.72-.5a28.86,28.86,0,0,0-3.78-2.6c.86-.6.18-.69,1.55-.9.42-.6-.84-.64-1.24-.59l3.07-.9.45,1.29-1.41-.21c0,.69.85,1.55,2,2,2.34,7,4.44,14.05,6.3,21,2.33,16.79,3.84,32.69,4.8,46.15-2.45.4-4,1.2-7.11,2.2l.18-.85a3.24,3.24,0,0,0-1.3.84c-1.12-1,2.29-.55,1.25-1.69-.87,1.79-5.83,1.34-6.17,3.36-1.23.34.17-1-1.07-.65l-.22.58-.45-.52a1.47,1.47,0,0,0-1,1.47,2.6,2.6,0,0,1,.8-.07c-.9.85-2.95.71-3.26,1l1.08-.68c-3.47.61-7.15,2.78-10.55,3.37l.07-.45c-2.28.54-1.9,1.12-3.52,2a366.55,366.55,0,0,0,.75-43c-.12-2-1.72-13.67-3.17-30.57Z" fill="#202020"/>
          <path d="M153.55,482.91c0,.13,0,.28-.07.44l.12-.08C153.58,483.14,153.57,483,153.55,482.91Zm2.8-16.43h0C156.36,466.41,156.35,466.39,156.35,466.48Zm-1.48,2.3-.68-.65-.08.07Zm7.58-1.18.12,0s0,0,0-.06A.31.31,0,0,1,162.45,467.6Zm-14,9v0l0,0Zm14.12-3.78c0,.1.17-.34.07-.44C162.63,472.42,162.47,472.81,162.57,472.79Zm-9.11-5.85a.62.62,0,0,1,0-.33C153.35,466.77,153.38,466.87,153.46,466.94Zm.14,6.89.36.19c.39.15,0-.21-.29-.52A.27.27,0,0,1,153.6,473.83Zm-3.95,2.94-1.2-.2c.09.21.16.36-.38.66l.79-.24Zm12.69-9.15c-.07.15.08-.44,0-.36C162,466.91,162.32,468.14,162.34,467.62Zm2,2.08a2.87,2.87,0,0,0-.4.42c.16-.12.37-.05.63-.2C164.34,469.87,164.28,469.82,164.34,469.7Zm-3.57-5.62-.21-.19,0,.6A.94.94,0,0,1,160.77,464.08Zm-.22-2.53.27-.25-.11-.11Zm3.29,4a1.3,1.3,0,0,0,.21.17A.23.23,0,0,0,163.84,465.55Zm-.5,2.55c-.05,0,.06-.15.12-.25s-.15.13-.22.07Zm-14.93,9.58a10.62,10.62,0,0,1,1.17-.24c-.88.14-.9,1.84-.54,2.59l0-.12c.22-.23.65.31.47.68.14-.11.07-.15,0-.26.76.19-1,1.24,0,1.38-.36-.4,0-.67.26-.79-.13.51.69,1.11-.26,1.53.33.11.36.4.75.06a2.63,2.63,0,0,0,.11.57l.16.59a.29.29,0,0,1,.44-.23c-.52-.33-.19-1.29-.83-1.15.5-.38.86-.44,1.16-.94a5.32,5.32,0,0,1,.09,1.45,6.87,6.87,0,0,0,0,1.57l.56.07.54.06-.11.27.5-.54c0,.19,0,.36.07.31a.42.42,0,0,0,.08-.26.47.47,0,0,1,.11.24,2.9,2.9,0,0,0,.32-1.17l-.39.23c0-.39.16-.76.45-.86a1.15,1.15,0,0,1,0,.19c.06-.29.13-.5.24-.56a2.61,2.61,0,0,0,.32.56l-.51.36c.12.56.32,1.23-.23,1.54l.64-.21a2.91,2.91,0,0,0,.73,1.4c.13-.22,0-.46.21-.6.27.88,1.53-.59,1.44.1.37.26,0,.64.26.86,0-.08,0-.23.09-.23l.24.52c.17-.16-.24-.37.18-.54.58.41,1,.76,1.55.49.81.09-.45,1,.27.88.14-.41.26-.9.68-1,.22.26.19.59.59.74l0-.62c.35,0,.65,0,.62-.42a.47.47,0,0,0,.65,0c.58.23-.28,1.3-.42,1.57.53-.56,1-.35,1.17-1.15l-.5-.07c.87-.95,1.11.59,1.32-.78-.33.14-.77-.06-.64-.45l.52.17c0-.17-.29,0-.11-.27a4.92,4.92,0,0,1,.68.47l0,0a8.7,8.7,0,0,0,.88-.22c-.15.09-.26-.11-.1-.2l.65.07c-.22-.07-.11-.32.09-.52.62-.45,1.1,1,1.39.12-.07.06-.12,0-.19.05l.15-.39c.31.55.75.34,1.18.12s.81-.49,1.2,0c.1-.71-.16-.26-1-.42l.2-.59c-.18.07-.27.25-.5.26.21-.8,1-.57,1.54-.53.06-.3-.72-.62-.1-.9.88-.44.46.83,1,.56l-.11-.77c.91-.12.94-.88,1.3-1.37a.44.44,0,0,1,.31-.06c.22-.65,1.37-.71,1.52-1.24-.18,0-.17-.46-.27-.59l.82-.55c-.36.26-.68,0-1-.08.18-.21.43-.21.57-.35-.18,0-.36.06-.43-.14l1-.49a.4.4,0,0,1,0,.26c.14-.18.57-.54.44-1-.15,0-.32,0-.47,0,.26.41-.14.41-.45.41.33-.52,0-.18-.14-.55a.66.66,0,0,1,1-.12,1.06,1.06,0,0,1,.63-1l-.53-.08.32-.38-.73.15c0-.9.9.12,1-.88l-.44-.12c.29-.29,1.1-.25.63-.65.37-.3.47.75.79-.08a1.47,1.47,0,0,1-.31-.8c.28-.24.49.29.37.46.56-1.27-1.33-1-.55-2,.27.4.95-.23.78.65.35-.4-.52-.88,0-1.28l-.63.24c0-.15.25-.32.34-.4l-.46,0c.91-.5-.27-1,.82-1.32-.85.23.08-.41-.22-.63-.63.46-.1,1.29-.87,1.33-.21-.2.18-.38,0-.58a1.42,1.42,0,0,1-.51.38c-.37-.65.55-1,.79-1.45l-.24.72c.78-.07.16-.32.78-.55-.37-.34.2-.68-.05-1,0,.09-.07.1-.06.18,0-.83-1.24-.88-1.29-1.17s.21-.92.56-.78c.18-.3-.1,1.09.84.47-1.23-.24.37-1.08-.67-1.9-.29.55-.7-.05-.91.42,0-.47.14-.54.4-.86h-.38c.59-.91.65-.4.67-1.53-.13.44-.64-.11-.77.24a1.09,1.09,0,0,1-.06-.8l0,.06c-.42-.95-.76-.44-1.05-1.36l.23-.09c-.34-1.41-2-2-3-2.72a4.15,4.15,0,0,1,.49,0c-.16,0-.65-.67-1.18-.47.06,0,.16.18.24.18-.12.22-.41.52-.7.48l0-.39-.22.24c-.43-.14.32-.48-.13-.61-.59,1-1.94-.26-2.51.69-.14-.79.83,0,.66-.76a1.1,1.1,0,0,1-.54.28l.18-.45c-1.39.12-1.9.57-3,.48l0,.1c-.41.21-.62.14-.8-.24-.08.22.2.31,0,.51-.73-1.12-1.38,1-1.82.25.09.91-.7,1.92-.29,2.58l-.26-.08c.13.6.81-.11,1,.51l.39-.38.4-.36c0,.23.12.56,0,.65.2,0,.36,0,.12.36a3.27,3.27,0,0,1,2.85-.8,8.14,8.14,0,0,0,2.69.28c.08.09-.06.27-.15.4.51-.46.15.39.26.51s.78-.66.78-.64c0,.32-.22.49-.28.66.28.26.74.24,1.08.37s.72.27.71.69c.37-.07.49-.53.77-.4-.48.17-.42.39-.33.58s.14.43-.18.53c.94-.38.68.66,1.77-.1.22.31-.39.54-.53.51a.88.88,0,0,1,0,1.12c.4.11.06,1.86,1,2.12-.64-.18-.33.07-.61.36l-.56-.15.07.54c-.06.12,0,.15,0,.14s.32,0,.47.19-.3.43-.6.65l-.07-.06-.08.26c0,.21.62-.71.85-.07-.16,0-.93.4-.54.57,0-.33.38-.29.54-.16v.47l-.69-.17c0,.65-.06,1.35,0,2.06a6.12,6.12,0,0,1-.37,2.05c.59.15-.33,1,.56,1.13l-.06-.08c.21-.33.64.33.39.59-.13-.38-1.08.2-.87-.54l-.65.37c-.86-.18-.95.15-1,.59s-.05,1.05-.51,1.25a.45.45,0,0,1,.22.05c-.89.28-.66,1.62-1,1.58l.3.35c-1,0-1,0-1.43.74.06.05.22.09.19.25-.38-.13-.72-.26-1.06.13l.11.11-.71.41c.39.58,0,.65-.45.65s-.86,0-.65.8c-.31-.27-.91-.19-1.21-.27a.44.44,0,0,1,0,.2c-.5-.59-.75.55-1.12.56s-.2-.4-.17-.66c-.3.76-1.19-.44-1.27-.16-.28.11-.08.58-.14.92-.46-.07,0-1.32-.54-.68.07.06.2.11.15.2s-.7,1.84-1,1.51l.19-.27c-.4-.33-1.26,1.2-1.19.18l.12-.46c-.88.53-.28-.2-1.18.24v.08c-.31-.17-.67.35-.61-.42l.14-.07a3,3,0,0,0-.87-.17c0-.08-.17-.26-.29-.13.23-.6-.79-.61-1-.65.27.2,0,.39-.21.59,0-.53,0-.65-.41-.45.39-.7.81-1.46.53-1.66,0,.12,0,.22-.11.34s-.1-.07-.09-.14c-.14.12-.11.28-.31.48.23-.73-.29-.36-.4-.8-.09.24-.28.28-.53.43.65-.56-.95,0,.06-.56a1.21,1.21,0,0,1-.61-.39,5.85,5.85,0,0,1-.3-.68c-.15-.47-.18-.92-.6-1.05s.21-.41.22-.58l-.39.06c.73-.55.24-.42,1-1a.76.76,0,0,1-1-.14l.86-.35-.57-.13c.26-.15.18-.34.15-.55,0,.09-.07,0-.17,0,.83,0,.94-.68,1.34-.7-.73-.37.34-.4-.31-.73a1,1,0,0,0,.35-.13c.29.19.65.33.55.13l0,0-.41-.2a1.17,1.17,0,0,0,.33-.36.59.59,0,0,0,.15.23c0-.08-.1-.18-.14-.26s0,0,0-.06,0,0,0,0c-.06-.14,0-.25.16-.32-.35-.85,1.44-.71,1-1.69,0,.13,0,.27-.17.22.31-.44.15-1.24.65-1.31l.31.28a3.27,3.27,0,0,0,.88-.54l.35.32c.18-.48,1.27-.37.89-1.3.28.22.39-.38.63-.39l-.11-.35a.46.46,0,0,1,.6-.17c.24-1,1.08-.35,1.6-.51v-.1l.58.14c-.15-.32.11.22.25.14.15.18.4.08.61-.17l.33,0c-.33-.23.1-.54.2-1,0,0,.15.38.15.38.13-.18-.07-.36.11-.42.1.26.53.33.5.78a1,1,0,0,1-.22.27s0,0,0,0l0,0h0a.54.54,0,0,1,0,.18c.26-.06.11.1,0,.29.51-.64.39-.08,1-.76-.68.72.54.24-.08.92.54-.49.1,0,.55-.37-.28-.05-.22-.63-.31-1l.43-.27c.21-.78-.69,0-.72-.29,0,.2.32.14.42,0l-.33.53c-.39,0-.56-.36-.77-.74.34-.14-.25-.42.06-.79l.22.11c.17-.18,0-.4-.13-.6a11.83,11.83,0,0,1-1.54.18c-.51,0-1,.07-1.09.35a.39.39,0,0,1,.6.09,4.06,4.06,0,0,0-.36.26c.29,0,.53-.52,1-.35-.09.38.15.89-.18,1.42-.7.59-.57-1-1.56-.63-.1-.11.26.55-.26.46a2.81,2.81,0,0,1-1.57-1.65c.39.07,1.06.41,1.06-.18-.34-.19-.92-.16-1.06-.49-.17.78.67,0,.35.67-.22.07-.37-.1-.51-.17.23.21-.07.52-.08.69-.7.24-.89.8-1.51,1.2a.94.94,0,0,0,.17.45,2,2,0,0,1-1.52-.8c-.39.28-.23.52-.64.66.09-.88,0,.15-.5-.26-.35.25.11.33.07.57a1,1,0,0,1-.49-.15c.17.51,1.22.55,1.42,1.15a9.89,9.89,0,0,1,.07,1.4,8.66,8.66,0,0,1-2.53-2.34c-.3-.22,0,.57,0,.73.15.78-.91.36-1,.87l.47-.08c.07.13-.44.56-.69.54.18.12,1.09.29,1.2.59-.31.64-1.71.72-2.24.42,0,0,1.22-.73,1.22-.73-.42-.31-.93.47-1.46.13l-.39,1.12c.08-.12.43-.46.61-.18-.26.43,0,.27,0,.65a9.8,9.8,0,0,1,3.7-.06l-.57.23.21.24c-.63.31-2.81,0-3.42,0-.06.43,1.07.69,1.3.69-.23.71-1.8.18-2,1l-.12-.36c-.2.15-.17.92-.36.8.25.23.91.52,1.15.39l-.63.24-.63.26a6.34,6.34,0,0,1,1.2.12c-.05.26-1.17.32-1.28.11.55.67.22.49.92,1-.09.16-1-.08-1-.22a.71.71,0,0,0-.17.82c.5-.64,2.11-.1,2.83-.19a11.84,11.84,0,0,0-1.45.58C149.12,477.25,148.41,477.68,148.41,477.68Zm13.07-10.51v0C161.36,467.28,161.29,467.36,161.48,467.17Zm10.44.56-.12-.08C171.94,467.58,172.06,467.51,171.92,467.73ZM161.5,486.21c.21-.19.28-.46.5,0C161.94,486.54,161.64,486.29,161.5,486.21Zm-9.14-2.6a.4.4,0,0,1,.39.12C152.52,483.8,152.34,483.8,152.36,483.61Zm12-18.26.25.07.15-.05Zm-.09,1.43c.09.22.11.48.4,0l0,0C164.66,466.6,164.54,466.45,164.32,466.78Zm-.48-1.23a.15.15,0,0,1,0-.17l-.38.06C163.36,465.58,163.62,465.53,163.84,465.55Zm-3.34,21.94,0,.14.29-.4C160.64,487.29,160.55,487.32,160.5,487.49Zm3-1.78.08.17S163.6,485.79,163.51,485.71Zm2.07,0-.13-.53.05.58Zm-12.42-1.16a.52.52,0,0,1-.17.22A.2.2,0,0,0,153.16,484.52Zm16.09-.39c.14-.12.38-.17.51-.32C169.37,483.24,169.65,484,169.25,484.13Zm-6.47-16.48-.09,0C162.75,467.76,162.77,467.72,162.78,467.65Zm-3.43-3.86c-.58.08.08.26.14.42C159.88,464,159.42,463.94,159.35,463.79Zm-10.45,8.46c.54.35.48.13.83-.1-.23.06,0-.45-.29-.41C149.51,472.31,148.9,471.63,148.9,472.25Zm10.51-6.89c-.16,0-.25.08-.18.23l.41.06C159.68,465.48,159.52,465.44,159.41,465.36Zm.56-4.6.23.53v-.63C160.18,460.81,160,460.78,160,460.76Zm3.27,20.85a.3.3,0,0,0-.19-.19A.25.25,0,0,0,163.24,481.61ZM159,467.94c.09-.05.15-.18.27-.37C159.15,467.23,159.1,467.65,159,467.94Zm-.32,0s0,.07,0,.11c.22.22.29.08.36-.13A.36.36,0,0,1,158.69,468Zm12.8,13-.08,0v0Zm-9.39-20.3a1,1,0,0,1-.26,0C162,460.67,162.05,460.66,162.1,460.63Zm7.25-3.65s.05,0,.08,0S169.36,456.92,169.35,457ZM172,481l-.48-.08C171.66,481,171.71,481.29,172,481Zm2.87-11.93,0,0C175,469,175,468.91,174.84,469.08Zm-10.26.35a1.58,1.58,0,0,0-.24.27A1.72,1.72,0,0,0,164.58,469.43Zm.31-2.49a.28.28,0,0,1-.13-.11C164.81,466.94,164.76,467.14,164.89,466.94Zm.06-1.23-.11.39.34-.39Zm.74,3.17c.09-.25.42-.32.32-.63-.46.11-.52.44-.87.71,0-.21-.08-.3-.19-.33a1.49,1.49,0,0,1,0,.47h0l.05,0c0-.06,0-.16.13-.1l-.13.1h0s0,0-.05,0h0a1.14,1.14,0,0,1,.26.09.54.54,0,0,1,0-.25C165.52,469.1,165.6,468.42,165.69,468.88Zm-.54,2.9.13,0C165.08,471.73,165.1,471.75,165.15,471.78Zm0-2.59a.33.33,0,0,1-.08.35c0,.13.22,0,.34-.07S165.29,469.26,165.17,469.19Zm-.71-1a5,5,0,0,1-.34.57l.31-.34A1,1,0,0,0,164.46,468.19Zm.45,3.67c.14,0,.34,0,.15,0,.39.09.19,0,.09-.05Zm-.45.06c-.15-.16,0,0,0,0Zm-.49,1.82.24.21-.28-.37Zm1.46-4.27a.5.5,0,0,1,0,.24c.12-.09.2-.19.11-.25S165.49,469.44,165.43,469.47Zm-.05,1v-.07H165A.77.77,0,0,0,165.38,470.44Zm-.86,1.28.25,0a.58.58,0,0,0-.51-.17C164.38,471.54,164.38,471.63,164.52,471.72Zm.86-1.28v0C165.44,470.44,165.43,470.44,165.38,470.44Zm-1,0,.24-.1.16-.11A3.81,3.81,0,0,1,164.36,470.42Zm.84.53c.15,0,.32,0,.27-.18A1.41,1.41,0,0,1,165.2,471Zm-.22,1c-.23.1.12.42.39.24C165.07,472.22,165.06,472.08,165,472Zm.38-1.77s0,.07,0,.16h0A1.08,1.08,0,0,0,165.36,470.21Zm-.72.68a.58.58,0,0,1,.37.17l.19-.11C165,470.94,164.79,470.88,164.64,470.89Zm.76,1.18.61-.13,0-.07A5.12,5.12,0,0,1,165.4,472.07Zm1.56-2.94-.4-.1-.11.5c.16-.08.43-.1.29-.34Zm.11,1.81-.06,0c.15.26.38.07.51,0-.14,0-.24.11-.34,0s.13-.18.19-.22a2.66,2.66,0,0,0-.9-.2A1.11,1.11,0,0,1,167.07,470.94Zm.45,0a.15.15,0,0,1,.09,0C167.61,470.9,167.57,470.91,167.52,471Zm-2.22-1.05,0,0C165.35,469.9,165.34,469.9,165.3,469.9Zm1.36,1.34c-.29-.32-.61,0-.85.07C166.19,471.15,166.36,471.32,166.66,471.24Zm-1.25,2.61.25.08,0-.27C165.57,473.49,165.54,473.89,165.41,473.85Zm-1.5-5.41.25-.31-.17.07Zm.72,5.39v-.16c.07-.17.28-.07.45-.08s.28-.11.13-.41a.33.33,0,0,1-.33.23c-.19,0-.37-.06-.5-.05Zm-.17-1.91s0,0,0,.05c.2,0,.18,0,0-.11A.1.1,0,0,1,164.46,471.92Zm2.24-4.42.19-.13c0-.06,0-.07,0-.14C166.66,467.12,166.6,467.34,166.7,467.5Zm-2.34,1.26a1.18,1.18,0,0,1,.59-.13v-.09l0,.06-.29-.29A1.3,1.3,0,0,0,164.36,468.76Zm.55.34a1.09,1.09,0,0,0-.26,0C164.57,469.16,164.78,469.13,164.91,469.1Zm.25.82,0,0C165.12,469.91,165.07,469.92,165.16,469.92Zm.14,0a.58.58,0,0,0,.1-.19,1.44,1.44,0,0,0-.22.19Zm.71.84-.1-.24-.29.27A.66.66,0,0,1,166,470.74Zm-.14-.32,0,.08.13-.13Zm-.93-2.72a.7.7,0,0,1-.26.56c.63-.37,1.8-1,1.84-1.46-.49,0-.52-.44-.28-.77-.15,0-.16.24-.25.31l-.13-.43c-.51.53-.16,1.1-.63,1.36.26,0,.51-.36.57.09C165.65,467.78,165.18,467.55,164.94,467.7Zm-.33.6h0l.06-.05Z" fill="#202020"/>
          <path d="M175.48,570.82c-7.26.43,4.79.71-4.25.39-1.8-.06-2.38-18-4.19-18.09-1.41-.09-4,17.51-5.44,17.51-12,0-34.43.72-29.48-20.11.73-3.08,2-9.49,3.5-18.19,17.12,9.09,25.44,9.59,44.34,4.84C179.1,556.91,177.68,570.69,175.48,570.82Z" fill="#202020"/>
          <path d="M144.53,535.16c1.68.26,4.62-.29,8-1h0v.15a.41.41,0,0,0,0,.1v0a.53.53,0,0,0,0,.13v0c0,.05,0,.1,0,.15h0c0,.2-.05.43-.1.7,7.35-4.36,14.54-2.35,17.25,2.62-1.1,2.81-3.81,8.55-7.44,8.41-4.81-.16-3.91-7.43-3.91-7.43s-2,5-5.34,4.92c-1.69,0-2.19-1.93-2.28-3.8A5.06,5.06,0,0,1,148.5,542a4.47,4.47,0,0,1-1.51.37C141.79,542.71,144.53,535.16,144.53,535.16Z" fill="#38322f"/>
        </g>
        <path d="M15.67,245.58a96.59,96.59,0,0,1-.1-12.49C-22.34,191.1,19,184,34.29,183.22c-12.1-50.24,16-52.32,32.42-50.09,38-34.84,38-17.46,45.84-.59.5-12.4,2.7-27,10.11-29.57,37-13,51-3.89,55.7,8.66,7.83-16.21,25.43-11.56,42.09-4.19,9.18-31.47,38.87-8.18,54.21,9a35.18,35.18,0,0,1,4.11,2.76c9.85-10.75,18.8-14.42,26.6-14.06,15.91-13.23,33.84-21.1,38.68,1,17.33-9.26,35.38-15.89,41.95-.49,5.72-13.12,20.51-23.8,56.64-14.9,7.23,1.78,8.27,16.17,7.77,28.57,9.23-17.81,10.67-35.27,46-4.5,16.72-4.08,44.73-5.11,28.53,46.7,15.41-1,56.62,1.62,14.25,48.62a63.91,63.91,0,0,1-2.69,11.41c16.38,3.6,29,16.53-13.13,57.8,4.32,16.25,18.41,41.63-39.21,50.81C490.24,348.5,485.4,381,471.74,383s-36.49-1-36.49-1-8.81,66-68.24,20.36a7.13,7.13,0,0,1-2.42-3.93c-2.37,30.55-21.76,26.19-39.87,18.14-8.61,29.29-37.64,3.7-49.69-11.17-22,24.8-38.9,8.66-47.07-3.34l-2-.86c-8.55,29.12-37.29,4-49.47-10.91,1.26,7.3,1,14-2.95,17.2-63.37,52.49-66.9-12.85-66.9-12.85s-23.18,5.59-36.73,5.06-15.81-32.64-8.24-51.68c-57.14-2.8-40.95-29.87-35.3-46.66C-10.86,266.25,0,251.56,15.67,245.58Z" fill="#ebebeb"/>
        <g>
          <path d="M418.61,400.88s-.36,1-.63,2.06-.5,2.17-.5,2.17a15.54,15.54,0,0,0-1.07-5.31l1.1.56Z" fill="#d8d0bf"/>
          <path d="M380.75,322.51a.6.6,0,0,1,0,.12C380.59,322.25,380.62,322.32,380.75,322.51Z" fill="#d8d0bf"/>
          <path d="M435.72,314.4a15.8,15.8,0,0,0-1.84.16C434.82,314.42,435.32,314.22,435.72,314.4Z" fill="#d8d0bf"/>
          <path d="M386.83,340.25a4.41,4.41,0,0,0,1.06.42C387.73,340.76,387.4,340.67,386.83,340.25Z" fill="#d8d0bf"/>
          <path d="M433.86,314.56h0Z" fill="#d8d0bf"/>
          <path d="M416.34,399.77v-.18l.07.21Z" fill="#d8d0bf"/>
          <path d="M463.53,334.87l1.64.19a9.54,9.54,0,0,0,1.63.08A13,13,0,0,1,463.53,334.87Z" fill="#d8d0bf"/>
          <path d="M410.19,375.55c-.43-.09-.87-.2-1.34-.34A10.54,10.54,0,0,1,410.19,375.55Z" fill="#d8d0bf"/>
          <path d="M357.77,296.87s.05-1.89.05-1.89a3.33,3.33,0,0,0,.82,1.51Z" fill="#d8d0bf"/>
          <path d="M463.43,334.5a.77.77,0,0,0,.6-.23C464.42,334.48,464.37,334.66,463.43,334.5Z" fill="#d8d0bf"/>
          <path d="M410.19,375.55c2.65.63,4.13.44,2.72,1.37-4.61,0-.92-1-5.1-.94-.49-.24.36-.21,1.21-.21S410.7,375.75,410.19,375.55Z" fill="#d8d0bf"/>
          <path d="M361.56,305.39c-.13.52,3.1,4.82-.16,1C361.37,305.9,359.45,302.56,361.56,305.39Z" fill="#d8d0bf"/>
          <path d="M326.52,92.85c-13.43,16.79-20.35,39.87,3.93,59.31a35.25,35.25,0,0,1-1.55,4,6.42,6.42,0,0,1-.46.86c-.1.27-.17.46-.21.61l-2,4.11-.14.19c0,.1-.06.19-.09.29-.78,1.67-1.53,3.38-2.16,5.07-.4.66-.74,1.09-.95,1.14-.17.94.37,0,.58-.09,0,.14-.1.28-.14.43-.15.33-.35.81-.54,1.31-.35.88-.61,1.8-.61,1.8a.24.24,0,0,0,.32,0c-.87,4.57,0,8.79,4.63,11.78l-.58-.35-.92-.71-.43-.24-.4-.3.39.35.93.66a6.3,6.3,0,0,0,1,.59l.31.16a28.43,28.43,0,0,0,10.21,3.34,10.42,10.42,0,0,0,2,.77c-1,.26-2.23.6-3.65,1-13.78,16.83-21.22,40.27,3.39,60a37.09,37.09,0,0,1-1.54,4,6.48,6.48,0,0,1-.47.86c-.1.27-.16.46-.21.61-.62,1.33-1.29,2.71-1.95,4.11a1.37,1.37,0,0,0-.13.2,2.29,2.29,0,0,0-.09.28c-.78,1.67-1.54,3.37-2.16,5.07-.4.66-.75,1.09-1,1.14-.17.93.38,0,.58-.09-.05.14-.09.29-.14.43-.14.33-.35.81-.54,1.31-.34.88-.61,1.8-.61,1.8a.24.24,0,0,0,.32.05c-.86,4.57,0,8.79,4.64,11.78l-.59-.35-.92-.7-.43-.25-.39-.3.38.35.93.66a5.92,5.92,0,0,0,1,.59l.3.16A28.49,28.49,0,0,0,346.59,284a14.4,14.4,0,0,0,2.48.94l5.24.16c.9,0,1.84.06,2.79.05h2.52c.07,0,0,.21-.05.31a18.31,18.31,0,0,0-.77,7.55,18.88,18.88,0,0,0,.47,2.83c0,.07,0,.11.06.18,1.21,6.19,4.9,12.23,11.28,14.53.73.73,1.17,1.26,1.05,1.65a9.22,9.22,0,0,1-1.09-.44l-1.17-.66c-.39-.24-.83-.42-1.21-.7l-1.11-.83c-.76-.48-1.36-1.06-1.89-1.45a2.65,2.65,0,0,0-1.31-.62c.41.55,1,1.12,1.57,1.74a18.39,18.39,0,0,0,2,1.61,18.64,18.64,0,0,0,1.75,1.16c.46.31.75.56.75.73,1.64,0,.34-.49-.76-1s-2.09-1-.13-.63c.91.36,1.49.78,2,1l1.37.65c-.6-.36-.09-.43.61-.43a7.94,7.94,0,0,0,2-.2l1.07.05a3.35,3.35,0,0,0,.95,0l1.85-.22c.81-.34.7.49.88,1s.19,1.07.24,1.63c.13,1.1.21,2.29.32,3.65s.23,2.79.46,4.4l.12.17a27.19,27.19,0,0,0,.84,4c0,.53,0,1.06,0,1.53,0,1.49-.15,2.58-.67,2.15a14,14,0,0,0,2,3.35c.3.37.56.74.87,1.17a19.36,19.36,0,0,1,1.14,1.61c-4-3.53.7.77.38,1.76,1.1,1.25,1.39,1.36,1.56,1.29s.23-.31.7-.06c.19.32.47,1,.19,1.15.83.2,1-.3,1-1.07,0-.55-.2-1.24.23-1.36.62.57,1.26,1.14,2,1.7-.22.73-.47,1.49-.74,2.27l-.37,0-.31.86a2.14,2.14,0,0,0,.45-.14c-.53,1.53-1.09,3.14-1.61,4.78a3.39,3.39,0,0,1-2.6-2.92c-.65.1-.46,3.29-.78,4.81a30.21,30.21,0,0,1-1,5.67,10.21,10.21,0,0,0-.13,5.48s0-.82,0-1.62.16-1.57.16-1.57c.13.31.16,2,.49,3.62a34.74,34.74,0,0,0,1.06,3.83c.19,0,.17-.94.34-1.62s.5-1.16,1-.49a24.48,24.48,0,0,0,2.52,3.93c1,1.12,1.9,2.13,2.74,3,.42.4.8.79,1.12,1.16a9.38,9.38,0,0,1,.84.9c.43.55.6,1,.39,1.14l-1.41-.83a14.92,14.92,0,0,1-1.4-.94,13.72,13.72,0,0,1-1.53-1.21,13.2,13.2,0,0,1-1.42-1.37,10.51,10.51,0,0,1-1.11-1.35,8.24,8.24,0,0,1-.7-1l-.23-.41c-.48.08.48,1.9,1.84,3.32s2.86,2.62,2.39,2.93l1.4.73A32.09,32.09,0,0,0,395.6,374a38.85,38.85,0,0,0,4.6,1.24c-1.16-.26-4.55-1.62-3-1.6,3.83,1.17,2.06.46,4.73.7a26.2,26.2,0,0,1-6.91-4.81c-.32-.31-.62-.63-.89-.95A29.72,29.72,0,0,0,401,371.2c2,1.62,3.7,3,4.43,3.6,3.52.26,2.65-1.65,1.93-2.08a23.76,23.76,0,0,1,3.87.76c1,.32,1.78.69,2.58,1,1.39.68,1.72,1.27,3.67,1.17-.05,0-1.75.35-1.7.35a2.82,2.82,0,0,0,.52.05H417l0,.1c-.31.92-.49,2-.66,1.87.37.4,1.23,1.53,1.78.4,0,0-.18.28-.41.72s-.61,1.32-.92,2.09c-.64,1.54-1.18,3.12-1.18,3.12.25-.93,1.6-.31,1.89-.7-.18,2.43-1.88,4.29-2.05,2.7.4,2.45.56,3.34.71,4.13a15.23,15.23,0,0,0,1.09,3.28c.05,1.42-1.52.15-1.74-.9a17.47,17.47,0,0,0,.89,6.71c-.25-2.76.55-3.29,1.4-3.31a8.8,8.8,0,0,1,1,.1c.19,1.16.42,2.29.69,3.37-.09.72-.17,1.49-.21,2.28a27.79,27.79,0,0,0,.13,4.28c.1.6.18,1.11.24,1.46s.13.55.13.55a4.29,4.29,0,0,1,.89-2.08c-.16.37.06,1.41.87,2.75a10.39,10.39,0,0,0,1,1.36c10.41-10.74,12.75-28.3,12.75-28.3s22.83,3,36.49,1a11.29,11.29,0,0,0,6.85-4.2c-2.59-12.4-12.67-18.55-39.21-8.43-10.53-14.92-5.77-37.21-26.83-29.34-.21-3.5-.54-7.24-1-11.27,5.69-4,13.51-8.17,18.65-14.1h0c.15-.18.31-.35.46-.54.92-.22,2.12-.45,3.21-.6,4.1-1.7,5.7.8,9.85-1.25-3.87,1-4.7.65-4.56.13a29.64,29.64,0,0,0,3-.45l1.7-.33.65-.12.5-.08c1.32-.2,1.92-.12,1.11.83a4.11,4.11,0,0,1,.42-.21l.2-.09.1,0s0,0,0,.05c.16.48.3.9.76.41,0,0,0,.3,0,.77,0,.21,0,.46,0,.72v.2l.05.35c0,.25.09.5.13.75.34,2,.91,4,.91,4-.07-.63.11-1.27,1.12.83a20.45,20.45,0,0,1-1.71-6.12c-.11-1.17-.25-2.47-.73-2.6a2.89,2.89,0,0,1,.88-.88c.27-.23.49-.5.66-1.54,0,0,.16-.41,0-.36l.16,0a.91.91,0,0,0,0,.17c.19,2.12.39,3.78.59,5.36s.48,3.17.75,4.6a30.55,30.55,0,0,0,2.41,8,29.91,29.91,0,0,0,2.89,2.74,24.55,24.55,0,0,0,3.38,2.19l0,.55.92-.12.89-.14c.73.7,1.28,1.07,1.51,1.06s0-.24-.27-.52c.76.33,1.43.72,1.78.91.48-.41-.61-1.46-1.6-2.51-.67-.12-1.39-.25-2.11-.43-.54-.76-.89-1.41-.73-1.64a18.37,18.37,0,0,0,2.34,1.45l.5.62c.21,0,.45,0,.67.06a4.34,4.34,0,0,1-.49-.35c.29.13.59.26.9.38l-.41,0a15.88,15.88,0,0,0,2.29,1.31l1.07.55a8.15,8.15,0,0,1,.91.4c1,.5,1.26.91-.57,1.06h.76a11.16,11.16,0,0,0,1.66-.09l1.64-.22a5.26,5.26,0,0,0,.73-.13,23.84,23.84,0,0,0,5.23,0,19.78,19.78,0,0,0,2.28-.4l1.64-.35,2.14-.62c.22-.48-1.54-.07-.5-.78a9.71,9.71,0,0,0,1.88-.5l.41-.2c-.16-.56-.32-1.1-.5-1.63l1.9-.31C487.83,318,483.93,309,468,310c5.32-26.42,5.57-52.82-37.49-36.4-3.13-4.43-4.9-9.5-6.41-14.24,13.73-13.18,24.3-33.23,16.21-40.86a95.18,95.18,0,0,0-13.85-10.24c.93-6.6-1.55-14.85-10.06-25.58,1.67-5.59,2.56-12,1-18l-.12,0c-1,.37-2,.85-3,1.26s-2.06,1-2.32,1.17a11.88,11.88,0,0,0-1.27.88l-.57.48c-.1.13-.15.06-.22.06h-.19c-.23-1.36.33,0,1.31-1,.9-.52,1.69-.87.89-1.06-.21.19-.38.38-.65.61a4.92,4.92,0,0,1-.49.39l-.33.23-.21.12c-.06,0-.1-.07-.16-.11a2.12,2.12,0,0,0,.27-.29c.13-.26.27-.51.27-.51a1.15,1.15,0,0,1-.35-.15c15.91-12.63,30.14-36.63,21.11-45.15-10-9.42-31.16-20.09-31.16-20.09a65.11,65.11,0,0,0,6.25-12.7c-11.13,2.79-17.22,9.39-20.43,16.77-6.57-15.4-24.62-8.77-41.95.49C341.37,93.93,334.67,90.89,326.52,92.85ZM455.92,328.5c1,.79,1.86,1.46,2.58,2.13a12.09,12.09,0,0,1-1.63-1A3.64,3.64,0,0,1,455.92,328.5Z" fill="#d8d0bf"/>
        </g>
        <g>
          <g>
            <path d="M59.1,551.63v0C65,517.71,74.81,448.76,72.5,407c-.28-4.89-9-64.28-4-120,30.88,57.66,35.81,161.35,36,187.12.2,27.44,0,59.11-1,82.44C84.55,561.22,76.23,560.72,59.1,551.63Z" fill="#38322f"/>
            <path d="M77,502.21c0,.14-.05.28-.07.44l.12-.08C77.07,502.44,77.06,502.32,77,502.21Zm2.8-16.43h0C79.84,485.71,79.84,485.69,79.84,485.78Zm-1.48,2.3-.68-.65-.08.08Zm7.58-1.18.12,0s0,0,0-.06A.23.23,0,0,1,85.94,486.9Zm-14,9v0l0,0Zm14.12-3.78c0,.1.17-.34.07-.44C86.12,491.72,86,492.11,86.06,492.09ZM77,486.25a.66.66,0,0,1,0-.34C76.84,486.07,76.87,486.18,77,486.25Zm.14,6.89.36.18c.39.15,0-.21-.29-.52A.28.28,0,0,1,77.09,493.14Zm-4,2.94-1.2-.21c.09.21.16.36-.38.66l.79-.24Zm12.69-9.16c-.07.15.08-.44,0-.36C85.49,486.21,85.81,487.44,85.83,486.92Zm2,2.08a2.43,2.43,0,0,0-.4.43c.15-.12.37-.06.63-.21C87.83,489.17,87.77,489.12,87.83,489Zm-3.57-5.62-.22-.19,0,.6A.84.84,0,0,1,84.26,483.38ZM84,480.85l.27-.25-.11-.11Zm3.29,4a1.45,1.45,0,0,0,.21.18A.22.22,0,0,0,87.33,484.85Zm-.5,2.56s.06-.16.12-.26c-.08.05-.15.13-.22.07ZM71.9,497a10.62,10.62,0,0,1,1.17-.24c-.88.14-.9,1.84-.54,2.59l0-.12c.22-.23.65.31.47.69.14-.12.07-.16,0-.27.76.19-1,1.24,0,1.38-.36-.4,0-.67.26-.79-.13.51.69,1.11-.26,1.53.33.12.36.4.75.06a2.77,2.77,0,0,0,.11.58L74,503a.29.29,0,0,1,.44-.23c-.52-.33-.19-1.29-.83-1.15.5-.38.85-.44,1.16-.94a5.32,5.32,0,0,1,.09,1.45,6.86,6.86,0,0,0,0,1.57l.56.07.54.06-.11.27.5-.54c0,.2,0,.36.07.31a.4.4,0,0,0,.08-.26.49.49,0,0,1,.11.25,2.94,2.94,0,0,0,.32-1.18l-.39.23c0-.39.16-.76.45-.86,0,.06,0,.12,0,.19.06-.28.13-.5.24-.56a2.39,2.39,0,0,0,.32.56c-.1.06-.29.2-.51.36.12.57.32,1.23-.23,1.54l.64-.21a2.9,2.9,0,0,0,.73,1.41c.13-.22,0-.47.2-.6.28.88,1.54-.6,1.45.1.37.25,0,.63.26.85,0-.07,0-.23.09-.23l.24.53c.17-.17-.24-.37.18-.55.58.41.95.76,1.55.49.81.09-.45,1,.27.88.14-.41.26-.89.68-1,.22.26.18.59.59.74l0-.61c.35,0,.65,0,.62-.43a.46.46,0,0,0,.65,0c.58.23-.28,1.31-.43,1.57.54-.56,1-.34,1.18-1.15a4.18,4.18,0,0,1-.51-.07c.88-.95,1.13.6,1.33-.78-.33.14-.78-.06-.64-.45l.52.17c0-.17-.29,0-.11-.27A5.61,5.61,0,0,1,87,505l0,0a8.7,8.7,0,0,0,.88-.22c-.15.09-.26-.11-.1-.19l.65.06c-.22-.07-.11-.32.09-.51.62-.46,1.1.95,1.39.11-.07.06-.12,0-.19,0l.15-.39c.31.55.75.34,1.18.12s.81-.49,1.2,0c.1-.71-.16-.26-1-.42l.2-.59c-.18.07-.27.25-.5.27.21-.81,1-.58,1.54-.54.06-.3-.72-.62-.1-.9.87-.43.46.83,1,.56l-.12-.77c.92-.11,1-.88,1.31-1.37a.44.44,0,0,1,.31-.06c.22-.65,1.37-.71,1.52-1.24-.18,0-.17-.46-.27-.59l.82-.55c-.36.26-.68.05-1-.08.18-.21.43-.21.57-.35-.18,0-.36.06-.43-.14l1-.48a.38.38,0,0,1,0,.25c.14-.18.57-.54.44-1-.15,0-.32,0-.47,0,.26.41-.14.41-.45.41.33-.52,0-.18-.14-.55a.67.67,0,0,1,1-.12,1.07,1.07,0,0,1,.62-1l-.52-.08.32-.38-.73.15c0-.9.9.12,1-.88l-.44-.12c.29-.29,1.1-.25.63-.65.37-.3.47.75.79-.07a1.5,1.5,0,0,1-.31-.8c.27-.24.49.28.37.45.56-1.27-1.33-1-.55-2,.27.4,1-.24.78.64.35-.4-.52-.88,0-1.28l-.64.24c0-.15.26-.31.35-.4l-.46,0c.91-.5-.27-1,.82-1.32-.85.23.08-.41-.22-.63-.62.46-.1,1.3-.87,1.34-.21-.21.18-.39,0-.58a1.39,1.39,0,0,1-.51.37c-.37-.64.55-1,.79-1.45l-.24.72c.78-.07.16-.32.78-.54-.37-.35.2-.69-.05-1,0,.08-.07.09-.07.17,0-.83-1.23-.88-1.28-1.17s.21-.92.56-.78c.18-.3-.1,1.09.84.47-1.24-.24.37-1.08-.67-1.9-.29.55-.7,0-.91.42,0-.46.14-.54.4-.86h-.38c.59-.91.65-.4.67-1.53-.13.44-.64-.11-.77.25a1.12,1.12,0,0,1-.06-.81l0,.06c-.42-.94-.75-.44-1.05-1.36l.23-.09c-.34-1.41-2-2-3-2.72a4.19,4.19,0,0,1,.5,0c-.16,0-.66-.67-1.18-.47.06.05.16.18.24.18-.12.22-.41.52-.7.48l0-.39-.22.24c-.43-.14.32-.47-.13-.61-.59,1-1.94-.26-2.51.69-.14-.79.83,0,.66-.76a1,1,0,0,1-.54.28l.18-.45c-1.39.12-1.9.57-3,.48l0,.1c-.4.21-.61.14-.79-.24-.08.22.2.31,0,.51-.72-1.12-1.37,1-1.81.25.09.91-.7,1.92-.29,2.58l-.27-.07c.14.59.82-.12,1,.5l.39-.38.4-.36c0,.23.12.56,0,.65.2,0,.36,0,.11.37a3.23,3.23,0,0,1,2.86-.8,8.38,8.38,0,0,0,2.69.27c.08.09-.06.28-.15.4.51-.46.15.39.25.52s.79-.67.79-.64c0,.31-.22.48-.28.65.28.26.74.24,1.08.38s.72.26.71.68c.37-.07.49-.53.76-.4-.47.17-.41.39-.32.58s.14.43-.18.53c.94-.38.68.66,1.77-.1.22.31-.39.55-.54.52a.85.85,0,0,1,0,1.11c.4.11.06,1.86,1,2.12-.64-.18-.33.07-.61.36l-.56-.15.07.54c-.06.12,0,.15,0,.14s.32-.05.47.19-.3.43-.6.65l-.07-.06-.08.26c0,.21.62-.71.85-.07-.16,0-.93.4-.54.57,0-.32.38-.29.54-.16v.47l-.69-.17c0,.65-.06,1.35,0,2.06a6.22,6.22,0,0,1-.37,2.06c.59.14-.33,1,.56,1.12l-.06-.08c.21-.33.64.34.39.59-.13-.38-1.09.2-.87-.54l-.65.37c-.86-.18-.95.15-1,.6s0,1-.51,1.24a.48.48,0,0,1,.22.05c-.89.28-.66,1.62-1,1.58l.3.35c-1,0-1,0-1.43.75.06.05.22.08.19.24-.38-.13-.72-.26-1.06.14l.11.1-.71.41c.39.58,0,.66-.46.65s-.85,0-.64.81c-.31-.27-.91-.2-1.21-.28a.48.48,0,0,1,0,.21c-.5-.6-.75.54-1.12.55s-.21-.39-.17-.66c-.3.77-1.19-.43-1.27-.16-.28.11-.08.58-.14.92-.46-.07,0-1.32-.54-.68.07.06.19.11.15.2-.2.13-.7,1.85-1,1.51l.19-.27c-.4-.33-1.26,1.2-1.19.19l.12-.46c-.88.53-.28-.2-1.18.23v.08c-.31-.17-.67.35-.61-.41l.14-.07a2.49,2.49,0,0,0-.87-.17c0-.09-.17-.27-.29-.14.23-.6-.79-.61-1-.65.27.2,0,.39-.21.59,0-.53,0-.65-.41-.45.39-.7.81-1.46.53-1.66,0,.13,0,.23-.11.34s-.1-.07-.09-.14c-.14.12-.11.28-.31.48.23-.73-.29-.36-.4-.79-.09.23-.28.28-.53.43.65-.57-1,0,.06-.57a1.27,1.27,0,0,1-.61-.38,6.86,6.86,0,0,1-.3-.69c-.15-.47-.18-.92-.6-1s.21-.42.22-.59l-.39.06c.73-.54.24-.42,1-1a.77.77,0,0,1-1-.15l.86-.35-.57-.13c.26-.15.18-.34.15-.55,0,.1-.07,0-.18,0,.84,0,.95-.68,1.35-.7-.73-.37.34-.4-.31-.73a1.2,1.2,0,0,0,.35-.12c.29.18.65.32.55.12l0,0-.41-.21a1.17,1.17,0,0,0,.33-.36.59.59,0,0,0,.15.23c0-.08-.1-.18-.14-.26a.13.13,0,0,0,0-.06l0,0c-.07-.14,0-.25.16-.32-.35-.85,1.44-.71,1-1.69,0,.14,0,.27-.17.22.31-.44.15-1.24.65-1.31l.31.28a3,3,0,0,0,.88-.54l.35.32c.18-.48,1.26-.37.89-1.3.28.22.38-.38.63-.39l-.11-.35a.47.47,0,0,1,.6-.17c.24-1,1.08-.35,1.59-.5v-.11l.58.14c-.15-.32.11.22.25.14.16.18.39.08.61-.17l.33,0c-.34-.24.1-.55.2-1a3.34,3.34,0,0,1,.15.38c.13-.19-.07-.37.11-.43.1.26.52.33.5.79a1.44,1.44,0,0,1-.22.27s0,0,0,0h0a.54.54,0,0,1,0,.18c.26-.06.11.1,0,.29.51-.64.39-.08,1-.75-.68.72.54.24-.08.92.54-.49.1,0,.55-.38-.28,0-.22-.63-.31-1l.43-.27c.21-.78-.69,0-.72-.29,0,.2.32.14.42,0l-.33.53c-.39,0-.56-.36-.77-.74.34-.14-.25-.42.06-.79l.22.11c.17-.18,0-.4-.13-.6a11.83,11.83,0,0,1-1.54.18c-.51,0-1,.07-1.09.36a.39.39,0,0,1,.6.08,2.81,2.81,0,0,0-.36.27c.28,0,.53-.53,1-.35-.09.38.15.88-.18,1.41-.7.6-.57-1-1.56-.64-.1-.09.26.57-.26.47a2.78,2.78,0,0,1-1.57-1.65c.39.07,1,.41,1.06-.18-.34-.19-.93-.16-1.06-.49-.17.78.67,0,.35.67-.22.07-.37-.1-.51-.17.23.21-.06.53-.08.69-.7.24-.89.8-1.51,1.2a1,1,0,0,0,.16.45,2,2,0,0,1-1.51-.8c-.39.28-.23.52-.64.66.09-.88,0,.15-.5-.26-.35.25.11.33.07.57a.92.92,0,0,1-.49-.14c.17.5,1.22.54,1.42,1.14a9.89,9.89,0,0,1,.07,1.4,8.52,8.52,0,0,1-2.53-2.34c-.3-.22,0,.57,0,.74.15.77-.91.35-1,.86l.47-.08c.06.13-.44.57-.69.54.18.12,1.1.3,1.2.59-.31.64-1.71.72-2.24.42,0,0,1.22-.73,1.22-.73-.42-.31-.93.47-1.46.14L73,490c.08-.12.43-.46.61-.17-.26.42,0,.26,0,.65a9.8,9.8,0,0,1,3.7-.06l-.57.22.21.24c-.63.31-2.81,0-3.42,0-.06.44,1.07.7,1.3.69-.23.71-1.8.19-2,1l-.12-.36c-.2.15-.17.92-.36.8.25.23.91.52,1.15.39l-.63.24-.63.27a6.3,6.3,0,0,1,1.2.11c-.05.26-1.17.32-1.28.11.55.67.22.49.92,1-.09.16-1-.08-1.05-.22a.71.71,0,0,0-.17.82c.5-.64,2.1-.09,2.83-.19a11.84,11.84,0,0,0-1.45.58C72.61,496.55,71.9,497,71.9,497ZM85,486.47v0C84.85,486.58,84.78,486.66,85,486.47Zm10.44.56-.12-.08C95.43,486.88,95.55,486.82,95.41,487ZM85,505.51c.21-.19.28-.45.5,0C85.43,505.84,85.13,505.59,85,505.51Zm-9.14-2.59a.4.4,0,0,1,.39.11C76,503.11,75.83,503.1,75.85,502.92ZM87.9,484.65l.25.07.15-.05Zm-.09,1.43c.09.22.11.48.4,0l0,0C88.15,485.9,88,485.75,87.81,486.08Zm-.48-1.23a.15.15,0,0,1,0-.17l-.38.06C86.85,484.88,87.11,484.83,87.33,484.85ZM84,506.79l0,.15.29-.4C84.13,506.59,84,506.62,84,506.79ZM87,505l.08.17S87.09,505.09,87,505Zm2.07,0-.14-.52L89,505Zm-12.42-1.15a.56.56,0,0,1-.17.21C76.62,504,76.66,503.92,76.65,503.83Zm16.09-.4c.14-.12.38-.17.51-.32C92.86,502.54,93.14,503.27,92.74,503.43ZM86.27,487l-.09,0C86.24,487.06,86.26,487,86.27,487Zm-3.43-3.86c-.58.09.08.26.14.42C83.37,483.29,82.91,483.24,82.84,483.09Zm-10.45,8.46c.54.35.48.13.83-.1-.23.06,0-.45-.29-.41C73,491.62,72.39,490.93,72.39,491.55Zm10.51-6.89c-.16,0-.25.08-.18.23l.41.06C83.17,484.78,83,484.75,82.9,484.66Zm.56-4.6.23.54V480C83.66,480.11,83.53,480.08,83.46,480.06Zm3.27,20.85a.3.3,0,0,0-.19-.19A.25.25,0,0,0,86.73,500.91ZM82.5,487.24c.09-.05.14-.17.27-.37C82.64,486.54,82.59,487,82.5,487.24Zm-.32,0s0,.07,0,.12c.22.22.29.07.36-.14A.36.36,0,0,1,82.18,487.26Zm12.8,13a.2.2,0,0,0-.08,0v0Zm-9.39-20.3h-.26C85.47,480,85.54,480,85.59,479.93Zm7.25-3.65s0,0,.08,0S92.85,476.22,92.84,476.28Zm2.62,24-.48-.08C95.15,500.33,95.2,500.59,95.46,500.31Zm2.86-11.93s0,0,0,0C98.48,488.29,98.51,488.22,98.32,488.38Zm-10.25.35a1.58,1.58,0,0,0-.24.27A1.37,1.37,0,0,0,88.07,488.73Zm.3-2.49c-.05,0-.08-.06-.12-.11C88.3,486.24,88.25,486.44,88.37,486.24Zm.07-1.23-.11.39.34-.39Zm.74,3.17c.09-.24.42-.32.32-.63-.46.11-.52.44-.87.71,0-.21-.08-.3-.19-.32a1.44,1.44,0,0,1,0,.46h0l0,0c0-.06,0-.16.13-.1l-.13.1h0s0,0,0,0h0a1.14,1.14,0,0,1,.26.09.54.54,0,0,1,0-.25C89,488.4,89.09,487.72,89.18,488.18Zm-.54,2.91.13,0C88.57,491,88.59,491.05,88.64,491.09Zm0-2.6a.33.33,0,0,1-.08.35c0,.13.22,0,.34-.07S88.78,488.56,88.66,488.49Zm-.71-1a4.28,4.28,0,0,1-.34.57l.31-.34A1,1,0,0,0,88,487.49Zm.45,3.66c.15,0,.34,0,.15,0,.39.09.19,0,.09,0Zm-.45.07c-.15-.16,0,0,0,0ZM87.46,493l.24.21-.28-.37Zm1.46-4.27a.5.5,0,0,1,0,.24c.12-.09.2-.19.11-.25S89,488.74,88.92,488.77Zm0,1v-.07h-.41A.77.77,0,0,0,88.87,489.74ZM88,491l.25,0c-.21-.15-.36-.21-.51-.17C87.87,490.84,87.87,490.93,88,491Zm.86-1.28v0C88.93,489.75,88.92,489.74,88.87,489.74Zm-1,0,.24-.1.16-.11Zm.84.54c.15,0,.32,0,.27-.19A2.1,2.1,0,0,1,88.69,490.26Zm-.23,1c-.22.1.13.42.39.24C88.56,491.52,88.55,491.39,88.46,491.28Zm.39-1.77s0,.07,0,.16h0A.62.62,0,0,0,88.85,489.51Zm-.72.69a.53.53,0,0,1,.37.16l.19-.1A2.28,2.28,0,0,0,88.13,490.2Zm.76,1.18.61-.14,0-.07S88.87,491.39,88.89,491.38Zm1.56-2.95-.4-.1-.11.5c.16-.08.43-.1.29-.33Zm.11,1.8-.06,0c.15.26.38.07.51,0-.14,0-.24.12-.34,0s.13-.18.19-.22a2.77,2.77,0,0,0-.9-.2A1.2,1.2,0,0,1,90.56,490.23Zm.45,0,.09,0C91.1,490.2,91.06,490.21,91,490.25Zm-2.22-1.05,0,0C88.84,489.21,88.83,489.2,88.79,489.2Zm1.35,1.35c-.28-.32-.6,0-.84.06C89.67,490.45,89.85,490.62,90.14,490.55Zm-1.24,2.6.26.08,0-.27C89.06,492.79,89,493.19,88.9,493.15Zm-1.5-5.4.25-.32-.17.07Zm.72,5.39V493c.07-.16.28-.07.44-.08s.29-.11.14-.41a.33.33,0,0,1-.33.23c-.19,0-.37-.06-.5,0ZM88,491.22l0,0c.2,0,.18.05,0-.1A.06.06,0,0,1,88,491.22Zm2.24-4.42.19-.12c0-.07,0-.08,0-.15C90.15,486.42,90.09,486.64,90.19,486.8Zm-2.34,1.26c.3-.11.47-.16.59-.12v-.1l0,.06-.29-.29A1.3,1.3,0,0,0,87.85,488.06Zm.55.34a1.09,1.09,0,0,0-.26,0C88.05,488.47,88.27,488.43,88.4,488.4Zm.25.82,0,0C88.61,489.21,88.56,489.22,88.65,489.22Zm.14,0a.5.5,0,0,0,.1-.19,2.33,2.33,0,0,0-.22.19Zm.71.84-.1-.23-.29.26A.66.66,0,0,1,89.5,490Zm-.14-.32,0,.09.13-.14ZM88.43,487a.68.68,0,0,1-.26.56c.63-.37,1.8-1,1.84-1.46-.49,0-.52-.44-.28-.76-.15,0-.16.23-.25.31l-.13-.44c-.52.53-.16,1.1-.63,1.36.26,0,.51-.36.57.09C89.14,487.09,88.66,486.85,88.43,487Zm-.33.6h0l.06-.05Z" fill="#202020"/>
            <path d="M99,590.12c-7.26.43,4.79.71-4.25.39-1.8-.06-2.38-18-4.19-18.09-1.41-.08-4,17.51-5.44,17.51-12,0-34.44.72-29.49-20.11.74-3.08,2-9.49,3.5-18.19,17.13,9.09,25.45,9.59,44.35,4.84C102.59,576.22,101.17,590,99,590.12Z" fill="#202020"/>
            <path d="M68,554.46c1.68.26,4.62-.29,8-1.05h0v.28s0,.09,0,.13v0s0,.1,0,.16h0c0,.2,0,.43-.1.7,7.35-4.36,14.54-2.35,17.26,2.62-1.11,2.81-3.82,8.55-7.45,8.42-4.82-.17-3.91-7.44-3.91-7.44s-2,5-5.34,4.92c-1.69,0-2.19-1.93-2.28-3.8A5,5,0,0,1,72,561.28a4.47,4.47,0,0,1-1.51.37C65.28,562,68,554.46,68,554.46Z" fill="#38322f"/>
          </g>
          <path d="M63.37,272.28c-16.61,22.21-52.95,62.48-8.83,66.7,2.75,24.09-21.75,48.1,38.35,36.92,12.56,11.4,37.13,25.55,54.22-26.19C161.29,358.38,32.85,258.56,63.37,272.28Z" fill="#ebebeb"/>
        </g>
        <g>
          <g>
            <path d="M244.47,569.62v0c5.9-34,15.71-102.92,13.4-144.72-.28-4.9-9-64.29-4-120,30.88,57.66,35.81,161.35,36,187.13.2,27.43,0,59.11-1,82.44C269.92,579.21,261.6,578.7,244.47,569.62Z" fill="#38322f"/>
            <path d="M262.41,520.19c0,.14-.05.29-.07.44l.12-.08C262.44,520.43,262.43,520.3,262.41,520.19Zm2.8-16.42h0C265.21,503.7,265.21,503.68,265.21,503.77Zm-1.48,2.3-.68-.66-.08.08Zm7.58-1.19.12.05a.07.07,0,0,1,0-.06A.22.22,0,0,1,271.31,504.88Zm-14,9v0l0,0Zm14.12-3.78c0,.1.17-.34.07-.44C271.49,509.71,271.33,510.1,271.43,510.07Zm-9.11-5.84a.5.5,0,0,1,0-.34C262.21,504.05,262.24,504.16,262.32,504.23Zm.13,6.89.37.18c.39.15-.05-.2-.29-.52A.29.29,0,0,1,262.45,511.12Zm-3.94,2.94-1.2-.21c.09.21.16.36-.38.67l.79-.25Zm12.69-9.16c-.07.15.08-.44,0-.36C270.86,504.19,271.18,505.42,271.2,504.9Zm2,2.08a2.43,2.43,0,0,0-.4.43c.15-.12.37-.05.63-.21C273.2,507.16,273.14,507.11,273.2,507Zm-3.57-5.61-.22-.19,0,.59C269.51,501.6,269.51,501.49,269.63,501.37Zm-.22-2.54.27-.24-.11-.11Zm3.28,4a1.91,1.91,0,0,0,.22.17A.22.22,0,0,0,272.69,502.84Zm-.49,2.55c-.05,0,.06-.16.12-.26-.08.05-.16.13-.22.07ZM257.27,515a8.71,8.71,0,0,1,1.17-.24c-.88.13-.9,1.84-.54,2.58l0-.11c.23-.24.65.31.47.68.14-.11.07-.15,0-.26.76.19-1,1.24,0,1.38-.36-.41,0-.67.26-.8-.13.52.69,1.11-.26,1.53.32.12.36.41.75.07a2.74,2.74,0,0,0,.11.57l.16.59a.29.29,0,0,1,.44-.24c-.52-.33-.19-1.29-.83-1.14.5-.39.85-.44,1.16-1a5.32,5.32,0,0,1,.09,1.45,7,7,0,0,0,0,1.58l.56.07.54,0-.11.27.5-.54c0,.2,0,.37.07.31s.06-.14.08-.25a.43.43,0,0,1,.11.24,2.9,2.9,0,0,0,.32-1.18,4,4,0,0,1-.39.23c0-.39.16-.75.45-.86,0,.06,0,.12,0,.19.06-.28.13-.5.23-.55a3.08,3.08,0,0,0,.33.55l-.51.36c.12.57.32,1.23-.23,1.54l.64-.2a2.87,2.87,0,0,0,.73,1.4c.13-.22,0-.46.2-.6.28.88,1.54-.59,1.45.1.37.26,0,.63.26.86,0-.08,0-.23.09-.24l.24.53c.17-.16-.24-.37.18-.55.58.42,1,.77,1.55.49.81.1-.45,1,.27.88.14-.41.26-.89.68-1,.22.27.18.59.59.74l0-.61c.36,0,.66,0,.63-.42a.48.48,0,0,0,.65,0c.58.22-.28,1.3-.42,1.57.53-.56,1-.35,1.17-1.15,0,0-.51-.07-.51-.07.88-1,1.12.59,1.33-.79-.33.15-.78-.06-.64-.44l.52.17c0-.18-.29,0-.11-.28a7,7,0,0,1,.68.47l0,0s.88-.23.88-.23c-.15.1-.26-.1-.11-.19l.66.06c-.22-.07-.11-.32.09-.51.62-.45,1.1.95,1.39.11-.07.06-.12,0-.19.06l.15-.4c.31.55.75.34,1.18.13s.81-.5,1.2,0c.1-.7-.16-.26-1-.42l.2-.58c-.19.07-.27.24-.5.26.21-.81,1-.58,1.53-.53.07-.3-.71-.63-.09-.9.88-.44.46.83,1,.55l-.11-.77c.91-.11.94-.88,1.3-1.37a.49.49,0,0,1,.31-.06c.22-.65,1.37-.7,1.52-1.24-.18,0-.17-.45-.27-.58l.82-.55c-.36.25-.68,0-1-.09.18-.2.42-.21.57-.34-.18,0-.36.06-.43-.15l1-.48a.41.41,0,0,1,0,.26c.14-.19.57-.55.44-1-.15,0-.33,0-.47,0,.26.42-.14.41-.45.41.33-.52,0-.18-.14-.55a.66.66,0,0,1,1-.11,1.08,1.08,0,0,1,.62-1l-.52-.07.32-.38-.73.15c0-.91.9.11,1-.88l-.44-.12c.29-.3,1.1-.25.63-.66.37-.3.47.76.79-.07a1.5,1.5,0,0,1-.31-.8c.27-.24.49.29.37.46.56-1.28-1.33-1-.55-2,.27.4.95-.24.78.65.35-.41-.52-.89,0-1.29l-.64.25c0-.16.26-.32.35-.4H284c.91-.5-.27-1,.82-1.31-.85.23.08-.41-.22-.63-.63.46-.1,1.29-.87,1.33-.21-.21.18-.38,0-.58a1.55,1.55,0,0,1-.51.38c-.37-.65.55-1,.79-1.45l-.24.72c.77-.07.16-.32.78-.55-.37-.35.19-.68-.05-1,0,.08-.07.09-.07.17,0-.83-1.23-.88-1.28-1.16s.21-.92.56-.79c.18-.29-.1,1.09.84.47-1.24-.24.37-1.08-.68-1.9-.29.55-.69,0-.9.43,0-.47.14-.55.4-.87H283c.6-.91.66-.4.68-1.53-.13.44-.64-.12-.77.24a1.12,1.12,0,0,1-.06-.81l0,.07c-.42-1-.75-.45-1.05-1.37l.23-.08c-.34-1.42-2-2-3-2.73l.5,0c-.16,0-.66-.68-1.18-.48.06,0,.16.19.24.18-.12.23-.41.52-.7.49l0-.39-.22.23c-.43-.13.32-.47-.13-.6-.59,1-1.94-.26-2.51.68-.14-.78.83,0,.66-.75a1,1,0,0,1-.54.27l.18-.44c-1.39.12-1.9.56-3,.47l0,.1c-.4.21-.61.15-.79-.23-.08.22.2.3,0,.5-.72-1.12-1.37,1-1.81.26.09.91-.7,1.91-.29,2.57l-.27-.07c.13.59.82-.11,1,.5l.39-.38.4-.35c0,.23.12.55,0,.65.2,0,.36,0,.11.36a3.23,3.23,0,0,1,2.86-.8,8.68,8.68,0,0,0,2.69.28c.08.09-.06.27-.15.4.51-.47.15.38.25.51s.79-.66.79-.64c0,.31-.22.49-.28.65.28.27.74.24,1.08.38s.72.26.71.69c.37-.08.49-.54.76-.4-.47.17-.41.39-.32.58s.14.43-.18.52c.94-.37.68.67,1.77-.09.22.31-.39.54-.54.51a.88.88,0,0,1,0,1.12c.4.11.06,1.85,1,2.12-.64-.18-.33.07-.61.36l-.56-.16.07.55c-.06.11,0,.15,0,.14s.32-.05.47.18c.05.39-.3.43-.6.65l-.08-.05-.07.26c0,.2.61-.71.85-.07-.16,0-.93.4-.54.56,0-.32.38-.28.54-.16v.48l-.69-.18a20.09,20.09,0,0,0,0,2.07,6.12,6.12,0,0,1-.37,2.05c.59.14-.33,1,.56,1.13l-.06-.08c.21-.33.64.33.39.58-.13-.38-1.09.2-.87-.53l-.65.37c-.86-.18-.95.14-1,.59s0,1-.51,1.25a.47.47,0,0,1,.23,0c-.89.29-.66,1.62-1,1.58l.3.36c-1,0-1,0-1.43.74.06,0,.22.09.19.24-.38-.13-.72-.26-1.06.14l.11.11-.71.4c.39.58,0,.66-.46.65s-.85,0-.64.81c-.32-.27-.91-.19-1.21-.28a.48.48,0,0,1,0,.21c-.51-.59-.75.54-1.13.55s-.2-.39-.16-.66c-.31.77-1.19-.43-1.27-.15-.28.11-.08.58-.14.91-.46-.06,0-1.31-.54-.67.07.06.19.11.15.2-.2.12-.7,1.84-1,1.51l.19-.27c-.4-.34-1.26,1.2-1.19.18l.12-.46c-.89.53-.28-.2-1.18.24v.07c-.31-.17-.67.36-.61-.41l.14-.07a2.69,2.69,0,0,0-.87-.17c0-.09-.17-.27-.29-.14.23-.6-.79-.61-1-.64.27.2,0,.39-.21.59,0-.53,0-.66-.41-.46.39-.7.81-1.45.53-1.66,0,.13,0,.23-.11.35s-.11-.08-.09-.14c-.14.11-.11.27-.32.48.24-.74-.28-.37-.39-.8-.09.24-.28.28-.53.43.65-.57-.95,0,.06-.56a1.36,1.36,0,0,1-.61-.39,6,6,0,0,1-.3-.69c-.15-.46-.18-.92-.6-1s.21-.42.22-.58l-.39.05c.73-.54.24-.42,1-1a.77.77,0,0,1-1-.14l.87-.35-.58-.13c.26-.15.18-.35.15-.55,0,.09-.07,0-.18,0,.84,0,.95-.68,1.35-.69-.73-.37.34-.4-.31-.73a1.21,1.21,0,0,0,.35-.13c.29.19.65.33.55.13l0,0-.4-.21a1.11,1.11,0,0,0,.32-.36.69.69,0,0,0,.16.23,2.15,2.15,0,0,1-.14-.26.11.11,0,0,0,0,0l0,0c-.07-.13-.05-.25.16-.32-.35-.84,1.44-.7,1-1.68,0,.13,0,.26-.17.21.31-.43.15-1.23.65-1.3l.31.27a3,3,0,0,0,.88-.53l.35.31c.18-.47,1.26-.37.89-1.3.28.23.38-.38.63-.38l-.11-.36a.45.45,0,0,1,.6-.16c.24-1,1.08-.35,1.59-.51v-.11l.58.15c-.15-.32.11.21.25.13.15.19.39.09.61-.17l.33,0c-.34-.24.1-.55.2-1a3.34,3.34,0,0,1,.15.38c.13-.19-.07-.37.11-.42.09.26.52.33.5.78a1.44,1.44,0,0,1-.22.27s0,0,0,0l0,0h0a.48.48,0,0,1,0,.17c.25-.06.11.1,0,.29.51-.63.38-.07.95-.75-.68.72.54.24-.08.92.53-.49.09,0,.55-.38-.28,0-.22-.63-.32-1l.44-.26c.21-.79-.69,0-.72-.3,0,.2.32.15.41,0l-.32.53c-.39,0-.56-.37-.77-.75.34-.14-.25-.41.05-.79l.23.12c.17-.19,0-.41-.13-.61a11.83,11.83,0,0,1-1.54.18c-.51,0-1,.07-1.09.36.15-.2.47-.11.6.08a4.22,4.22,0,0,0-.36.27c.28,0,.53-.53,1-.35-.09.38.15.89-.18,1.42-.7.59-.57-1-1.56-.64-.1-.1.26.56-.26.47A2.81,2.81,0,0,1,267,502c.39.06,1,.41,1.06-.18-.34-.19-.92-.17-1.06-.49-.17.78.67,0,.35.67-.22.07-.37-.11-.51-.17.23.2-.07.52-.08.69-.7.24-.89.8-1.51,1.2a1,1,0,0,0,.16.44,2,2,0,0,1-1.51-.8c-.39.29-.23.53-.64.66.09-.88,0,.15-.5-.25-.35.24.11.32.07.56a.92.92,0,0,1-.49-.14c.17.5,1.22.54,1.42,1.14a11.77,11.77,0,0,1,.07,1.41,8.44,8.44,0,0,1-2.53-2.35c-.3-.21,0,.58,0,.74.15.77-.91.35-1,.87l.47-.09c.06.13-.44.57-.69.54.17.12,1.09.3,1.2.59-.31.65-1.71.72-2.24.43,0,0,1.22-.74,1.22-.74-.42-.31-.93.47-1.46.14l-.39,1.12c.08-.13.43-.46.61-.18-.26.42,0,.26,0,.65a9.75,9.75,0,0,1,3.69-.06l-.56.22.21.24c-.64.31-2.81,0-3.42,0-.06.44,1.07.7,1.3.69-.23.71-1.8.19-2,1l-.12-.37c-.2.16-.17.93-.36.8.25.24.91.52,1.15.39l-.63.24-.63.27c.14-.09,1,.13,1.2.11-.05.27-1.18.33-1.28.12.55.67.22.49.92,1-.09.16-1-.08-1-.22a.71.71,0,0,0-.17.82c.5-.63,2.11-.09,2.83-.19a11.84,11.84,0,0,0-1.45.58C258,514.54,257.27,515,257.27,515Zm13.07-10.51v0C270.22,504.57,270.15,504.64,270.34,504.46Zm10.44.55-.12-.07C280.79,504.87,280.92,504.8,280.78,505ZM270.36,523.5c.21-.19.28-.46.5,0C270.8,523.82,270.5,523.57,270.36,523.5Zm-9.14-2.6a.4.4,0,0,1,.39.11C261.38,521.09,261.2,521.08,261.22,520.9Zm12-18.27.25.08.15,0Zm-.09,1.44c.09.22.11.48.4,0l0,0C273.52,503.89,273.4,503.74,273.18,504.07Zm-.49-1.23a.18.18,0,0,1,0-.18l-.39.07C272.22,502.87,272.48,502.82,272.69,502.84Zm-3.34,21.93,0,.15.29-.4C269.5,524.57,269.41,524.6,269.35,524.77Zm3-1.78.07.17C272.5,523.14,272.46,523.07,272.37,523Zm2.07,0-.14-.53.06.57ZM262,521.81a.6.6,0,0,1-.17.22A.2.2,0,0,0,262,521.81Zm16.09-.39c.14-.13.38-.18.51-.32C278.23,520.53,278.51,521.25,278.11,521.42Zm-6.47-16.49-.09,0C271.61,505,271.63,505,271.64,504.93Zm-3.43-3.85c-.58.08.08.25.14.41C268.74,501.27,268.28,501.23,268.21,501.08Zm-10.45,8.45c.54.35.48.14.83-.1-.23.06,0-.45-.29-.41C258.37,509.6,257.76,508.92,257.76,509.53Zm10.51-6.89c-.16,0-.25.09-.19.24l.41.05C268.53,502.77,268.38,502.73,268.27,502.64Zm.56-4.59.23.53V498C269,498.1,268.9,498.06,268.83,498.05Zm3.27,20.84a.29.29,0,0,0-.19-.18C271.92,518.81,272,518.86,272.1,518.89Zm-4.23-13.67c.09-.05.14-.17.27-.36C268,504.52,268,504.94,267.87,505.22Zm-.32,0a.36.36,0,0,0,0,.11c.22.22.29.08.36-.14A.4.4,0,0,1,267.55,505.25Zm12.8,13-.08,0v0ZM271,497.92a1,1,0,0,1-.26,0C270.84,498,270.91,498,271,497.92Zm7.25-3.66s.05,0,.08,0S278.22,494.21,278.21,494.26Zm2.62,24-.48-.08C280.52,518.32,280.57,518.57,280.83,518.29Zm2.86-11.93,0,0C283.85,506.27,283.88,506.2,283.69,506.36Zm-10.25.36a2.21,2.21,0,0,0-.24.26A1.35,1.35,0,0,0,273.44,506.72Zm.3-2.49c-.05,0-.08-.07-.12-.12C273.67,504.22,273.62,504.42,273.74,504.23Zm.06-1.24-.1.4.34-.4Zm.74,3.17c.1-.24.43-.32.33-.63-.46.11-.52.45-.87.71,0-.2-.08-.3-.19-.32a1.43,1.43,0,0,1,0,.46h0l.06,0s0-.16.13-.09l-.13.09h0s0,0-.06,0h0a1.12,1.12,0,0,1,.26.08.43.43,0,0,1,0-.25C274.38,506.39,274.46,505.7,274.54,506.16Zm-.53,2.91.13,0C273.94,509,274,509,274,509.07Zm0-2.6a.35.35,0,0,1-.08.36c0,.12.22,0,.34-.08S274.15,506.55,274,506.47Zm-.71-1a6.31,6.31,0,0,1-.35.57l.32-.35A1,1,0,0,0,273.32,505.48Zm.45,3.66c.14,0,.33,0,.15,0,.39.1.19,0,.09,0Zm-.45.06c-.15-.16,0,0,0,0Zm-.49,1.82.24.22-.29-.38Zm1.46-4.27a.5.5,0,0,1,0,.24c.12-.09.2-.18.11-.24S274.35,506.72,274.29,506.75Zm-.05,1v-.08h-.41C273.92,507.73,274.16,507.72,274.24,507.73Zm-.86,1.28.24,0a.61.61,0,0,0-.5-.18C273.23,508.82,273.24,508.92,273.38,509Zm.86-1.28h0C274.3,507.73,274.29,507.73,274.24,507.73Zm-1,0a1.13,1.13,0,0,0,.24-.11l.16-.1Zm.84.53c.15,0,.32,0,.27-.19A1.31,1.31,0,0,1,274.06,508.24Zm-.23,1c-.22.1.13.43.39.24C273.93,509.51,273.92,509.37,273.83,509.26Zm.39-1.77s0,.08,0,.16h0C274.23,507.56,274.23,507.51,274.22,507.49Zm-.72.69a.53.53,0,0,1,.37.16l.19-.1A4,4,0,0,0,273.5,508.18Zm.76,1.18a5.13,5.13,0,0,0,.6-.14l0-.06S274.24,509.37,274.26,509.36Zm1.56-2.94-.4-.11-.11.51c.16-.08.43-.11.29-.34Zm.11,1.8-.06,0c.15.26.38.07.5,0-.13,0-.23.12-.33,0s.13-.18.19-.23a3.05,3.05,0,0,0-.9-.2A1.22,1.22,0,0,1,275.93,508.22Zm.44,0a.29.29,0,0,1,.1,0C276.47,508.18,276.43,508.2,276.37,508.23Zm-2.21-1.05,0,0C274.21,507.19,274.2,507.18,274.16,507.18Zm1.35,1.35c-.29-.32-.6,0-.84.06C275,508.44,275.22,508.61,275.51,508.53Zm-1.24,2.61.25.08,0-.28C274.43,510.77,274.4,511.17,274.27,511.14Zm-1.5-5.41.25-.32-.17.08Zm.72,5.39V511c.07-.17.28-.07.44-.09s.29-.11.14-.4a.33.33,0,0,1-.33.23,2.47,2.47,0,0,0-.5-.05Zm-.17-1.92.05.05c.2,0,.18.06,0-.1C273.34,509.18,273.33,509.2,273.32,509.2Zm2.24-4.42.19-.12c0-.07-.05-.08,0-.15C275.52,504.4,275.46,504.63,275.56,504.78ZM273.21,506a1.18,1.18,0,0,1,.6-.12v-.09l0,.05-.29-.28A1.29,1.29,0,0,0,273.21,506Zm.56.35a.74.74,0,0,0-.26,0C273.42,506.45,273.64,506.41,273.77,506.39Zm.25.81h0C274,507.19,273.93,507.2,274,507.2Zm.14,0a.5.5,0,0,0,.1-.19,2.3,2.3,0,0,0-.22.2Zm.71.84-.1-.23-.29.26A.75.75,0,0,1,274.87,508Zm-.14-.31,0,.08.13-.13Zm-.94-2.73a.65.65,0,0,1-.25.56c.63-.37,1.8-1,1.84-1.46-.49,0-.52-.43-.28-.76-.15,0-.16.23-.25.31l-.13-.44c-.52.54-.16,1.1-.63,1.37.26-.05.51-.36.57.08C274.51,505.07,274,504.84,273.79,505Zm-.32.6v0l.06-.06Z" fill="#202020"/>
            <path d="M284.34,608.1c-7.26.44,4.79.71-4.25.4-1.8-.06-2.38-18-4.19-18.09-1.41-.09-4,17.51-5.44,17.51-12,0-34.44.71-29.49-20.12.74-3.08,2-9.49,3.5-18.18,17.13,9.08,25.45,9.59,44.35,4.84C288,594.2,286.54,608,284.34,608.1Z" fill="#202020"/>
            <path d="M253.39,572.44c1.68.27,4.62-.29,8-1.05h0v.14a0,0,0,0,1,0,0v.09s0,0,0,0a.62.62,0,0,1,0,.13h0s0,.1,0,.16h0c0,.2-.06.44-.1.7,7.35-4.35,14.54-2.35,17.25,2.62-1.1,2.81-3.81,8.55-7.44,8.42-4.82-.17-3.91-7.43-3.91-7.43s-2,5-5.34,4.91c-1.69,0-2.19-1.92-2.28-3.8a5.08,5.08,0,0,1-2.15,1.87,4.71,4.71,0,0,1-1.51.37C250.65,580,253.39,572.44,253.39,572.44Z" fill="#38322f"/>
          </g>
          <path d="M248.74,290.26c-16.61,22.22-53,62.49-8.83,66.71,2.75,24.09-21.75,48.1,38.35,36.91,12.56,11.4,37.13,25.56,54.22-26.19C346.66,376.37,218.22,276.54,248.74,290.26Z" fill="#ebebeb"/>
        </g>
        <g>
          <g>
            <path d="M516.28,122.66c-3.13-10.64,109.84,12.75,158.05,64.19C618.18,222.57,547,227,516.28,122.66Z" fill="#38322f"/>
            <path d="M626.6,192.49a.19.19,0,0,1,.07-.13C626.42,192.38,626.47,192.43,626.6,192.49Zm1.78,2c-.91-.37-.2-.68-.62-1C626.52,194,627.77,194.27,628.38,194.49Zm-10.83,1.8a5.73,5.73,0,0,0-.89-.45A3,3,0,0,0,617.55,196.29Zm9.81-.66-.7-.21c-.08.24-.46.56-.41.75C626.3,195.89,627,195.76,627.36,195.63ZM624.71,194l.07-.11C624.71,193.94,624.68,194,624.71,194Zm2-.87c.95-.28.2-.51-.09-.64,0,.17.4.26,0,.43a.94.94,0,0,1-.77-.22,4.1,4.1,0,0,0-1,1.19,5.34,5.34,0,0,1,1.76-.84Zm-6.73.24.07-.27-.93.42.86.17.87.12C620.72,193.6,621,193.27,620,193.37Zm2.6,1.93.89-.05h0Zm.89-.05-.45.54a1.3,1.3,0,0,0,.86-.55Zm-5.9,1a4.85,4.85,0,0,0,1.83.73c-.45-.24.62-.44.21-.82A3.3,3.3,0,0,1,617.55,196.29Zm4.69,0-.45-.21,1,.64Zm2.26-1.68-.53-.16.12.21Zm1.13.55,1,.3C626.73,195.22,626.56,195.07,625.63,195.12Zm0-.69-1.11.14,1.17.35C625.37,194.78,625.58,194.57,625.61,194.43Zm-1.75.81h.1C623.92,195.17,623.9,195.19,623.86,195.24Zm21.2-3.2-1-.12,1.1.31Zm7.72.25c-.08-.08,0-.61-.42-.49C652.36,191.67,652,192.32,652.78,192.29Zm-21.68,1.52-.33,0,2,.52Zm7.54-2-.69.35c0,.28,1-.24,1.31-.14Zm15-6.74-1-.61.17.4Zm.64,1.42s-.8.24-.79.25c.26.06.53.6.66.86l.08-.54C654.23,186.78,654.25,186.5,654.25,186.5ZM638.34,193c1-.38,2.92-.17,4.4-.26l-.59-.63-.19.23C640.78,192.84,638.93,192.07,638.34,193Zm-6,3c-.31-.13.53-.23.73-.45l-1-.24C631.61,195.72,631.4,195.94,632.38,196Zm-.63-1.16-.48-.1C631.54,195,631.67,195,631.75,194.87Zm0,0,1,.19c-.44-.15-.65-.39-.56-.13C631.9,194.43,631.89,194.71,631.75,194.87Zm1.63,0c1.81,0,2-.65.26-.63C634.58,194.48,633.9,194.65,633.38,194.88Zm2.1.41c-.46.32.72,0,0,0Zm-.7.07a5.27,5.27,0,0,1,.7-.07,1.28,1.28,0,0,1,.15-.1C634,195.13,635,195,634.78,195.36Zm-89.56-59.42c.06-.11,0-.26-.27-.46C544.84,135.58,545,135.74,545.22,135.94Zm70.68,59a10.3,10.3,0,0,0-2-.09l2.09.39h0s0,0,0-.08c-.19-.07-.7-.12-.07-.2a.68.68,0,0,1,.07.2h0c.11,0,.08,0,0,.07h0l-.05,0a9.33,9.33,0,0,1,1.12-.19,8.88,8.88,0,0,1-1.13-.19c1.56-.23-1.11-.79,1-.56-.76-.27-.32-.65-1.62-.75C614.57,194.12,615.61,194.4,615.9,194.94ZM556.33,173.4l-.5.29c-.4.39.67.36,1.55.42A2.11,2.11,0,0,1,556.33,173.4Zm92.23,8.68a5.36,5.36,0,0,1,.71.55A2.12,2.12,0,0,0,648.56,182.08Zm-36.07,12.74-1.1-.08c0,.16.15.36.86.68a5.54,5.54,0,0,1,1.64-.57l-.44-.08.14.08S613,194.85,612.49,194.82Zm8.37.49a4,4,0,0,0-.77-.17,2.12,2.12,0,0,0,.6.31A.75.75,0,0,1,620.86,195.31Zm0,0,.11,0C621,195.24,620.93,195.26,620.86,195.31ZM619,195c.41,0,.78.08,1.13.13a1.3,1.3,0,0,0-1-.23C618.93,194.88,618.93,194.93,619,195Zm-11.75-2.26.13,0c-.7-.17-1.32-.41-1.5.07C606.56,193.16,607.3,193.47,607.21,192.75Zm-4.75-1.68c-.16-.07-.29-.16-.25-.26l-1.18,0C601,191,601.76,191,602.46,191.07Zm-.21.47a.34.34,0,0,0,.14.29A.4.4,0,0,1,602.25,191.54Zm1.11-.21a2.25,2.25,0,0,0-.9-.26A4.53,4.53,0,0,0,603.36,191.33ZM589,187.85c.25-.14-.16-.36-.4-.59-.42-.21-.79-.19-.74.05Zm31.74,7.63-.07,0C620.62,195.54,620.6,195.59,620.76,195.48Zm-96.47-66.32a.49.49,0,0,0,.11.33c.2.33.33.57.42.74a1.77,1.77,0,0,1,.22.58c0,.22.06.52,1.29,2.37l.14.07c.44,1.21,1.86,2.43.77,2.32l-.41-.55a32.45,32.45,0,0,0,1.87,3.55,2.37,2.37,0,0,0,.68,1.28c-1,0,2.14,4.31,2.62,5-.78-1.46,0-.93.43-.76a1.76,1.76,0,0,0,1.05,2,2.15,2.15,0,0,0-.34,3.2c-.06-.34-.27-.78,0-.75s.36.55.4.73c.27,0,0-.59.42-.62,0,1.68,1.26,1.93,2.17,3.67-.14-.68.32-.39.71-.44-.75.86,2.31,1.45.79,1.82,2.94,2.38,6.17,7.23,7.86,7.57.55,0,.8,1.22,1.23,1.71l.28-.43c.68,1.93.77,1.22,1.7,3.39-.25-1.06.2-1,1.14-.74,0,0,.09.46.18.9s.21.88.21.88l.7-.39a3.06,3.06,0,0,0,1.4,1.33c-.23-.22-.06-.16,0-.25-.45,1,1.59,2.68,1.61,3.31,1.15-.41,1.2,1.32,2.16.84a3.73,3.73,0,0,0,.4.8c-.52.16-.91.5-.32.69l.1.1.56-.32a8.25,8.25,0,0,0,1.16,1.15,2.78,2.78,0,0,0-.67-.12c.27.08.53.13.77.19l.17.12a.41.41,0,0,0-.09-.1,1.65,1.65,0,0,1,1,.75c2.18.52,3.15,3.75,5.77,4-.35-.08-.8-.31-.79-.56,1.57,1.16,3.71,1.32,4.51,2.36l-.35.44a13,13,0,0,0,3,2.15l-.24.59a23.29,23.29,0,0,1,3,1.69c1.07.65,2.2,1,2.94.63.16.63,2.18.81,3,1.35l.42-.35a8.43,8.43,0,0,1,2.5,1.13,7.41,7.41,0,0,1,3.55.9,25.39,25.39,0,0,0,3.16,1.3l.06-.13,2,1c-.43-.6.32.44,1,.48a4.71,4.71,0,0,0,2.7.43l1.39.31c-1.45-.68.3-.65.53-1.17l.76.64c.43-.18-.45-.56.23-.52.5.47,2.28.73,2.7,1.39a1.31,1.31,0,0,1-.66.28c-.07-.05-.06,0,0,0l-.07,0h.08a1,1,0,0,1,.19.26c1.15.07.69.22.59.46,1.47-.63,2.06.07,3.24-.76-.78.45-.05.57.74.71s1.67.18,1.14.68c1.13-.76.67,0,1.42-.64a3.83,3.83,0,0,1-1.94-.46c-.59-.31-1.12-.71-1.61-1l1.14-.34c-.47-1.1-2.4,0-3-.48.37.3,1.36.24,1.44,0l-.44.69a6.4,6.4,0,0,1-3.58-1.29c1.06-.07-1.08-.68-.23-1.06l.75.23c.12-.06.15-.13.12-.2,2,.4,4.12.75,6.26,1l-.65,0,.31.55.37-.58,2.13.26c.14.68,1.82,1.14,1.23,1.61.73-.18.54-.63,1.91-.23.84.54-1.21.68-1.63.91,1,.4,1,.6,1,.81,1-.77,1.87-2.22,1-2.74l1.46.11c-.29.11.09.28.62.32l.08-.28h0a134,134,0,0,0,37.77-3.25,8.8,8.8,0,0,0-1.69-2l.22,0c.73-.05,1.4-.11,1.28-.88l.28.38.27.42c.19-.42-.34-1-.88-1.5s-1.12-1-1.07-1.49c0,0-.68-.29-1.35-.51s-1.35-.46-1.35-.46c.24-.19.11-.82.53-.65-.55-.4-1-.77,0-.63a40.71,40.71,0,0,1-8.81-4.23,39.25,39.25,0,0,0-8.55-4.21c-.34-.26,0-.4.23-.49-1.37.17-.81-.85-1.32-1.22l-2,.25c-.47-.59.17-.67.22-.89-2.78-1.59-6-1.93-8.11-3.6-.91,0-.2.89-1.24.56,1.82-.42-2.63-1.8-1.44-2.13-1.47.65-3.66-1.38-3.93.34-1.23-.43-.68-1.08-.28-1.07a8.61,8.61,0,0,1-3.41-2c-.91,0-6.11-3.14-7.86-2.51,1.18-.38.11-.41-.55-1.09l1-.35-1.85-.7c-.35-.23-.46-.24-.49-.18-.32-.1-.09.41-.95.24-1.26-.48-1.16-.87-1.69-1.5l.24,0-.82-.42c-.62-.24,1.9,1.59-.27,1.07.05-.2-.75-1.57-1.5-1.33,1.05.41.71.81.25.85l-1.47-.56.85-.64c-4.17-1.7-8.75-2.9-13.17-4.77-.26.76-3.16-1.25-3.23,0l.22,0c1,.55-.68.72-1.52.24,1.08,0-1.2-1.76,1.13-1l-1.53-1.22c-.09-2.48-4.74-1.71-7.11-3.44a.39.39,0,0,1,.15.36c-2.07-1.62-5.52-1.55-5.93-2.1l-.45.49c-1.65-1.68-1.86-1.85-4.42-2.44,0,.1.2.38-.23.35a3.68,3.68,0,0,0-2.5-1.84v.21l-2.55-1.11c-.71,1.78-4-2.8-5.55-1.18-.29-.71-2.11-1.61-2.86-2.18,0,.07-.12.13-.29.16-.61-1.34-3-.8-4-1.33-.63-.51-.19-.69.25-.87-1.32.36-5.94-3.24-6.79-3.19-1.75-.57-.32.67-.57,1a2.64,2.64,0,0,1-1.59-1.5c-.19-.41-.5-.73-1.94-.87.48.27,1.26.64,1.06.68-.59-.13-.95.36-1.15.84s-.26.92-1,.39a2.51,2.51,0,0,1,.2-.29c-1-.61-1.67-.59-2-.45s-.46.39-1.08,0a5.69,5.69,0,0,1-.93-.68l-1.07-1.07A2.22,2.22,0,0,1,524.29,129.16Zm86.24,62.56,1.68.16A2.22,2.22,0,0,1,610.53,191.72Zm-10.66-33.51.34,0C600.32,158.43,600.44,158.65,599.87,158.21Zm-5.38,33.6,0,0C594,191.83,593.66,191.85,594.49,191.81Zm-8.43-5.56q3,1.09,6.25,2a2.61,2.61,0,0,0-.5,0,3,3,0,0,1,1.75.73s-.31,0-.61,0h-.6c.89.32,1.83-.18,3.12.39-.37.41.44,1.29-.79,1.69-2.89.11-1.79-1.78-5-2.53-.23-.23.4.95-1.18.2a6.14,6.14,0,0,1-2.17-1.9A3.66,3.66,0,0,1,586.06,186.25Zm-7.82-3.19,1.18.55c-.16.08-.36.21-.38.38A3.21,3.21,0,0,1,578.24,183.06Zm-8.06-2.23a3.27,3.27,0,0,1,.56-1.61l1.43.81-.27.92.47-.82,1.47.79a.6.6,0,0,1-.26.15A13.31,13.31,0,0,1,570.18,180.83Zm-8.42-7.35q1,.74,2.07,1.44a24.49,24.49,0,0,1,.6,2.59l-1-1.25-.54.13A5.41,5.41,0,0,1,561.76,173.48Zm-12-8.48s0-.72-.1-1.62l.83.8A2.36,2.36,0,0,0,549.81,165Zm-16.94-21.46a4.28,4.28,0,0,0,.86.36l.24.37c0,.17.06.35.08.51,0-.1,0-.21.05-.31l.53.78c-.13.09-.3.09-.54-.06a3.32,3.32,0,0,0,0-.41c-.09.46-.2.79-.43.67Zm66.83,49.9a3.56,3.56,0,0,1-.78-.08l.66.15S599.6,193.46,599.7,193.44Zm-1.29-.14c-.24.16.08-.57-.29-.52C596.35,192,598.63,194,598.41,193.3Zm5.07,1,1,.34c-.32-.07-.08-.24,0-.37A1.79,1.79,0,0,1,603.48,194.3Zm-19.11-5.18a5.78,5.78,0,0,1-1.39-.65h-.37A2,2,0,0,0,584.37,189.12Zm23.14,3.68c.39.12.7.37.67.09A3,3,0,0,1,607.51,192.8Zm1.25,1.86-.55.13.55.36Zm-24.39-5.54a5.72,5.72,0,0,0,1.63.26C586,188.89,585.21,189.11,584.37,189.12Zm31.56,6.15a6.25,6.25,0,0,0-.86.25C615.14,195.66,615.66,195.42,615.93,195.27Zm-4.54-.53v-.1l-.1.09Zm-11.69-1.3a4.5,4.5,0,0,0,.66,0A4,4,0,0,0,599.7,193.44Zm.93.21-.43,0C600.61,193.79,600.67,193.74,600.63,193.65ZM619,195a11.21,11.21,0,0,0-1.91.07,3.89,3.89,0,0,1,1.56.36C619.28,195.48,619,195.18,619,195ZM611,195l-.74-.31.89.9Zm-11.45-1.46c.06.07.47.11,0,0Z" fill="#202020"/>
          </g>
          <path d="M527.65,120.43c9,38.41,82.81,137.89,90.66,174.41s22.33,151.62-51.82,164.23S410.4,377.38,407.09,311.44s-8.38-112.5-8.38-112.5S505.93,27.66,527.65,120.43Z" fill="#38322f"/>
          <path d="M432.3,169.53s-12.73-27.94-87.23,17.08-91.23,122.48-76.94,129.2S362.06,306.94,432.3,169.53Z" fill="#38322f"/>
          <path d="M405.7,166.39s42.87,31.26,57.68-13.93c18.69,6.92,59,14.88,54.08-14.11,23.11-1.88,45.76-8.08,27.86-40.7,15.27-16.2,43.34-13.77,7.31-48.13C554.54,34.17,552.7,9,509,28.1c-.72-14.84-7.87-55.74-51.88,1.33C442.53,27,419,16.64,416.62,69.09c-16.56-3.81-44.48,3.42-44.92,15.84s4.45,32.61,4.45,32.61-56.8,13.77-11.08,63C373.17,189.22,405.7,166.39,405.7,166.39Z" fill="#ebebeb"/>
          <path d="M586.07,452l-.86.1.57.05Zm-9.83-64c.34-.37,0,.72.33.43.19-.84.06-.67-.1-1C576.52,387.73,576.2,387.72,576.24,388Zm10,64.32-.1,0,.07,0ZM568.73,385l0,.33.26-.76A2,2,0,0,1,568.73,385Zm.54.94c.31.12.09-.35.14-.57C569.11,385.52,569.31,385.75,569.27,386Zm16.27,65.55.49.08-.15-.18Zm3.45-1a.28.28,0,0,0,.18-.24A.52.52,0,0,0,589,450.5Zm-1.14.94.09-.05c.12-.14.19-.25-.21-.36C587.45,451.2,587.16,451.36,587.85,451.44Zm1.32-1.18a.25.25,0,0,1,.23,0l-.07-.35C589.15,449.83,589.21,450.06,589.17,450.26Zm-3.14,2v0h.09Zm-.65.16.26.22.36-.19,0-.15A.94.94,0,0,0,585.38,452.44Zm-18.11-69.73a.13.13,0,0,0,.13.15A.22.22,0,0,0,567.27,382.71Zm20.41,62.23a.76.76,0,0,0,.23.48C588.37,445.44,587.94,445.2,587.68,444.94Zm.22-.38-.1-.12c-.42.12-.31.32-.12.5A.52.52,0,0,1,587.9,444.56Zm3.56-27.12a.49.49,0,0,0,.34-.15A.53.53,0,0,0,591.46,417.44Zm0,26.15h0C591.51,443.64,591.53,443.64,591.43,443.59Zm2.5-1.72a.57.57,0,0,1,.27.21C594.2,441.93,594.08,441.88,593.93,441.87Zm-6.3-55.11a.66.66,0,0,1,0-.23C587.57,386.67,587.58,386.74,587.63,386.76Zm-1.16,62.64a1,1,0,0,1,0-.12C586.32,449.38,586.37,449.4,586.47,449.4Zm-13.64-62.5a.78.78,0,0,1-.21.3C572.74,387.17,572.8,387.05,572.83,386.9Zm-5.43-4a.29.29,0,0,1,0,.22l.28-.1C567.74,382.8,567.54,382.88,567.4,382.86Zm4.5,1.76h0C571.85,384.7,571.84,384.72,571.9,384.62Zm18.69,61.71c.12-.11,0-.23-.21-.23l-.26.32C590.31,446.51,590.42,446.39,590.59,446.33Zm-11.26-60.42-.17,1.59c.12-.15.21-.24.36.44Zm5.46.08a2,2,0,0,1,0,.34A.44.44,0,0,0,584.79,386Zm-5.63,1.51,0,0v0Zm-13.94-8.34v0C565.17,379.21,565.19,379.2,565.22,379.16Zm-.83-.64c.13-.21.35-.48.43-.66a1.08,1.08,0,0,1-.44.41Zm.57.5-.16,0h0Zm-.57-.11v-.39C564.27,378.72,564.22,378.87,564.39,378.91Zm-.71.3c-.08.48-.32.67-.43,1C563.68,379.92,563.62,379.53,563.68,379.21Zm1.12-.23.32-.47a1.62,1.62,0,0,0-.39.45Zm-.07,0h0C564.69,379,564.7,379,564.73,379Zm-.75-1.77c0,.15-.18.13-.32.31v.35C563.91,377.58,564.05,377.41,564,377.19Zm-.93,1.49-.07.76,0,0Zm.17-1.26c.23-.22-.1-.08,0,0Zm0,.69c-.23-.25-.6.3-.37.55C562.9,378.3,563.07,378.25,563.26,378.11Zm.2.41c.08-.25,0-.23,0-.16Zm-.11-1.06a.24.24,0,0,1-.13,0l-.07.07C563.31,377.79,563.13,377.75,563.35,377.46Zm.1.9,0-.34c0,.21-.12.46,0,.21C563.2,378.74,563.35,378.48,563.45,378.36Zm5.69,1.85c.11-.2-.2.55-.09.45C569.25,381.08,569.32,379.56,569.14,380.21Zm-3.71-1.83.15-.7-.12.46Zm33.29,41.43-.46-.19c0,.13,0,.19.26.22Zm8.49-55.6.17,0-.29-.31Zm-11.51,69.3,0,0s0,0,0,0Zm-3.79,14.14-.77-.12a1.16,1.16,0,0,1,.43.24Zm4.18-10.84c-.82-.18-.66,0-1,.2.27-.08.22.34.54.26C595.29,436.85,596.33,437.26,596.09,436.81Zm12.1-72.55-.67-.29.66.43C608.05,364.28,608.14,364.27,608.19,364.26ZM567,379.93l.18-.83-.2.56Zm-.74-1.12a1.28,1.28,0,0,0,0-.44C566.23,378.54,566.21,378.71,566.21,378.81Zm0-.44a1.52,1.52,0,0,0,0-.74c0,.24-.31.4-.42.77C566.11,378.19,566.23,378.18,566.25,378.37Zm2.63,1.88a.19.19,0,0,1,.16,0,.27.27,0,0,1-.11-.06A.15.15,0,0,1,568.88,380.25Zm-1.43-.54,0-.32-.2.48Zm.85.15-.11-.21s-.07.21-.13.34C568.14,379.91,568.23,379.81,568.3,379.86ZM592,446.76c.1.35.35,0,.57,0C592.71,446.34,592.21,446.76,592,446.76Zm-21.76-63-.18-.23c-.11.19,0,.3,0,.46S570.19,384,570.23,383.76Zm16,66.67c-.08-.09-.19-.16-.12-.29l-.24.25C585.89,450.3,586.07,450.39,586.21,450.43ZM573.5,385.11l.23-1.3-.29,1.28Zm13.07,63.69c-.19-.08.56.09.46,0C587.51,448.33,585.91,448.79,586.57,448.8Zm0,.36a.37.37,0,0,1,0-.21,1.44,1.44,0,0,1-.08.17A.12.12,0,0,1,586.58,449.16Zm-.08,0c-.06,0-.07.12,0,0Zm-21.09-69.56a.27.27,0,0,1-.14-.17c0,.17,0,.32.07.26S565.38,379.64,565.41,379.56Zm.94.26.4.08a1.28,1.28,0,0,0,.1-.63,2.07,2.07,0,0,1-.55.54l.05.09Zm-.74,3.46c.11-.1.13-.34.19-.48l.1.39c.43-.84.12-1.27.49-1.82-.23.2-.37.63-.52.29,0-.49.55-.7.73-.93a1.15,1.15,0,0,1,.12-.75,8.92,8.92,0,0,0-1.37,2.73C565.78,382.28,565.8,382.8,565.61,383.28Zm-.51-1-.13.26c0,.08,0,0,0,.11C565.19,382.54,565.21,382.29,565.1,382.23Zm-.63-1.14-.14.26.37-.37-.17-.39C564.45,380.81,564.25,381.11,564.47,381.09Zm2.66.88c-.29,1,.58-.21.56.15,0-.25-.26-.08-.35.14l.36-.73c.39-.21.37.43.42.86-.28.19,0,.51-.29,1l-.11-.14a1.13,1.13,0,0,0-.12.76c.69-.4,1.4.33,1.77-.21-.16.16-.28-.06-.29-.3l.33-.25c-.16-.08-.54.55-.72.22a8,8,0,0,1,.7-1.77c.75-.6,0,1.37.63,1.35,0,.16.14-.81.37-.48a4.73,4.73,0,0,1-.09,2.77c-.1-.34-.26-1-.56-.29.08.34.35.6.21,1.09.46-.83-.27-.33.21-1,.12.05.09.35.11.51,0-.38.3-.58.4-.78.41.08.76-.26,1.22-.24a2.64,2.64,0,0,0,.22-.61,4.61,4.61,0,0,1-.09,2.19c.26.07.37-.35.54-.07-.55.74.1-.13-.06.73.21.14.18-.4.33-.58a1.8,1.8,0,0,1,0,.62c.29-.63.11-1.73.44-2.46a11.64,11.64,0,0,1,.91-1.32,27.76,27.76,0,0,1-1.06,4.67c-.08.5.34-.51.45-.55.46-.77.34.69.66.4l-.11-.47c.08-.2.4.1.42.39a9.65,9.65,0,0,1,.23-1.8c.45-.13.64,1.46.49,2.3l-.57-.91c-.15.7.39.73.23,1.58l.71-.22c-.08,0-.31-.24-.15-.62.27.05.16-.12.39-.44a25.84,25.84,0,0,1-.4-4.35l.21.49.14-.41a20.85,20.85,0,0,1,.32,4.1c.28-.16.37-1.68.35-2,.47-.06.22,2.19.75,2l-.22.33c.1.14.56-.18.5.1a4.38,4.38,0,0,0,.2-1.61l.34,1.41c-.06-.15.07-1.36.05-1.58.17-.05.21,1.4.09,1.6a6.37,6.37,0,0,0,.61-1.44,3.94,3.94,0,0,1-.15,1.42c.22.32.37.16.48,0-.36-.52,0-2.72,0-3.65l.32,1.8c.18.89.37,1.78.37,1.78,0-.22-.07-1.36-.07-1.5a1,1,0,0,0,1.46.91h-.07c-.1-.36.28-.7.45-.34,0-.21-.07-.14-.14-.15.27-.84.48,1.58.75.59-.28.15-.36-.29-.37-.71.25.37.76-.16.74,1.12.13-.29.28-.16.21-.79l.65.64c-.06-.12-.13-.48,0-.6-.31.23-.71-.88-.82,0a8,8,0,0,0-.17-1.84c.6.26,1.06,1.52,1.56,2.34l.49-.66.06.34,0-.9c.09.18.16.35.16.26a.88.88,0,0,0-.08-.31.35.35,0,0,1,.17.17,6.64,6.64,0,0,0-.38-1.42c0,.17,0,.35-.08.52a2,2,0,0,1-.19-1.18l.1.17a1.74,1.74,0,0,1-.16-.72l.44.33c0,.13-.06.4-.09.7a2.57,2.57,0,0,1,.59,1.79l.23-.59a3.48,3.48,0,0,0,1,1.13c0-.31-.2-.53-.17-.78.22.37.35.2.45-.05l.14.05.13-.15h-.23a3.31,3.31,0,0,1,.13-.41l.16-.06,0,.1c.31.13.27.71.5.89,0-.09-.09-.28,0-.3l.35.54c0-.16-.1-.27-.15-.42l.93.32c-.3.09-.7.37-.83.3,0,.18,0,.34-.44.28,2.46.87,1,3.27,2.45,4.55,0,.14-.33.16-.52.18.82.06-.34.41-.41.61l1.2.1c-.29.28-.65.24-.87.33,0,.9,1.24,1.4.71,2.28.43.11.87-.3,1.06,0-1.2-.07-.37,1-1.22,1,1.26-.05.46,1,2.11.39.17.33-.66.48-.83.43a.93.93,0,0,1-.25,1.17c.44.13-.14,2,1.18,2-.86-.06-.42.12-.74.44l-.76-.05.15.52c-.05.12,0,.15,0,.13s.42-.11.63.08c.1.35-.29.46-.64.74l-.12,0,0,.26c0,.18.63-.8,1.09-.29-.2.06-1.11.61-.56.66-.08-.3.43-.37.66-.3l.12.41-.95.06c.19,1.21,1,2.36,1,3.7.81-.17.14.92,1.32.6l-.12,0c.09-.35,1-.08.85.22-.41-.21-1.15.7-1.39.05l-.52.62c-2.27.67.27,1.36-.42,2.26a.67.67,0,0,1,.27-.11c-.69.8.71,1.48.36,1.7l.63,0c-.93.74-1,.81-.58,1.48.1,0,.28-.13.42,0-.45.23-.93.46-.79.93l.2,0-.1.78c1.94-.21-1.18,1.45.93,1.46-.57.21-.74.79-1,1.07a.6.6,0,0,1,.26,0c-1,.39.33.83.22,1.17s-.58.17-.92.1c.84.36-.92,1.23-.59,1.36.07.3.74.06,1.17.12-.21.47-1.75,0-1,.6.09-.08.16-.22.27-.17.16.22,2.37.52,1.91.78l-.34-.13c-.52.45,1.54.94.22,1.08h-.6c.77.71-.26.32.42,1h.1c-.14.33.62.49-.37.68l-.13-.1a2.08,2.08,0,0,0,0,.86c-.1.05-.25.25,0,.31-.81,0-.41,1-.4,1.16.15-.33.48-.18.81-.09-.69.2-.77.34-.32.6-1,.05-2.09.11-2.21.64.17-.08.26-.21.47-.16s0,.18-.12.22c.2.05.38-.12.72-.06-1,.36-.13.61-.52,1.13.32-.16.5,0,.84,0-1.14,0,.93.72-.53.51.78,1-.2,2.57.72,3,.4.12-.3.38-.34.56h.5c-1,.46-.39.37-1.39.91a1.27,1.27,0,0,1,1.32.17l-1.1.35.76.11c-.33.15-.24.34-.15.53,0-.09.09,0,.22,0-1.08,0-1.07.75-1.6.83,1,.24-.33.45.62.65a1.66,1.66,0,0,0-.4.19c-.44-.12-.94-.18-.75,0,0,0,0,0,0,0l.59.11a.93.93,0,0,0-.29.42,1.09,1.09,0,0,0-.28-.19c.08.08.19.15.27.22v.06s0,0,0,0,.18.22,0,.34c.83.66-1.47,1.16-.31,1.91-.11-.11-.14-.25.07-.27-.13.52.64,1.14.1,1.42l-.56-.08a1.86,1.86,0,0,0-.62.94l-.63-.06c.13.48-1.1,1.3.14,1.74-.53,0,0,.64-.22.87l.47.13c.08.36-.14.54-.32.72.85.82-.28,1.3-.34,1.89l.14,0-.48.54c.47-.08-.32.07-.25.27-.29.15-.25.47,0,.74l-.08.38c.44-.36.67.16,1.22.28l-.51.16c.23.15.47-.07.54.13-.34.11-.47.59-1.08.63a1,1,0,0,1-.33-.22s0,0,0,0l0,0v0l-.23,0c0,.33-.17.17-.41.12.76.5.13.58,1.05,1-1-.58-.24.78-1.25.34.79.43,0,.18.68.49-.13-.4.77-.6,1.23-.81l.44.38c1,0-.18-.71.2-.81-.26.07-.11.37.11.42l-.73-.22c-.18-.47.5-.68,1-.9.17.32.55-.25,1,.05l-.15.2c.23.15.52,0,.78-.1-.35-.79.52-2,0-2.33.16.17-.06.41-.32.5l-.23-.38c-.08.26.52.58.16.92-.46-.15-1.2,0-1.77-.39-.53-.85,1.41-.39,1.43-1.32.17-.06-.82.06-.46-.37a3.89,3.89,0,0,1,2.85-.65c-.36.21-1.08.63-.35.83.37-.21.65-.63,1.15-.58-.82-.4-.37.45-1,0,.06-.18.36-.21.53-.28-.39.07-.57-.25-.77-.33.13-.59-.18-1-.12-1.61a2,2,0,0,0-.6-.16,3.67,3.67,0,0,1,2.24-.36c.12-.36-.29-.43,0-.71.68.59-.11-.11.75-.06.17-.3-.39-.16-.55-.33a1.72,1.72,0,0,1,.64-.11c-.6-.27-1.76.18-2.46-.14a6.7,6.7,0,0,1-1.19-1,19.28,19.28,0,0,1,4.61.62c.5,0-.47-.36-.49-.5-.7-.49.76-.55.5-.93l-.49.22c-.2-.08.14-.54.45-.6a7.3,7.3,0,0,1-1.8-.07c0-.6,1.59-1,2.43-.93l-1,.85c.7.1.81-.59,1.65-.48L596,438a.5.5,0,0,1-.66.26c.1-.36-.09-.2-.38-.47a30.39,30.39,0,0,1-4.49,1.07l.54-.38-.39-.14c.64-.5,3.47-.79,4.22-.89-.13-.35-1.65-.34-2-.29,0-.64,2.22-.48,2.11-1.15l.29.27c.17-.15,0-.73.22-.65a3.23,3.23,0,0,0-1.58-.2l1.51-.5a14,14,0,0,1-1.58,0c0-.23,1.45-.32,1.63-.16a5.16,5.16,0,0,0-1.31-.78,3,3,0,0,1,1.4.18c.37-.29.24-.47.14-.62-.6.47-2.74,0-3.67.06l3.77-.91c-.23,0-1.39.07-1.53.05,1.09,0,1.35-1.28,1.26-1.89v.09a.33.33,0,0,1-.23-.61c-.22,0-.16.08-.18.17-.77-.42,1.68-.49.77-.92.06.37-.38.44-.8.41.42-.3.06-1,1.32-.85-.25-.2-.07-.38-.71-.36l.83-.75c-.14.06-.52.1-.58-.12.12.42-1.1.82-.29,1a6.42,6.42,0,0,0-1.87,0c.45-.8,1.83-1.23,2.8-1.76l-.5-.71.36,0-.89-.11c.22-.09.4-.15.32-.17a1,1,0,0,0-.34.05.57.57,0,0,1,.24-.19,5.4,5.4,0,0,0-1.54.26l.48.19a1.64,1.64,0,0,1-1.22.06l.2-.1a1.38,1.38,0,0,1-.76.08l.49-.54c.12.06.37.15.65.25.63-.34,1.39-.75,2-.45l-.5-.41a4.75,4.75,0,0,0,1.42-1c-.31,0-.58.15-.81.05,1-.47-1.14-1-.24-1.15.24-.36.79-.17,1.05-.41-.1,0-.3,0-.31,0l.66-.29c-.23-.1-.46.26-.73,0,.51-.53.85-.85.56-1.26.18-.63,1.28.19,1.18-.33-.53,0-1.16-.07-1.22-.39.37-.19.78-.19,1-.5l-.81.07c0-.27.2-.5-.41-.46.36-.24.3-.39.18-.49.45-.44,1.63.18,1.95.26-.59-.36-.23-.67-1.21-.83l-.22.38c-1-.68,1.15-.81-.58-1,.07.25-.36.59-.82.47l.42-.4c-.21,0-.15.22-.39.07a5.61,5.61,0,0,1,.86-.48h-.05l.13-.68c0,.12-.26.18-.3.06l.42-.48a.41.41,0,0,1-.58-.15c-.25-.54,1.82-.63,1-1,0,.06-.08.08-.06.14l-.37-.19c1.72-.22.16-1.36,1.89-1.6-.7-.25-.41,0-1.23.54l-.5-.3c-.06.15.07.25-.09.42-.74-.37.18-.9.63-1.19-.25-.15-1.3.28-1-.24.33-.74,1.27,0,1.46-.47l-.91-.19c.65-.62,0-.94-.12-1.37a.54.54,0,0,1,.25-.21c-.41-.42.82-1.12.5-1.45-.17.11-.57-.12-.79-.13l.52-.73c-.22.32-.74.38-1.23.51,0-.21.32-.35.38-.49a.7.7,0,0,1-.59.15l.8-.81a.25.25,0,0,1,.16.16c0-.17.29-.59-.14-.77-.19.06-.37.17-.57.22.57.12.1.31-.28.48.07-.48-.13-.1-.51-.26,0-.33.67-.58,1.11-.57-.22-.34-.38-.43.1-.9l-.69.19.19-.38-.82.43c-.54-.58,1.18-.33.71-1l-.61.11c.21-.33,1.23-.62.47-.7.34-.35.91.31,1-.37a1.25,1.25,0,0,1-.73-.42c.26-.26.74,0,.67.17.19-1-2.15-.2-1.43-1.23.47.21,1.15-.49,1.21.23.32-.42-1-.5-.33-1l-.75.39c0-.12.24-.32.33-.41l-.6.16c1-.66-.59-.7.74-1.26-1.05.42,0-.33-.43-.41-.71.52.18,1-.82,1.27-.33-.1.14-.35-.18-.45a2,2,0,0,1-.57.45c-.64-.42.48-1,.69-1.37l-.14.64c1-.27.13-.3.89-.64-.58-.17.16-.57-.2-.74,0,.06-.09.09-.07.15-.07-.64-1.72-.44-1.78-.68s.3-.81.75-.75c.25-.27-.17.92,1.06.25-1.54,0,.45-.89-.68-1.43-.48.48-.87,0-1.22.41.06-.4.28-.47.67-.74h-.49c1-.76.9-.36,1.32-1.24-.31.34-.73-.12-1,.15-.07-.19,0-.43.28-.65l-.06,0c.1-.81-.7-.45-.31-1.27h.29c.6-1.12-.15-2.1,0-3.12l.3.25c-.17-.05.29-.76-.2-.91,0,.07-.12.2-.07.25-.31.09-.8.12-.93-.07l.46-.24-.39,0c-.08-.33.7-.12.62-.46-1.39.25-.55-1.38-1.81-1.26.91-.56.3.58,1.12,0-.17,0-.36,0-.5-.23l.6-.12c-.6-.9-1.18-1.11-1.34-2l-.11.08c-.32-.23-.26-.44.2-.77-.3,0-.37.32-.64.28.81-.7.07-.79-.39-.94l.48-.09c-.09.08-.21-.18-.13-.25l.47.23a.49.49,0,0,1-.06-.6c.31-.41,1,1.48,1,.59,0,0-.09-.05-.13,0l0-.4c.69,1.51,1-.32,1.76,1.15,0-.73-.16-.36-.78-.92l0-.57c-.13,0-.16.16-.33.07,0-.81.69-.17,1.06.13,0-.29-.64-1.07-.17-1,.63,0,.44,1.13.82,1.14l-.17-.88c.68.38.69-.31,1-.6a.38.38,0,0,1,.23.15c.15-.52,1.11.3,1.23-.1-.15-.12-.13-.55-.21-.75l.72.16c-.32-.06-.56-.48-.84-.87.16-.05.36.14.49.13a.69.69,0,0,1-.34-.46l.87.39a.22.22,0,0,1-.05.2c.12-.07.54,0,.48-.43-.12-.15-.27-.26-.38-.41.15.55-.17.21-.44,0,.35-.14,0-.16,0-.55.22-.13.67.35.84.74.14-.33.15-.48.67-.25l-.42-.52h.34l-.63-.54c.16-.69.72.88,1,.22l-.33-.48c.31.05.94.8.68.13.38.15.17.9.67.68a1.43,1.43,0,0,1,0-.79c.29.12.3.64.17.64.81-.27-.81-1.9.2-1.72.07.48.85.76.39,1.11.43.1-.1-1,.51-.69l-.6-.47c.07-.07.33.07.42.1l-.37-.43c.9.56.2-.77,1.19.11-.77-.71.24-.13.08-.53-.68-.37-.61.55-1.25-.17-.08-.31.31,0,.23-.32a1.65,1.65,0,0,1-.57-.3c0-.68.87,0,1.24,0l-.49.14c.64.7.26,0,.85.47-.16-.55.46-.1.4-.47,0,0-.1,0-.13,0,.4-.33-.53-1.58-.41-1.73s.68-.09.86.3c.29.08-.69.24.36,1-.76-1.26.81,0,.6-1.18-.55-.18-.44-.69-.89-.8.3-.12.46,0,.83.23l-.24-.39c1,.45.68.58,1.49.53-.4-.1-.29-.62-.63-.74.09-.14.3-.15.58-.05l-.06,0c.6-.27-.06-.74.68-.79l.16.22c1,0,1.31-1,2.05-1.37v.34c-.06-.15.67-.1.49-.55-.05,0-.19,0-.19.06-.23-.2-.52-.56-.46-.75l.4.24-.23-.28c.17-.21.46.48.63.27-.92-.95.63-1-.16-1.92.88.43-.21.48.61.86-.06-.16-.18-.3-.13-.48l.42.39c.26-.84,0-1.38.59-1.9l-.11,0c0-.33.13-.38.62-.2-.19-.19-.42-.12-.55-.34,1.5.45-.37-1.33.65-1-1-.6-1.63-1.65-2.54-1.93l.21-.06c-.68-.36-.31.42-1,.07l.36.87c-.23-.17-.64-.34-.67-.46-.09.1-.18.16-.43-.2.86,2.14-1.51,2.09-1.52,3.68-.1,0-.28-.18-.4-.32.42.65-.44-.07-.6,0l.59.94c-.34-.1-.51-.4-.68-.53-.59.35-.24,1.51-1.07,1.46.16.39.66.56.6.81-.6-1-.82.12-1.25-.56.69,1-.38.74.84,1.81-.13.26-.65-.33-.7-.48-.17.26-.35.45-.88.26.13.39-1.29.66-.68,1.76-.39-.72-.29-.3-.65-.44l-.35-.63-.25.32c-.1,0-.1,0-.06.09s.28.29.26.54c-.18.22-.44-.06-.78-.24l0-.11-.18.07c-.09.11.81.22.71.78-.13-.14-.92-.68-.69-.21.15-.18.44.22.51.43l-.22.25-.48-.76c-.66.61-1,1.72-1.85,2.25.46.63-.54.45.18,1.34l0-.11c.27-.06.46.79.21.8,0-.43-.94-.75-.62-1.17l-.62-.24c-1.36-1.72-.73.73-1.59.45a.71.71,0,0,1,.19.2c-.79-.34-.69,1.11-1,.87l.24.56c-.82-.58-.88-.63-1.17-.05,0,.08.18.21.16.36-.31-.34-.61-.68-.87-.4l.1.16-.53.18c.76,1.72-1.3-.63-.66,1.3-.31-.46-.74-.44-1-.61a.7.7,0,0,1,.05.25c-.54-.84-.44.56-.7.54a1.25,1.25,0,0,1-.32-.83c0,.87-1-.55-1-.19-.17.15.14.72.21,1.14-.35-.05-.45-1.65-.63-.77.07.06.18.09.17.21s.21,2.39-.07,2v-.35c-.41-.38-.32,1.72-.68.5l-.12-.59c-.32.94-.26-.15-.62.69l0,.09c-.25,0-.22.72-.53-.18l.05-.15c-.29,0-.3.07-.58.2,0-.09-.21-.19-.22,0-.15-.78-.71-.2-.84-.11.24.05.19.41.17.76-.23-.62-.32-.65-.45-.15-.16-1-.33-2-.68-2,.07.14.16.21.15.42s-.12,0-.15-.07c0,.21.12.35.12.7-.34-.9-.42,0-.8-.27a1.56,1.56,0,0,1,0,.84c-.11-1.12-.4,1.07-.38-.41-.64,1-1.75.27-2,1.26-.08.42-.28-.22-.4-.23v.5c-.33-.87-.27-.32-.64-1.22a1.79,1.79,0,0,1-.12,1.34l-.23-1-.09.77c-.1-.29-.23-.17-.37,0,.06,0,0,.07,0,.21,0-1.07-.49-.93-.52-1.44-.21,1-.3-.25-.48.73a1.72,1.72,0,0,0-.11-.38c.1-.45.18-1,.05-.74l0,0-.12.6a.52.52,0,0,0-.27-.24,1.81,1.81,0,0,0,.15-.29c-.05.09-.11.2-.17.29h0l0,0c-.08.14-.16.2-.23,0-.53.91-.65-1.32-1.28-.06.09-.13.19-.18.17,0-.34-.06-.85.73-1,.25l.13-.56c-.21-.3-.36-.5-.57-.49l.13-.64c-.36.19-.71-.9-1.23.37.07-.52-.44.07-.56-.14l-.18.47c-.26.12-.35-.09-.44-.25-.74.91-.85-.17-1.26-.18l-.05.14-.27-.46c0,.46,0-.32-.13-.23,0-.27-.27-.21-.53.06l-.25,0c.15.4-.28.67-.51,1.22v-.49c-.16.24-.06.46-.22.54,0-.32-.32-.4-.2-1a1.5,1.5,0,0,1,.25-.34s0,0,0,0l0,0,0,0c0-.06,0-.16,0-.23-.24.06-.08-.14,0-.38-.56.78-.46.18-1,1.11.7-1-.49-.21.1-1.21-.53.79-.13,0-.55.68.33-.14.22.73.26,1.17Zm32.85-8.5-.05-.16C600.07,373.41,600.2,373.5,600,373.47Zm-2.72,45.3c.36,0,0,.27-.17.38C596.89,419,596.56,418.93,597.26,418.77Zm-2.17,7.92c.22.13.31.24.1.32C595.05,426.89,595,426.78,595.09,426.69Zm-7.66,21.11h0C587.33,447.64,587.26,447.55,587.43,447.8Zm3.6-63.27.18.22C591.08,384.7,591,384.63,591,384.53Zm-.21-.08c-.06-.08-.15,0-.12-.26a2.58,2.58,0,0,1,.22.23Zm-.36-.19.31.21-.24.06A.6.6,0,0,1,590.46,384.26Zm.43,16.76-.17,0C590.88,400.88,591,400.79,590.89,401Zm-3.37-15a.33.33,0,0,1,0-.19l.11.07A.87.87,0,0,1,587.52,386.05Zm-.82-.69c0-.1.07-.15.12-.08Zm-2.67.3c.07-.17.14-.21.22-.18C584.19,385.73,584.11,385.84,584,385.66ZM569.66,381v0C569.8,380.83,569.88,380.76,569.66,381Zm-3.7-1.27c.14.12.23.17.34.13l-.23-.41h0l0,.07c0,.08.08.13-.08.2a2.07,2.07,0,0,0,.08-.2h0s0,0,0-.07h0l0,0a1.26,1.26,0,0,1-.3.16.38.38,0,0,1,.13.21c-.4.19-.13.77-.43.51,0,.27-.23.64,0,.76C565.86,380.5,565.77,380.21,566,379.68Zm24.95,61.55,1.26.15,0-.09Zm-24.19-58.74-.31.58.17-.07Zm-1.31-2.93a.5.5,0,0,0,.39,0c-.08-.07-.16-.12-.13-.37C565.57,379.1,565.47,379.4,565.41,379.56Zm1.34.34,0,.08.06-.08Zm-.65-.53a1.74,1.74,0,0,0,.27-.22C566.42,379,566.22,379.23,566.1,379.37Zm-.88-.21a.52.52,0,0,0,0,.23,2.93,2.93,0,0,0,.05-.35Zm.1-.15v0C565.37,379,565.4,378.92,565.32,379ZM599,413.24c0-.13.13-.3.1-.43C598.12,412.89,599.08,412.94,599,413.24ZM595,385c.08-.08.25,0,.34-.07C595,384.12,595.3,385,595,385Zm2.35,31.09.75,0,0-.07Zm-30.68-34.54a.1.1,0,0,1,.11.05C566.78,381.52,566.82,381.28,566.71,381.56Zm25.76,3.05.18.71,0,0Zm-25.73-1.35-.11.1.28-.09Zm.13-1.61h0c.09.14.13.35.35-.13C567.16,381.23,567.13,381,566.87,381.65Zm29.25,44.46a.33.33,0,0,0-.33,0ZM601.65,377l0,.05C601.81,377.06,601.87,377.06,601.65,377Zm7.17-5.19,0,.08S608.88,371.82,608.82,371.77ZM596.49,383l-.07-.08h0Zm.38.4-.38-.4C596.63,383.23,596.68,383.52,596.87,383.4ZM571.62,381a.76.76,0,0,0-.39.26C571.13,381.72,571.39,381.28,571.62,381Zm35.63-15.76a.37.37,0,0,1,.13-.12C607.27,365.15,607.24,365.19,607.25,365.24ZM595,401.44h0C595.14,401.32,595.16,401.25,595,401.44Zm-30.57-21.92h-.09v.2Zm29.76,53.76,1.55.23c-.12-.16-.18-.28.53-.46Zm.28-43,.08,0S594.5,390.2,594.43,390.23Zm3.33,20.45-.11,0a0,0,0,0,1,0,0Zm.56-.25-.56.25C598,410.62,598.33,410.7,598.32,410.43Zm-26.48-29.24.11-.12c0-.39-.16-.28-.33-.07C571.73,381,571.79,381.08,571.84,381.19Zm25.27,36.42.25-.05S597.24,417.54,597.11,417.61ZM562.94,381.3c.09-.16.06-.29.22-.4s0,.2,0,.28a11.1,11.1,0,0,0,.81-1.13,2.53,2.53,0,0,1-.76.72v-.08A.68.68,0,0,0,562.94,381.3Zm21.3,2.78.17.49a1.1,1.1,0,0,1,0-.18Zm-23-5.88-.31.69.14-.16c.37-.18.1.92.69.17C561.45,379,561.4,378.43,561.23,378.2Zm-.12,1.41-.06.33.26-.17C561.47,379.51,561.08,379.77,561.11,379.61Zm3.18-.52a1.47,1.47,0,0,1-.23.47l.24,0Zm-1.35,2.21-.07.11S562.93,381.37,562.94,381.3Zm5.79-1.14.1,0C568.79,380,568.76,380.07,568.73,380.16Zm8.59,1.65.1-.55c.07-.56-.15.15-.34.62C577.16,381.76,577.23,381.7,577.32,381.81Zm12.18,54.5-.54-.1c-.55-.07.13.21.56.44A.22.22,0,0,1,589.5,436.31ZM560.17,376.6c-.08.12.33-.36.28-.53C560.4,376.16,560.07,376.61,560.17,376.6Zm.48,1.7,0,.36.12-.56Zm33.06,48.18.54-.15-.16-.06Z" fill="#202020"/>
          <path d="M383.3,213.75l.24-.43-.51.45Zm2.93-4.37c-1,.72-.74-.13-1.34.13C384.44,211,385.56,209.86,386.23,209.38Zm-3,3.46c0-.05,0-.09-.05-.13S383.17,212.86,383.2,212.84Zm.37-2.39a1.37,1.37,0,0,1-.73.67,3.76,3.76,0,0,0,.31,1.59,6.86,6.86,0,0,1,.52-2.17l.17-.11c.41-1.09-.3-.45-.62-.22C383.36,210.32,383.73,209.93,383.57,210.45Zm-.35-.24a.13.13,0,0,1-.06-.13C383,210.35,383.08,210.31,383.22,210.21Zm.45,4.07.07-.1C383.66,214.19,383.65,214.22,383.67,214.28ZM380.05,221a10,10,0,0,0-1,.67A4.1,4.1,0,0,0,380.05,221Zm0,0a7.69,7.69,0,0,0,1.92-1.47c-.52.33,0-.84-.57-.61A4.76,4.76,0,0,1,380.05,221Zm4.16-8.89-.67,1.18,1.14-1C384.34,212.54,384.31,212.23,384.21,212.14Zm-.83,4.23-.51.34,1.29-.7Zm-11,12.61-.27.61.71-.39Zm12.41-16.54,1-.89C385.67,211.38,385.44,211.49,384.83,212.44Zm-2.05,3.16.6-.9v0C383,215.2,382.85,215.48,382.78,215.6Zm.89-1.32-.29.42.15.69A1.34,1.34,0,0,0,383.67,214.28Zm-9.4,12.58-.79.6,1.41-.49Zm20.23-35.68-.33.52.45-.57.44-.6-.25.12S394.66,190.92,394.5,191.18Zm-3,12c.18-.39.3-.61.39-.77a1.87,1.87,0,0,1,0-.21C390.75,204,391.31,202.83,391.48,203.22Zm.39-.77c0,.64.45-.78,0,0Zm.49-5.9c-.46.73-.8,1.39-.56,1.92.31-1.24,1.73-3.21,2.44-4.93l-.92.44.11.29A7.71,7.71,0,0,1,392.36,196.55Zm-2.11-16.64.6-.69-1,.7Zm2,.05c.15-.25.65-.37.94-.44l-.9-.43Zm4.64,1.32c-.14,0,.54.45.51-.63C397.3,180.77,396.75,180.69,396.87,181.28ZM389,206.15l-.42.46C388.93,206.43,389,206.28,389,206.15Zm-2.49,4.79-.66.61c.15.19.16.74.36.78C386,212.14,386.33,211.38,386.47,210.94Zm5-13.87-.59.57-.12.87C391,198.66,391.2,197.36,391.49,197.07Zm-3.9,9.25-.22.34.94-.91c.48-.45.94-.92.94-.92l-.83.75Zm1.37-.17.9-1c-.43.4-.79.49-.51.52C388.69,205.79,388.93,205.94,389,206.15Zm1.14-1.67c1.22-1.89.81-2.44-.38-.56C390.57,203,390.26,203.83,390.1,204.48Zm-.43,1.48c-.06.73,0,1,.76.09-.33.26.16-.66.1-1Zm-24.8,27.78a7.39,7.39,0,0,0,.84-.8A3.77,3.77,0,0,0,364.87,233.74Zm-84.46,41.75c-.11-.05-.27.07-.51.39C280,276,280.17,275.83,280.41,275.49Zm101.14-58.22a.9.9,0,0,1,.1-.09C381.58,217.12,381.56,217.18,381.55,217.27Zm4.44-35a3.72,3.72,0,0,0-1,.39C385.36,182.48,385.74,182.31,386,182.24Zm-34.07,65.09,1.22-1c0-.31-.44,0-.81.21C351.87,246.9,351.66,247.29,351.92,247.33Zm28-28.32c.3-.39.6-.74.9-1.06a2,2,0,0,0-.91.9C379.79,219,379.84,219,379.93,219Zm-3.76,5,1.85-1.88h0l-.08,0c-.2.15-.62.63-.24,0a.48.48,0,0,1,.24,0l0,0c0-.12,0-.07,0,.06h0a.17.17,0,0,0,0,.07c.18-.39.4-.79.63-1.2a11.24,11.24,0,0,1-1,1c.91-1.65-1.49.73.22-1.23-.78.62-.8,0-1.82,1.24,0,1,.95.07,1.63,0A16,16,0,0,0,376.17,224Zm-.22.29-1.64,2.13c.16.05.43,0,1.19-.55a6.37,6.37,0,0,1,.67-1.87l-.39.39Zm-103.8,83.59.25-.1.47-.2,2.39-1.06a3.43,3.43,0,0,0,1.61-.64c-.2.51,1.14,0,2.63-.66s3.1-1.64,3.59-1.92c-1.87.81-1,0-.66-.52a2.6,2.6,0,0,0,2.62-1.11c.58.79,1.25,1.62,3.4.47-.4.06-.95.27-.83,0s.71-.39.91-.42c.12-.3-.62-.05-.54-.48,1.84,0,2.47-1.35,4.64-2.29-.78.14-.32-.37-.26-.8.7.86,2.25-2.53,2.2-.83,3.47-3.17,9.69-6.53,10.63-8.36.17-.6,1.56-.81,2.21-1.28l-.36-.33c2.3-.6,1.59-.76,4.21-1.61-1.21.19-1-.3-.38-1.32l2-.29-.16-.81a4.51,4.51,0,0,0,1.92-1.41c-.32.24-.18.05-.24-.07.93.59,3.4-1.5,4.08-1.43,0-1.29,1.85-1.15,1.73-2.27a4.71,4.71,0,0,0,1-.33c0,.59.16,1.06.6.43l.14-.09-.11-.66a13.27,13.27,0,0,0,1.68-1.1,3.32,3.32,0,0,0-.41.71c.19-.27.35-.54.52-.8l.2-.17a.39.39,0,0,0-.14.08,2.47,2.47,0,0,1,1.2-1c1.43-2.35,5.22-2.77,6.59-5.6-.24.38-.67.82-.93.77,1.86-1.52,3.1-3.73,4.52-4.4l.28.48a25.4,25.4,0,0,0,3.63-2.75l.47.41c1.38-1.55,5.3-3.85,5.35-5.65.71,0,2-2.07,2.93-2.76l-.11-.54a11.93,11.93,0,0,1,2.53-2.26c1.52-2.86,4.23-4.2,6.08-6.2l-.09-.11,2.16-1.75c-.81.23.59-.18,1.08-.86a7.09,7.09,0,0,0,2.14-2.56l1.18-1.3c-1.56,1.22-.41-.56-.74-1l1.08-.53c.11-.51-.8.24-.33-.44.73-.35,2.2-2,3.08-2.15a1.58,1.58,0,0,1-.19.77c-.09.05-.08.05,0,0l0,.08a.2.2,0,0,1,.05-.09,1.68,1.68,0,0,1,.36-.08c.85-1.12.67-.59.83-.39.41-1.74,1.43-2,1.47-3.58-.22,2,2.39-2.74,2.54-1.29.1-1.44.49-.64.41-1.68-.89,1.42-2.58,2.16-3.74,2.92l.46-1.32c-1.29,0-1.66,2.44-2.42,2.81.52-.25,1.13-1.27,1-1.45l.33.75a10,10,0,0,1-3.61,3c.66-1.08-1.35.82-1.14-.19l.73-.67c0-.15,0-.2-.12-.2q3.65-4,7-8c.69.23,2.34-1.3,2.34-.48.35-.82-.18-.84,1.12-2,1.06-.6-.24,1.53-.33,2.05,1.07-.85,1.22-.73,1.41-.63,0-1.38-.68-2.93-1.72-2.29l1.17-1.45c-.16.38.29.09.73-.43l-.18-.21a1,1,0,0,0-.15.14c13.13-16.46,21.33-31.39,19.69-40.51,0,0-1.07.39-3,1.16.48-.84.91-1.62.05-1.82l1-.25c-.56-.62-3.06,1.2-3.87.68l-2.77,2.06c0-.31-.65-.5-.2-.81-.76.32-1.43.56-.59-.26-6.53,5-14.52,6.9-20.94,11.61-.49.19-.35-.2-.25-.45-.92,1.36-1.37.32-2.1.62l-1.35,2c-.89.14-.46-.48-.62-.64-3.57,1.81-6.39,4.73-9.44,5.92-.68.88.64.61-.44,1.45.5-1-.4-.56-1.35-.05s-1.94,1.11-1.65.45c-.49,1.73-4,2.91-2.6,4-1.28,1-1.47.19-1.17-.2a14.08,14.08,0,0,1-4.31,2.47c-.63.9-7.24,4.78-7.8,6.86.43-1.35-.31-.28-1.39.13l.36-1.18-1.92,1.61c-.44.27-.54.38-.5.43-.31.29.32.24-.4,1.07a4.41,4.41,0,0,1-2.53,1.2l.14-.24-.93.69c-.64.56,2.74-1.4.84.66-.15-.12-2,.22-2.24,1.09,1.06-.94,1.24-.45,1,0l-.74.66c-.38.32-.73.67-.73.67l-.09-1.11c-4.25,3.84-8.21,8.3-12.41,12.7.62.47-2.94,3.14-1.72,3.51l.08-.24c1.11-1,.36.89-.51,1.73.56-1.2-2.35.95-.45-1.48l-2,1.45c-1.27-.21-2.3,1-3.37,2.61s-2,3.57-3.45,4.78a.53.53,0,0,1,.44-.12,9.76,9.76,0,0,0-1.72,1.85,19.42,19.42,0,0,0-1.25,2.08,10.59,10.59,0,0,1-1.58,2.62l.34.56a10.46,10.46,0,0,0-2.35,2,15.41,15.41,0,0,0-1.68,2.93c.11,0,.47-.22.3.28a5.4,5.4,0,0,0-2.68,2.89h.21l-1.82,3c.86.4-.15,1.56-1.17,2.89s-2,2.86-1.26,3.72c-.78.41-2.14,2.62-2.78,3.59.07,0,.12.13.14.34-1.48.9-1.18,3.68-1.85,5-.6.82-.75.35-.9-.14a7,7,0,0,1-1.27,3.23c-.65,1-1.31,1.93-1.25,2.3-.38,1.36.54.67.82,1.12-.82,1.94-1.58-.71-1.69,2.12.15-.3.42-.85.45-.61-.16,1.07,1.54,3.31.84,4.23l-.16-.73c-1,1.81.41,4.52-1,4.93l-.56-.2a7.88,7.88,0,0,1-.27,2.9,7.37,7.37,0,0,0-.3,2.79l.12-.14a8.82,8.82,0,0,0-.19,1.9,4.41,4.41,0,0,1-.84,2.08l0-.45-.29,1.44C272.16,307.69,272.11,307.82,272.15,307.85ZM371,225.94l1.42-1.72A3.47,3.47,0,0,1,371,225.94Zm-.39.47.09-.11h0Zm-10.28,15.73h0C360,242.69,359.79,243,360.29,242.14Zm-10.51,6.77c2-1.95,3.9-3.91,5.79-5.88a3,3,0,0,0-.29.54,4.67,4.67,0,0,1,1.78-1.56l-.79,1.26c.84-.84,1-2,2.39-3.06.14.53,1.48,0,1,1.45-1.78,3-2.79,1.18-5.48,4.19-.37.16,1.15-.07-.54,1.29A9.28,9.28,0,0,1,349.78,248.91Zm-7.63,7.37,1.26-1.18c0,.21,0,.5.15.58A4.88,4.88,0,0,1,342.15,256.28Zm-7.76,7.13,1.54-1.38.8.51-.58-.71,1.55-1.42a.52.52,0,0,1,0,.36,23,23,0,0,1-2,3.6A2.59,2.59,0,0,1,334.39,263.41ZM327,217.74l.22-.36C327.54,217.36,327.83,217.33,327,217.74Zm-2.74,54.42c.81-.67,1.61-1.35,2.41-2a27.72,27.72,0,0,1,3-.2l-1.75.9-.11.61A7.57,7.57,0,0,1,324.28,272.16Zm-15.41,12.22,1.17-.88a1.94,1.94,0,0,0,.61.89Zm-26.81,17.85a6.79,6.79,0,0,0,.68-1l.46-.25.6-.06-.33-.08,1-.55c.07.14,0,.33-.23.6l-.46,0c.48.11.81.24.61.49Zm83.44-68.09a.49.49,0,0,1-.34,0A.37.37,0,0,0,365.5,234.14Zm4.94-5.38a5.52,5.52,0,0,1-.55.63C370.26,229.06,370.72,228.86,370.44,228.76Zm-5.57,5c-.18.14-.35.23-.41.15l-.83,1.17C363.74,235.2,364.3,234.41,364.87,233.74Zm13.86-15.58,1.49-1.58c-.26,0-.38-.39-1,.65L379,217Zm-9.09,11.5.1-.12c-.66.62-1.31,1.12-1,1.52C369.54,230.48,370.34,229.9,369.64,229.66Zm-2.12.51.71-.07-.26-.63Zm1,3.91,1-.87c-.28.3-.26,0-.35-.13A2.62,2.62,0,0,1,368.47,234.08Zm-16.89,17.54a8.63,8.63,0,0,1-1.43,1.23c-.07.14-.15.25-.22.39A3.11,3.11,0,0,0,351.58,251.62Zm0,0a10.18,10.18,0,0,0,1.19-1.62C352.28,249.87,352.05,250.73,351.58,251.62Zm13.58-14.12c.16-.24.29-.47.4-.67A4.51,4.51,0,0,0,365.16,237.5Zm0,.15c.11,0,.43-.42,0,0Zm-.95,1.09c0,.31-.47-.31-.67.09C361.67,240.34,365,238.8,364.18,238.74Zm-41.07,38.31A3.55,3.55,0,0,1,322,278.1l.1.59C322.3,279.18,322.68,278,323.11,277.05Zm58.44-59.78a6.43,6.43,0,0,0-.72.68,4.36,4.36,0,0,0,.72-.44A.65.65,0,0,1,381.55,217.27ZM365.16,237.5a5.74,5.74,0,0,1-.61.75l.58-.6S365.11,237.61,365.16,237.5Zm16.46-20.05-.07.06C381.57,217.62,381.6,217.67,381.62,217.45ZM378,222.16a9,9,0,0,0-.4,1C377.79,223.12,378,222.49,378,222.16Zm1.92-3.15a18.8,18.8,0,0,0-1.29,2,6.38,6.38,0,0,1,1.41-1.39C380.57,218.92,380.12,219,379.93,219Zm-5.62,7.38-.09,0v.14ZM366,236.66l-.31.42C366.09,236.75,366.09,236.66,366,236.66Z" fill="#202020"/>
          <g>
            <path d="M528.25,211.49c1.51,3,1.45,8.25.8,11.76-1.72,9.53-13.85,14.38-22.5,14.35-6.53,0-12.19-3-14.62-8.76C483.32,208.73,518,191.33,528.25,211.49Z" fill="#fff"/>
            <path d="M515.12,216.79a9,9,0,0,1-.46,4.68c-1.28,3.63-6.22,4.75-9.52,4.19a5.85,5.85,0,0,1-5-4.39C498.16,212.81,512.49,208.2,515.12,216.79Z"/>
            <path d="M480,218.12c.83,1.66.8,4.55.44,6.48-.95,5.25-7.63,7.92-12.4,7.9-3.6,0-6.72-1.66-8-4.82C455.22,216.6,474.3,207,480,218.12Z" fill="#fff"/>
            <path d="M472,222.26a3.42,3.42,0,0,1-.18,1.83c-.49,1.42-2.43,1.86-3.71,1.63a2.29,2.29,0,0,1-2-1.71C465.41,220.71,471,218.91,472,222.26Z"/>
          </g>
        </g>
      </g>
    </g>
  </g>
</svg>
