<svg xmlns="http://www.w3.org/2000/svg" xmlns:xlink="http://www.w3.org/1999/xlink" viewBox="0 0 274.8 368.88">
  <defs>
    <linearGradient id="linear-gradient" x1="93.53" y1="285.57" x2="141.35" y2="285.57" gradientUnits="userSpaceOnUse">
      <stop offset="0" stop-color="#f5f5f5"/>
      <stop offset="0.79" stop-color="#ebebeb"/>
    </linearGradient>
    <linearGradient id="linear-gradient-2" x1="30.59" y1="173.21" x2="123.36" y2="173.21" xlink:href="#linear-gradient"/>
    <linearGradient id="linear-gradient-3" x1="50.05" y1="207.3" x2="199.1" y2="121.24" xlink:href="#linear-gradient"/>
    <linearGradient id="linear-gradient-4" x1="144.14" y1="168.98" x2="173.16" y2="168.98" gradientUnits="userSpaceOnUse">
      <stop offset="0.09" stop-color="#f5f5f5"/>
      <stop offset="1" stop-color="#ebebeb"/>
    </linearGradient>
  </defs>
  <title>Asset 1</title>
  <g style="isolation: isolate">
    <g id="Layer_2" data-name="Layer 2">
      <g id="Calque_1" data-name="Calque 1">
        <g>
          <path d="M244.74,360c0,4.93-37.9,8.92-84.66,8.92s-84.66-4-84.66-8.92,37.9-8.92,84.66-8.92S244.74,355,244.74,360Z" fill="#d8d0bf"/>
          <path d="M141.67,31.47c3.17,1.17,27.57-11.09,31.69-4.43s-.63,24.08-24.08,20.27C145.79,39.08,141.67,31.47,141.67,31.47Z" fill="#ebebeb"/>
          <path d="M147.73,38s17.07-3,13.75-5.54c3.64.79,7.28,0,7.12-2.38,1.91,2.69-3.48,17.59-18.53,13.78C145.63,41.47,147.73,38,147.73,38Z" fill="#ebebeb" style="mix-blend-mode: multiply"/>
          <path d="M76.72,29.89c-4-.47-15.21-6.34-20.91-6.34s-9.19,13,14.26,15.84S76.72,29.89,76.72,29.89Z" fill="#ebebeb"/>
          <path d="M72.56,32.54S59,30.16,61.65,28.14c-2.9.63-5.79,0-5.66-1.88-1.51,2.13,5,12.48,17,9.46C76.47,33.84,72.56,32.54,72.56,32.54Z" fill="#ebebeb" style="mix-blend-mode: multiply"/>
          <path d="M132.88,36.82c7.45-6.12,13.5-21.94,14.62-30.43,2.89-21.81-22.94,19.07-27.35,20.74Z" fill="#d5c2bf"/>
          <path d="M102.8,27.13C98.39,25.46,72.56-15.42,75.45,6.39c1.12,8.49,7.17,24.31,14.62,30.43Z" fill="#d5c2bf"/>
          <g>
            <path d="M101.1,286.28c-2.23,9.53-10.55,70.8-6.45,71a78,78,0,0,0,8.8.16c1,0,2.28-7.43,3.31-7.48.81,0,1.4,7.24,2.2,7.24,20.48,0,30.7.3,29-8.31-1.39-6.84-6.42-53.28.21-72.92s1.17-47.76,0-60.89S101.1,286.28,101.1,286.28Z" fill="url(#linear-gradient)"/>
            <path d="M105.77,275.46c-2.84,6.51-4.67,10.82-4.67,10.82-.69,3-2,10.86-3.28,20.39a.6.6,0,0,0,.93.16c.08.25-.25.21-.26.44.34-.27.59-.25.92.1l-.09.07c1.16.42,1.47,1,2.62,1.79l.09-.46a1,1,0,0,1,.32.5c.59-.49-.74-.38-.15-.94,0,1,1.88.87,1.69,1.92.41.2.09-.52.5-.33v.3l.26-.28a.69.69,0,0,1,.14.78c0-.05-.21,0-.29,0,.21.46,1,.34,1.1.5l-.32-.34c1.22.27,2.42,1.24,3.73,1.23v-.23c1,0,.55.52,1.52.8l0,0a.88.88,0,0,1,.79.06c-.34.11.2.64-.21.74,1.06.06.58-.08,1.51-.5l0,.39c.35-.19.44-.33.92-.19-.5.09,0,.63-.55.77.57,1.16,1.73,0,1.63,1.24.87-.64-.55-.89-.21-1-.06-.38.69-.46.93-.22s-.09,1.37.65,1.75c-.07-.05-.11,0-.18,0,.15.37.7,0,.84.53.47-.41.41.27.83-.36l-.75-.21c.47,0,1.25-.54,1.67.19a1.47,1.47,0,0,1-.59.2c.08.29.43.07.5.37-.42.63-.89-.31-1.57,0,0,.39,1-.05.43.55.8-.74.64.52,1.52.1l-.25.38c.11,0,.37-.11.51,0l-.55.36c.64-.2.53.82,1,.8-.79-.45.1-.57-.07-1.05,1.28.05,0,1.33,1.14,1.8-.18,0-.4-.57-.07-.61a1.46,1.46,0,0,1,.33.8c.75.35.14-.46.58-.51,0,.61.47,0,.87.06l-.24.39c.63.76.73-.67,1.25.1l-.65.34.46.1-.36.39c.61-.07.69.1,1,.48.09-.33.51-.66.87-.43.08.39-.38.27.15.55-.28.16-.6.38-.57-.12-.11.11-.27.17-.38.27.08.43.59.49.77.61a.42.42,0,0,1-.13-.22l1.07,0c0,.21-.16.26-.32.32.17.05.39-.05.61.07-.26.26-.48.59-.86.52l.89.14c-.06.16.07.6-.1.65.23.43,1.32.07,1.6.66a.4.4,0,0,1,.29,0c.39.4.49,1.06,1.31,1.09l-.15.75c.49.21.16-1,1-.61.61.23-.19.57-.16.85.44-.05,1.29-.2,1.33.57-.22,0-.26-.2-.42-.28l.06.55c-.79.11-.9-.28-1,.36.92-.91,1.26,1,2.18.12v.38c-.05-.06-.11,0-.16-.08-.06.81.95-.38,1.31.25.09.25.06.5-.16.48l.59.18a.12.12,0,1,1-.19.13l.63.53,0,0a3.28,3.28,0,0,1,.82,0c0,.28-.17,0-.26.15l.53.15a.45.45,0,0,1-.79,0c-.73,1.14.49.09.46,1.25l-.39-.22c-.41.66,0,.74-.11,1.38.15-.23.38-1.43.92-1.25,0,.17.07.34.42.41-.37.26-.13.4.07.65l-.51.32c.33.17.57,0,.92,0a1.42,1.42,0,0,1-.33,1.32c.22.51.27.21.37-.07s.14-.34.27-.32c-1.17-13.42-2-32.21-.17-46.26Zm29,55.11c-.15,0-.53,0-.37-.27C134.94,330.08,134.8,330.32,134.81,330.57Z" fill="#ebebeb" style="mix-blend-mode: multiply"/>
            <g style="mix-blend-mode: multiply">
              <path d="M110.65,316.75s0-.17,0-.2S110.66,316.79,110.65,316.75Z" fill="#ebebeb"/>
              <polygon points="109.97 317.18 110 317.11 109.85 317.28 109.97 317.18" fill="#ebebeb"/>
              <path d="M109.44,316.93c-.09.13,0,.17,0,.18s.17,0,.2,0l0,.07.14-.21a1,1,0,0,0-.23,0A.12.12,0,0,1,109.44,316.93Z" fill="#ebebeb"/>
              <path d="M109.81,316.33c-.1.07-.1,0,0,0l0,0Z" fill="#ebebeb"/>
              <path d="M109.82,316.35s.08-.07,0,0Z" fill="#ebebeb"/>
              <path d="M109.69,316.25h.11c.07,0,.08-.08.13-.09A.33.33,0,0,0,109.69,316.25Z" fill="#ebebeb"/>
              <path d="M109.46,316.27l.05,0S109.55,316.26,109.46,316.27Z" fill="#ebebeb"/>
              <path d="M109.62,316.32l-.11,0c-.05,0-.14.06,0,0C109.46,316.34,109.55,316.32,109.62,316.32Z" fill="#ebebeb"/>
              <path d="M109.58,316.38c0,.05,0,.11-.18.11C109.51,316.57,109.68,316.42,109.58,316.38Z" fill="#ebebeb"/>
              <path d="M109.19,317.14v.13l.12,0C109.25,317.25,109.25,317.07,109.19,317.14Z" fill="#ebebeb"/>
              <path d="M109.78,315.88l-.26,0,.09,0A.27.27,0,0,1,109.78,315.88Z" fill="#ebebeb"/>
              <path d="M109.52,315.91l-.11-.08C109.38,315.91,109.46,315.92,109.52,315.91Z" fill="#ebebeb"/>
              <path d="M109.12,316.36l.27.06-.29-.09Z" fill="#ebebeb"/>
              <path d="M109.82,315.62l.15.07a1.05,1.05,0,0,1-.21-.12Z" fill="#ebebeb"/>
              <path d="M109.85,315.44c.12.07.22,0,.28.09a.89.89,0,0,0-.17-.19C110,315.4,110,315.42,109.85,315.44Z" fill="#ebebeb"/>
              <path d="M109.87,315.22a.41.41,0,0,0,.09.12A.36.36,0,0,0,109.87,315.22Z" fill="#ebebeb"/>
              <path d="M109.46,315.68s.15,0,.19,0h-.18Z" fill="#ebebeb"/>
              <path d="M109.46,315.65h0a.32.32,0,0,0,0-.08Z" fill="#ebebeb"/>
              <path d="M109.46,315.69h0S109.44,315.68,109.46,315.69Z" fill="#ebebeb"/>
              <path d="M109.23,316.07c-.11,0-.24-.17-.38,0C109,316.08,109.07,316,109.23,316.07Z" fill="#ebebeb"/>
              <path d="M109.22,315.71l-.06.1a.37.37,0,0,1,.18,0Z" fill="#ebebeb"/>
              <polygon points="109.17 315.65 109.22 315.71 109.24 315.67 109.17 315.65" fill="#ebebeb"/>
              <path d="M109.63,315.27a.16.16,0,0,1,0-.16.26.26,0,0,0-.13.12S109.62,315.32,109.63,315.27Z" fill="#ebebeb"/>
              <path d="M109.53,315.44h0S109.5,315.44,109.53,315.44Z" fill="#ebebeb"/>
              <polygon points="109.9 314.7 109.87 314.68 109.9 314.71 109.9 314.7" fill="#ebebeb"/>
              <path d="M109.44,315.23s0,.07,0,.12a.24.24,0,0,1,0-.12S109.44,315.21,109.44,315.23Z" fill="#ebebeb"/>
              <path d="M109.85,315.06h-.12C109.79,315.08,109.89,315.1,109.85,315.06Z" fill="#ebebeb"/>
              <path d="M109.58,315.43h0S109.61,315.44,109.58,315.43Z" fill="#ebebeb"/>
              <path d="M109.58,315.43l-.1-.08,0,.08Z" fill="#ebebeb"/>
              <path d="M109.25,313.67c.1.15.07.35-.15.35,0,.2.5.5.77.66a.28.28,0,0,1-.09-.25c-.1-.07-.33,0-.38-.16s.14,0,.26,0c-.2-.12,0-.37-.23-.62l-.08.2S109.32,313.68,109.25,313.67Z" fill="#ebebeb"/>
              <path d="M109.74,314.81v.05c.06,0,.13,0,.27.05a.61.61,0,0,0-.1-.2l-.14.13Z" fill="#ebebeb"/>
              <path d="M109.64,315c-.16-.12-.17-.27-.37-.32-.06.14.08.18.12.29.06-.21.06.1.23,0a.21.21,0,0,1,0,.12l.12,0h0s0,0,0,0h0l0-.05s0,0,0,.05l0,0h0a.7.7,0,0,1,0-.21S109.65,314.91,109.64,315Z" fill="#ebebeb"/>
              <path d="M108.43,315.92h0S108.43,315.88,108.43,315.92Z" fill="#ebebeb"/>
              <path d="M108.54,315.8s.1,0,.08.11-.09,0-.15,0,.15.13.23,0l0,0a.58.58,0,0,1,.35-.19A1.4,1.4,0,0,0,108.54,315.8Z" fill="#ebebeb"/>
              <path d="M109,315.26l0-.23-.18.05.09,0C108.82,315.22,109,315.23,109,315.26Z" fill="#ebebeb"/>
              <path d="M110,314.76l.13.15a1.65,1.65,0,0,1-.14-.26A.45.45,0,0,0,110,314.76Z" fill="#ebebeb"/>
              <polygon points="110.11 314.63 110.21 314.77 110.19 314.66 110.11 314.63" fill="#ebebeb"/>
              <path d="M109.06,322.45h0Z" fill="#ebebeb"/>
              <path d="M109.65,322.71l0-.08S109.62,322.7,109.65,322.71Z" fill="#ebebeb"/>
              <path d="M114.67,317.07c-.12.14-.34.31-.15.24l.17-.09A.12.12,0,0,1,114.67,317.07Z" fill="#ebebeb"/>
              <path d="M114.3,321.52l0,0c0-.08,0-.14,0-.2A.62.62,0,0,0,114.3,321.52Z" fill="#ebebeb"/>
              <path d="M114.54,322.28l-.2-.06A.52.52,0,0,0,114.54,322.28Z" fill="#ebebeb"/>
              <path d="M106.25,320.45l-.22,0C106.13,320.62,106.17,320.5,106.25,320.45Z" fill="#ebebeb"/>
              <path d="M112.36,314.37c0,.09.07.15.11.17C112.44,314.41,112.43,314.22,112.36,314.37Z" fill="#ebebeb"/>
              <path d="M110.07,320.68s-.08,0-.09.08A.1.1,0,0,0,110.07,320.68Z" fill="#ebebeb"/>
              <path d="M112.63,314.6l0-.05a.17.17,0,0,1-.14,0C112.49,314.64,112.52,314.7,112.63,314.6Z" fill="#ebebeb"/>
              <path d="M108.18,309.54h0S108.19,309.52,108.18,309.54Z" fill="#ebebeb"/>
              <path d="M111.48,311.21a.48.48,0,0,1-.12,0S111.42,311.23,111.48,311.21Z" fill="#ebebeb"/>
              <path d="M110.86,314.4s0,0,0,0Z" fill="#ebebeb"/>
              <path d="M110.43,313.71a.14.14,0,0,0,0-.09A.14.14,0,0,1,110.43,313.71Z" fill="#ebebeb"/>
              <path d="M113.73,313.87h0S113.74,313.84,113.73,313.87Z" fill="#ebebeb"/>
              <path d="M110.77,314.33l.07.05S110.81,314.35,110.77,314.33Z" fill="#ebebeb"/>
              <path d="M110.8,314.42h0S110.77,314.46,110.8,314.42Z" fill="#ebebeb"/>
              <path d="M110.92,314.38h-.08l0,0Z" fill="#ebebeb"/>
              <path d="M105.2,315.07h0C105.13,315,105.15,315,105.2,315.07Z" fill="#ebebeb"/>
              <polygon points="116.94 318.46 116.92 318.46 116.92 318.47 116.94 318.46" fill="#ebebeb"/>
              <path d="M117.06,318.77c-.23-.14-.19-.2-.14-.3l-.55.09.35.1Z" fill="#ebebeb"/>
              <path d="M107.73,321.72l.07.26c-.37.08-.47-.13-.45.2.19-.23.37-.12.54,0s.38.2.55-.05l0,.17s0,0-.09,0c.1.38.38-.26.64,0,.08.09.13.2,0,.23l.3,0c.07,0,0,.14,0,.09a2.48,2.48,0,0,0,.39.1v0a2,2,0,0,1,.33-.21c.07.11-.07,0-.07.12l.25-.08c0,.18-.17.27-.31.21,0,.62.21-.08.57.35l-.23,0c.06.36.26.27.49.52-.06-.12-.41-.61-.13-.71,0,.05.15.09.29,0,0,.21.11.18.27.19l0,.28c.19-.07.19-.21.3-.34.19,0,.22.26.27.44.32.06-.22-.35.16-.4.26.13.44,0,.72-.22.19.08,0,.18.06.25l.13-.24s0,.07,0,.11,0-.27.15-.39c0-.32.5.35.66-.05.08.07,0,.17.07.28a1.52,1.52,0,0,0,.39-.64l.28.09c-.24-.14-.12-.44,0-.7l-.22-.17a1.38,1.38,0,0,0,.17-.25s.07.13.09.26a.25.25,0,0,1,0-.09c.13.05.17.21.17.39l-.17-.1a1.29,1.29,0,0,0,.1.53.24.24,0,0,1,.06-.11.19.19,0,0,0,0,.12s0-.05,0-.14l.21.24,0-.12.24,0,.26,0a2.72,2.72,0,0,0,.07-.71,2.34,2.34,0,0,1,.1-.66c.12.22.28.25.49.42-.29-.06-.18.38-.43.53a.12.12,0,0,1,.19.1l.1-.26a.82.82,0,0,0,.07-.27c.17.16.19,0,.35,0-.42-.2,0-.47-.06-.7.13.06.27.18.09.36.46-.06-.3-.54.06-.63,0,.05,0,.07,0,.12-.07-.17.14-.42.24-.31l0,.05c.19-.33.26-1.11-.14-1.17a2.69,2.69,0,0,1,.52.11,5.91,5.91,0,0,0-.61-.35,5.53,5.53,0,0,0-.63-.26c.32,0,1.07-.21,1.28.09a.33.33,0,0,0-.05-.38c0,.07-.45.17-.48.1.34-.24.18-.15.46-.46-.06.1-.57.07-.58-.05a3.62,3.62,0,0,1,.55-.05l-.28-.12-.27-.11c.1.06.41-.07.53-.18-.09.06,0-.29-.13-.36l-.07.16c0-.38-.77-.14-.85-.47.11,0,.63-.11.62-.31a5.74,5.74,0,0,1-1.55,0l.1-.11-.25-.1a4.52,4.52,0,0,1,1.68,0c0-.17.14-.1,0-.3.1-.12.24,0,.27.09l-.13-.51c-.25.15-.46-.21-.66-.07,0,0,.54.33.53.34-.26.14-.89.1-1-.19,0-.14.48-.22.56-.27-.11,0-.32-.19-.29-.25l.22,0c0-.23-.51,0-.41-.4,0-.07.16-.43,0-.33a4.57,4.57,0,0,1-1.25,1.07,6.32,6.32,0,0,1,.09-.64c.11-.28.6-.29.69-.52a.42.42,0,0,1-.23.06c0-.11.21-.15.06-.26-.23.19-.24-.28-.24.12-.18-.06-.09-.17-.26-.3a1,1,0,0,1-.72.36.45.45,0,0,0,.09-.2c-.27-.18-.33-.43-.64-.54,0-.08-.12-.22,0-.32-.06,0-.14.11-.24.08-.11-.33.24.05.19-.31-.08.15-.34.14-.5.23,0,.27.29.11.47.08a1.47,1.47,0,0,1-.78.75c-.24,0,0-.26-.1-.21-.43-.17-.44.56-.74.29-.12-.24,0-.48,0-.65.21-.08.3.15.43.16l-.16-.12c.07-.09.22-.13.28,0,0-.13-.25-.15-.48-.16a3.94,3.94,0,0,1-.7-.09c0,.1-.15.2-.08.28l.11-.05c.12.17-.16.3,0,.36-.11.17-.2.36-.38.34l-.13-.24c0,.07.17.1.19,0,0,.14-.4-.22-.34.14l.19.12c-.06.19-.06.45-.18.47.18.19,0-.05.23.18-.26-.31.28-.1,0-.42.23.3.2.05.4.34,0-.09-.08-.16,0-.13a.19.19,0,0,1,0-.08h0a.47.47,0,0,1-.09-.12c0-.21.2-.24.26-.36s0,.11,0,.19l.08-.17c0,.2.22.34,0,.45h.15c.09.12.2.16.27.08s.21-.21.12-.07l.27-.06v.05c.23.07.63-.21.7.23a.2.2,0,0,1,.27.08l-.07.16c.12,0,.14.28.27.17-.21.42.29.38.36.59l.17-.14a1,1,0,0,0,.38.24l.15-.12c.22,0,.12.39.24.59-.07,0-.09,0-.07-.1-.24.45.58.39.39.77.09,0,.09.09,0,.15h0v0a.83.83,0,0,0-.08.12l.08-.1a.53.53,0,0,0,.13.16l-.19.09v0c0,.09.12,0,.26-.06a.52.52,0,0,0,.15.06c-.31.15.17.16-.17.33.18,0,.2.33.58.31,0,0-.06,0-.07,0s-.08.18,0,.25l-.27.06.38.16a.36.36,0,0,1-.46.06c.33.26.11.2.42.45l-.17,0c0,.07.23.24.07.27s-.23.26-.32.47a2.29,2.29,0,0,1-.16.31.64.64,0,0,1-.29.18c.44.26-.27,0,0,.26-.11-.07-.19-.09-.22-.2-.07.2-.29,0-.21.36-.09-.09-.07-.16-.13-.21s0,.11,0,.06,0-.1,0-.16c-.14.1,0,.44.17.76-.18-.09-.2,0-.2.2-.09-.09-.21-.17-.08-.26-.09,0-.55,0-.47.29,0-.06-.13,0-.14.06a1.29,1.29,0,0,0-.4.08l.06,0c0,.35-.15.11-.3.19v0c-.39-.19-.15.14-.53-.1l0,.21c0,.46-.34-.24-.53-.09l.07.13c-.13.15-.29-.63-.37-.69s0-.07.07-.09c-.23-.3-.06.27-.27.3,0-.15.1-.36,0-.41s-.48.42-.58.07c0,.12,0,.25-.11.3s-.23-.52-.48-.25a.16.16,0,0,1,0-.1c-.14,0-.41,0-.56.13.12-.35-.07-.36-.26-.37s-.39,0-.18-.29l-.31-.19,0-.05c-.14-.18-.3-.12-.47-.06,0-.07.06-.09.09-.11-.15-.33-.17-.33-.62-.34l.15-.16c-.17,0,0-.59-.4-.72a.15.15,0,0,1,.1,0c-.2-.1-.17-.37-.18-.57s0-.35-.43-.27l-.28-.17c.07.34-.35.07-.42.25-.1-.12.12-.42.2-.27l0,0c.41-.08,0-.45.3-.52a2.67,2.67,0,0,1-.08-.93c0-.32,0-.64.07-.94l-.33.08,0-.22c.08-.06.26-.07.24.08.19-.08-.15-.25-.22-.26.13-.3.38.12.38,0l0-.12,0,0c-.12-.1-.28-.13-.24-.3s.2,0,.22-.08,0,0,0-.07l0-.25-.27.07c-.11-.13,0-.24-.25-.16.44-.12.36-.91.55-1-.14-.21,0-.35.06-.5-.07,0-.34-.1-.22-.24.46.35.39-.12.79.05-.13-.05-.09-.15,0-.24s.08-.19-.13-.27c.13-.06.17.15.33.18,0-.19.18-.26.36-.31s.37-.05.5-.17-.13-.15-.1-.3l.33.29c.06-.05-.07-.44.14-.23,0-.05-.09-.14,0-.18A4,4,0,0,0,110,311a1.38,1.38,0,0,1,1.26.37c-.1-.16,0-.17.07-.17s0-.19,0-.29l.17.16.16.17c.11-.28.39,0,.48-.23l-.13,0c.22-.3-.1-.75,0-1.17-.23.34-.44-.62-.82-.11-.07-.09.07-.13,0-.23-.1.17-.19.2-.37.1l0,0c-.52,0-.73-.17-1.36-.22l.06.2c-.13,0-.16-.08-.23-.12-.11.33.36,0,.27.34-.22-.43-.89.13-1.12-.31-.2.06.12.22-.08.28l-.09-.11v.18a.34.34,0,0,1-.3-.22s.08-.06.12-.08c-.24-.1-.49.21-.57.21l.23,0c-.49.35-1.26.6-1.48,1.25l.11,0c-.18.42-.31.19-.54.62v0a.49.49,0,0,1-.06.36c0-.16-.3.09-.34-.11,0,.52,0,.29.24.7h-.17c.1.15.17.18.14.4-.07-.22-.28.05-.39-.2-.51.37.18.76-.39.87.41.28.33-.35.41-.22.16-.06.29.24.22.36s-.6.15-.64.53c0,0,0,0,0-.08-.12.13.12.29-.06.44.27.11,0,.22.33.25l-.08-.33c.09.2.5.37.3.67a.51.51,0,0,1-.21-.18c-.11.09.07.17,0,.27-.35,0-.08-.4-.34-.61-.15.1.25.39-.13.29.49.14-.07.37.32.6h-.21s.14.11.14.18l-.28-.11c.25.18-.17.4,0,.59,0-.41.24-.12.38-.3.32.45-.53.33-.33.91,0-.08.07-.32.19-.21a.74.74,0,0,1-.17.37c.11.37.2-.11.35,0-.23.18.14.16.26.3l-.2.05c0,.46.45,0,.4.4l-.32-.06.12.17-.24,0c.24.16.23.23.24.47a.29.29,0,0,1,.45.05c-.07.17-.22,0-.09.25-.14,0-.32,0-.18-.19a1.62,1.62,0,0,1-.22,0c-.08.19.1.36.16.44a.25.25,0,0,1,0-.12l.45.22c0,.09-.12.08-.2.07s.17.06.24.16c-.16.05-.31.15-.47,0l.35.25c-.05.06-.06.28-.14.27,0,.24.56.27.64.57a.19.19,0,0,1,.14,0c.14.22.12.57.54.63l-.09.35c.23.12.09-.45.47-.26s-.09.28-.08.41c.23,0,.62-.12.68.25C107.85,321.83,107.82,321.75,107.73,321.72Zm2.85,1.14c-.06,0-.21.15-.23,0S110.49,322.77,110.58,322.86Zm4.27-1.18c0,.08-.08.08-.18.05A.17.17,0,0,1,114.85,321.68Zm-3.48-7.48h0C111.45,314.27,111.43,314.24,111.37,314.2Zm-.18-.1a.1.1,0,0,0,0,.09c0-.05,0-.06.09,0S111.24,314.06,111.19,314.1Zm-4.54.31-.05,0C106.54,314.35,106.6,314.38,106.65,314.41Z" fill="#ebebeb"/>
              <path d="M114.52,322.19a.36.36,0,0,1-.07-.1S114.46,322.17,114.52,322.19Z" fill="#ebebeb"/>
              <path d="M106.29,320.44Z" fill="#ebebeb"/>
              <path d="M115,313.93a.21.21,0,0,1,0,.16S115.09,314,115,313.93Z" fill="#ebebeb"/>
              <path d="M110.49,314.61l.05-.08s-.06,0-.1,0S110.51,314.6,110.49,314.61Z" fill="#ebebeb"/>
              <path d="M108.92,314.21s0,0,0,.07l.08.06C109,314.27,109,314.16,108.92,314.21Z" fill="#ebebeb"/>
              <path d="M110.1,314c-.09-.15-.15-.08-.2,0h0C110,314.23,110.05,314.11,110.1,314Z" fill="#ebebeb"/>
              <path d="M109.89,314a.06.06,0,0,1-.06.05C109.88,314.17,109.87,314.08,109.89,314Z" fill="#ebebeb"/>
              <path d="M111,314.23s0,.23,0,.16C111,314.63,111.15,314.07,111,314.23Z" fill="#ebebeb"/>
              <polygon points="109.75 313.52 109.89 313.7 109.85 313.52 109.75 313.52" fill="#ebebeb"/>
              <path d="M110.56,313.4l-.17,0a.07.07,0,0,1,0,.08C110.47,313.44,110.58,313.47,110.56,313.4Z" fill="#ebebeb"/>
              <path d="M110.37,313.45a.12.12,0,0,0-.11.08A.59.59,0,0,0,110.37,313.45Z" fill="#ebebeb"/>
              <polygon points="109.93 313.37 110 313.39 110.11 313.36 109.93 313.37" fill="#ebebeb"/>
              <path d="M112.28,313.5l.19,0c0-.07,0-.12-.08-.11S112.27,313.42,112.28,313.5Z" fill="#ebebeb"/>
              <path d="M111.82,312.78a.4.4,0,0,1,.07.19l0-.27Z" fill="#ebebeb"/>
              <path d="M112.4,312.84c0-.07.34-.15.08-.19C112.44,312.72,112.23,312.74,112.4,312.84Z" fill="#ebebeb"/>
              <polygon points="114.69 314.66 114.65 314.63 114.32 314.92 114.69 314.66" fill="#ebebeb"/>
              <path d="M116.89,316.5c0-.28-.28,0-.22-.23-.12,0,0,.21-.15.19C116.67,316.56,116.64,316.66,116.89,316.5Z" fill="#ebebeb"/>
              <path d="M116.52,316.46a.26.26,0,0,0-.09,0Z" fill="#ebebeb"/>
              <polygon points="111.92 311.52 112.03 311.63 111.97 311.47 111.92 311.52" fill="#ebebeb"/>
              <path d="M112.22,311.23l0,.28.12-.24S112.23,311.29,112.22,311.23Z" fill="#ebebeb"/>
              <path d="M111,323.51l0-.07c0-.08-.06-.09-.14-.11Z" fill="#ebebeb"/>
              <polygon points="108.75 322.62 108.78 322.64 108.83 322.38 108.75 322.62" fill="#ebebeb"/>
              <path d="M106.92,321.77c0,.06.16.09.22.14C107,321.84,107.12,321.51,106.92,321.77Z" fill="#ebebeb"/>
            </g>
            <path d="M94.65,357.26a78,78,0,0,0,8.8.16c1,0,2.28-7.43,3.31-7.48.81,0,1.4,7.24,2.2,7.24,20.48,0,30.7.3,29-8.31-.26-1.28-.65-3.93-1.06-7.52-10.2,3.75-32.53,4-43,2C93.31,351.51,93.41,357.21,94.65,357.26Z" fill="#3c2415"/>
            <path d="M125.29,343.54a19.92,19.92,0,0,1-4.44-.77h0v0h0v0h0a.09.09,0,0,1,0,.05h0V343h0a2.79,2.79,0,0,0,0,.29c-3.82-2.09-8.06-1.57-10,.35.4,1.19,1.46,3.65,3.54,3.75,2.74.13,2.82-2.88,2.82-2.88s.74,2.11,2.63,2.24c1,.06,1.39-.7,1.6-1.46a2.41,2.41,0,0,0,1.06.85,3.25,3.25,0,0,0,.83.21C126.23,346.74,125.29,343.54,125.29,343.54Z" fill="#ebebeb"/>
          </g>
          <path d="M111,147.64c.76,15.84-19.18,51.82-41.36,42.69S40,151.19,42,141.59c-7.27-2.42-11.38-1.12-11.38-1.12s-.17,62.08,40.28,65.61,52.49-38.93,52.49-38.93Z" fill="url(#linear-gradient-2)"/>
          <path d="M123.36,167.15,111,147.64c.18,3.71-.79,8.54-2.65,13.62-.17.47-.35.93-.53,1.4q-.47,1.18-1,2.37l-.42.94c-.17.36-.34.73-.52,1.09-.09.19-.18.38-.28.57-.2.41-.41.83-.63,1.24s-.4.76-.61,1.14l-.68,1.21c-.62,1.08-1.28,2.16-2,3.21l-.33.49c-.47.7-1,1.39-1.45,2.06-.11.15-.21.3-.32.44-.56.75-1.13,1.48-1.72,2.2l-.8.94-.51.57-.85.93-.42.44c-.43.45-.87.88-1.31,1.3l-.27.24c-.36.34-.72.67-1.09,1l-.48.4c-.31.25-.61.51-.92.75l-.54.41c-.3.23-.6.45-.91.66l-.55.38-1,.61-.54.33c-.35.2-.7.4-1.06.59l-.44.23a24,24,0,0,1-3.11,1.32l-.43.13c-.39.12-.77.24-1.16.34l-.55.13c-.35.08-.71.15-1.07.21l-.59.09c-.35,0-.71.08-1.07.11a17.87,17.87,0,0,1-2.43,0l0,.31h.55c.34.47.06.63.68.64-.48,0-.48.61-.4,1.24s.25,1.23.12,1.38a1.61,1.61,0,0,1,.43.63,1.56,1.56,0,0,1,0,.54c.11-.11.72-.23.66.12-1.27,0-.51.67-1.4,1,.59-.29.21.94,1,.5-.08.29-.47.05-.76.28.53.64-.2,1.48,0,2.29.17,0,.43-.14.67,0l-.83.45c.08.16,1,.13.38.44.14,0,.36-.11.41,0a4.22,4.22,0,0,0-.16,2.46,2.51,2.51,0,0,1-.66,2.2c.69,0,1.38-.05,2.06-.09h0l.31,0,1.07-.08h0C113.18,203.05,123.36,167.15,123.36,167.15Z" fill="#ebebeb" style="mix-blend-mode: multiply"/>
          <path d="M157.52,66.8c-2.32-17.27-8.43-29.22-15.18-37.42.54-2,1.28-6.16-1.38-8.13S136,21,135.1,22l-.34-.28a5,5,0,0,0-1.66-4.49c-1.65-1.27-2.9-.16-3.52.67l-.15-.09a14.92,14.92,0,0,0,.5-4.58,6.46,6.46,0,0,0-1.63-4.2A5.5,5.5,0,0,0,123,7.61a7.93,7.93,0,0,0-1.23.46,13,13,0,0,0-4.23,3.44c-1.29-2.42-3.84-6.8-5.63-6.8-6,0-3.42,6.51-4.91,6.51-1.14-3.65-15.54-9-16-2.74-.23,3.2,3.11,4,3.11,4s-14.26,5.07-18.7,12.68S59.38,47.73,50.1,48C36.8,48.26.68,48.26,0,61.57s6,14.9,6,14.9,5.39,45,45.63,37.7,42.46-7.6,42.46-7.6,15.3,26.51,12.36,42.77c-3.65,20.12-28.84,85.23-26.46,102.34S104.76,313,151.81,313s75.57-25.19,75.57-94.58S163.69,112.9,157.52,66.8Z" fill="url(#linear-gradient-3)"/>
          <path d="M250.86,160.66c-2.28-3.53-4.74-46.5,1.57-37.31,0-11.72,9.64-18.39,11.44-4.76,5.91-4.44,11.22,2.84,7,13.25,3.18-1.18,5.95,4,2,10.37s-6.13,6.18-6.13,6.18,4.22.17,3.17,3S257.25,170.54,250.86,160.66Z" fill="#3c2415"/>
          <path d="M207.14,291.83c21.67-21.14,53-59.16,53-130.45,0-5.21-7.74-5.14-7.74,0,0,2.47-.49,63.05-32.49,95.69C203.78,282.1,207.14,291.83,207.14,291.83Z" fill="#ebebeb"/>
          <g>
            <path d="M102.88,38.67c-1,1.91-1.11,5.14-.81,7.29.81,5.83,8.14,8.48,13.47,8.21a10.32,10.32,0,0,0,9.22-5.84C130.59,35.66,109.75,25.92,102.88,38.67Z" fill="#fff"/>
            <path d="M4.31,63a10.38,10.38,0,0,0-.16,3.79,5.1,5.1,0,0,0,4.94,4.52c1.42,0,2.65-1,3.18-2.89C14.12,61.92,6.54,56.47,4.31,63Z" fill="#d5c2bf" style="mix-blend-mode: multiply"/>
            <path d="M27.33,67.34a15.52,15.52,0,0,0-3.51,4.55A7.73,7.73,0,0,0,26,81.81c1.79,1.21,4.19,1,6.46-.8C40.45,74.56,35.8,61.17,27.33,67.34Z" fill="#d5c2bf" style="mix-blend-mode: multiply"/>
            <path d="M109.83,41.63a2.84,2.84,0,0,0-.18,1.53c.18,1.23,1.72,1.78,2.84,1.73a2.18,2.18,0,0,0,1.94-1.23C115.66,41,111.27,38.94,109.83,41.63Z"/>
          </g>
          <g>
            <path d="M76.42,36.12c-1.31,1.71-2,4.88-2,7.05-.16,5.89,6.64,9.71,11.94,10.31a10.31,10.31,0,0,0,10-4.24C104.24,37.7,85.29,24.67,76.42,36.12Z" fill="#fff"/>
            <path d="M82.09,40a2.84,2.84,0,0,0-.17,1.53c.17,1.23,1.71,1.78,2.83,1.73A2.16,2.16,0,0,0,86.69,42C87.92,39.32,83.53,37.27,82.09,40Z"/>
          </g>
          <path d="M113.27,274.09c-1.88,3.54-4.21,14.23-3.51,24.56A67.44,67.44,0,0,0,151.81,313c14.89,0,27.91-2.52,38.77-8.16C206.51,262.16,136.65,230.69,113.27,274.09Z" fill="#ef9f9d"/>
          <path d="M217.69,273.53a3.58,3.58,0,0,1-.16-2.31,1,1,0,0,1-.06-.87.16.16,0,0,0,0,.09.86.86,0,0,0,0-.15c.06-.16.14-.33.19-.51a2,2,0,0,0-.2.43,4.1,4.1,0,0,0-.26-1.07l.43-.23a.94.94,0,0,1,0-.09c.12-.42-.25-.29-.57,0a2.09,2.09,0,0,0-.34-.5c.7-.42-.38-1,.31-1.57-.21-.1-.38-.59-.59-1.06s-.52-.9-.93-.92c.1,0,.12-.16.17,0a1.71,1.71,0,0,0-.34-1.24l.5-.34-1-.72c.17-.66.29-1,.89-.54-1.1-1.16-.63-1-1.68-1.93l.37-.09c-.18-.4-.92-.84-.74-1.2a2.1,2.1,0,0,0-.23-1.23,9.59,9.59,0,0,0-.87-1.72c-.7-1.25-1.71-2.55-2.44-3.76-.2.58-.33.27-.51-.11s-.41-.86-.74-.55c0-.3-.2-.66.32-.55a14.33,14.33,0,0,1-1.48-1.05,1.71,1.71,0,0,0-1.48-.37c-.07-.3.46-.23.38-.43-.15,0-.57,0-.67-.17s.3-.13.59-.14c-.81-.28-1.31-.23-1.64,0a1.91,1.91,0,0,0-.59,1,1,1,0,0,0-1.61.06c-.25-.24-.74-.5.21-.6l-.74-.05a9.46,9.46,0,0,0-1.1.14,2.17,2.17,0,0,0-.94.33c-.24.14-.36.29-.32.44-.21-.09-.69.21-.75.35a6.47,6.47,0,0,0-1.92,1.19l.29-.1c.05.42-.08.58-.32.71a2.11,2.11,0,0,0-.82.57l0-.08c-1.73,1-.44.71-2.08,1.73l.42.21c.32.38-.05.59-.54.86s-1.06.63-1.21,1.17l.43-.17c-.06.65-2,.6-2.39,1-.14.06,0-.24,0-.41-1.26.93.4.48-.06,1.48-.37,0-.55-.66-1-.07-.41.17-.24,2.36-1.29,2.88.32-.05.65-.1.54.43-.33.7-1.9,1.28-1.61,2.29a.26.26,0,0,1-.24,0c-.14.61-.73,1.82-.56,2.35-1.63-.37-1.3,3.53-2.53,2.75l-.89,1.59-.1-.12a2.26,2.26,0,0,0-.54,2c-.23.17-.24-.07-.3-.13a3.78,3.78,0,0,0-1.32,3.07l-.48-.13c0,.48-1.93,1.71-2.34,3.42a.34.34,0,0,1-.09-.27c-.53,1.88-3.49,3.14-2.37,4.63l-.28,1.28c.94-1.3.51.59,1.1.18-.24.59-1.29,1.12-1,.41l.14-.06c-.62-.7-1.31,1.55-1.81,1.19-.79,1.37-1.7,2.64-2.59,3.9L170,292l-.4.59a4,4,0,0,0-.29.7l-.39,1.06.76-.09-.37,1c-.23.21-.62.17-.36-.53-.5.24-.09,1.3,0,1.37-.73,1.3-.59-.81-.74-.39l-.15.6.12-.11c.12.57.39.7.08,1.54-.32.5-.5.15-.6.35-.05,0-.09,0-.13.32,0,0-.12.31-.23.62s-.23.62-.23.62l.68-.34c.08.64-.38,1.17.38.78-1.17.56-1.7,4.55-2.14,5a5,5,0,0,1-.41,2.58c.18-.2.82-.17.5.63-1.13-.66-1,1.34-2.05,1.75.75-.43-.5,2.37.59,1.68-.29.65-.47-.09-.9.35,0,.13,0,.25,0,.38,22.66-2.36,40.11-11.93,51-31.35.06-.26.12-.51.16-.76l.24,0,0-.09-.25-.1c.06-.36.13-.71.18-1.07a4.81,4.81,0,0,1,.62.13c.64-1.22,1.25-2.48,1.84-3.78v-.12s0,0,0,0c.11-.23.21-.47.32-.71A5.16,5.16,0,0,0,217.69,273.53Zm-49.88,24.68.18-.16C168,298.53,167.9,298.37,167.81,298.21Zm35.71-47.58.16-.14-.3.13h-.31a3.15,3.15,0,0,0-.49-.39l.67-.17a3.93,3.93,0,0,1,.69-.09c.15.13,0,.31-.26.53l.25-.11c.16.12.21.23.2.34A6,6,0,0,0,203.52,250.63Zm10.37,12c-.08-.25-.15-.49-.24-.73.59.25,1,.47,1,.47A2.17,2.17,0,0,0,213.89,262.67Zm1.6,11.06c0-.55,0-1.1,0-1.65a3.68,3.68,0,0,1,1.38,1.66l-.32.26.32,1C216.49,274.75,216,274.26,215.49,273.73Z" fill="#ebebeb" style="mix-blend-mode: multiply"/>
          <path d="M172,273.06c-.68-9.13-6.6-27.42-14.34-21.67-7.12,5.29-.37,21,1.61,25.16.25-.2.49-.41.75-.6C164.19,272.84,168.21,272.07,172,273.06Z" fill="#f2b2b1"/>
          <path d="M137.59,262.35c-6.24-6.27-22.09-15.94-24.15-6.86-1.89,8.35,12.93,15.6,17,17.42.06-.3.11-.6.18-.9C131.74,267.09,134.2,264,137.59,262.35Z" fill="#f2b2b1"/>
          <path d="M120.51,281.21c-7.85,4.07-21.85,16.27-13.81,21,7.4,4.32,18.77-7.62,21.74-11-.27-.14-.54-.28-.81-.44C123.27,288.22,121.07,284.94,120.51,281.21Z" fill="#f2b2b1"/>
          <path d="M153.47,296c-7.19,5.15-19.3,19.22-10.67,22.72,7.94,3.22,17.48-10.23,19.94-14-.29-.11-.57-.2-.86-.32C157.21,302.51,154.56,299.59,153.47,296Z" fill="#f2b2b1"/>
          <path d="M227.38,218.41a110.84,110.84,0,0,0-5.13-33.36c-12.3-5.85-27.62-12.8-40.3-4.36-14.78,9.83-27,30.92-17.42,47.34,5.8,9.94,25.4,44,41.07,39.29s13.66-5,17.62-8.82C226,247.2,227.38,233.91,227.38,218.41Z" fill="#3c2415"/>
          <g>
            <path d="M227.23,226.94c-40.41,23.16-47.4,58.6-47.4,58.6-.81,3.46-2.37,13.27-3.91,24.75-3,22.56-6,51.58-3,51.71a85,85,0,0,0,9.48.17c1.11,0,2.45-8,3.56-8.06.87,0,1.51,7.8,2.37,7.8,22.06,0,33.07.32,31.19-9-1.37-6.73-6-49.16-1.34-72.54C218.58,278.23,227.23,251.78,227.23,226.94Z" fill="#ebebeb"/>
            <g style="mix-blend-mode: multiply">
              <path d="M190.11,318.36s0-.18,0-.22S190.12,318.41,190.11,318.36Z" fill="#ebebeb"/>
              <polygon points="189.38 318.83 189.41 318.75 189.25 318.93 189.38 318.83" fill="#ebebeb"/>
              <path d="M188.8,318.55c-.09.15,0,.18,0,.2s.18,0,.21,0v.08l.15-.23a1.38,1.38,0,0,0-.25,0A.15.15,0,0,1,188.8,318.55Z" fill="#ebebeb"/>
              <path d="M189.21,317.91c-.11.07-.11,0,0,0l0,0S189.21,317.92,189.21,317.91Z" fill="#ebebeb"/>
              <path d="M189.22,317.93s.08-.08,0,0Z" fill="#ebebeb"/>
              <path d="M189.08,317.83h.12c.07,0,.08-.09.13-.1S189.19,317.75,189.08,317.83Z" fill="#ebebeb"/>
              <path d="M188.82,317.85l.06,0S188.92,317.84,188.82,317.85Z" fill="#ebebeb"/>
              <path d="M189,317.9l-.12,0s-.15.06.05,0C188.84,317.92,188.93,317.9,189,317.9Z" fill="#ebebeb"/>
              <path d="M189,318c0,.06-.05.12-.2.12C188.88,318.17,189.07,318,189,318Z" fill="#ebebeb"/>
              <path d="M188.54,318.79v.13l.13,0C188.6,318.9,188.6,318.7,188.54,318.79Z" fill="#ebebeb"/>
              <path d="M189.18,317.43a1.41,1.41,0,0,0-.28,0l.09.05A.26.26,0,0,1,189.18,317.43Z" fill="#ebebeb"/>
              <path d="M188.9,317.46l-.12-.09C188.74,317.46,188.82,317.47,188.9,317.46Z" fill="#ebebeb"/>
              <path d="M188.46,317.94l.29.07-.31-.1Z" fill="#ebebeb"/>
              <path d="M189.22,317.15l.16.07-.23-.12Z" fill="#ebebeb"/>
              <path d="M189.25,317c.13.08.23,0,.3.1a1,1,0,0,0-.18-.21C189.4,316.9,189.37,316.93,189.25,317Z" fill="#ebebeb"/>
              <path d="M189.27,316.71a.57.57,0,0,0,.1.13A.64.64,0,0,0,189.27,316.71Z" fill="#ebebeb"/>
              <path d="M188.83,317.21a.41.41,0,0,0,.21,0h-.2Z" fill="#ebebeb"/>
              <path d="M188.83,317.17h0a.28.28,0,0,0,0-.08S188.84,317.13,188.83,317.17Z" fill="#ebebeb"/>
              <path d="M188.83,317.22h0S188.8,317.21,188.83,317.22Z" fill="#ebebeb"/>
              <path d="M188.59,317.63c-.12,0-.26-.19-.42,0C188.31,317.64,188.41,317.56,188.59,317.63Z" fill="#ebebeb"/>
              <path d="M188.57,317.24l-.06.11a.43.43,0,0,1,.19,0Z" fill="#ebebeb"/>
              <polygon points="188.51 317.17 188.57 317.24 188.59 317.2 188.51 317.17" fill="#ebebeb"/>
              <path d="M189,316.77a.16.16,0,0,1,0-.17.26.26,0,0,0-.14.13C188.91,316.76,189,316.83,189,316.77Z" fill="#ebebeb"/>
              <path d="M188.9,317h0S188.87,317,188.9,317Z" fill="#ebebeb"/>
              <polygon points="189.31 316.16 189.27 316.14 189.3 316.17 189.31 316.16" fill="#ebebeb"/>
              <path d="M188.81,316.73c-.05,0,0,.08,0,.12a.24.24,0,0,1,0-.12S188.81,316.71,188.81,316.73Z" fill="#ebebeb"/>
              <path d="M189.25,316.55h-.13C189.19,316.56,189.29,316.58,189.25,316.55Z" fill="#ebebeb"/>
              <path d="M189,316.94h0S189,317,189,316.94Z" fill="#ebebeb"/>
              <path d="M189,316.94l-.11-.09a.2.2,0,0,0,.05.09Z" fill="#ebebeb"/>
              <path d="M188.61,315.05c.1.16.07.38-.17.37,0,.22.54.54.83.72a.31.31,0,0,1-.1-.28c-.11-.07-.35,0-.41-.17s.16-.06.29,0c-.22-.12,0-.4-.25-.66l-.09.21S188.68,315.05,188.61,315.05Z" fill="#ebebeb"/>
              <path d="M189.13,316.28v0a.66.66,0,0,1,.29.06.56.56,0,0,0-.11-.22l-.15.14Z" fill="#ebebeb"/>
              <path d="M189,316.48c-.16-.13-.18-.29-.4-.35-.06.15.1.19.13.31.07-.23.07.11.25,0a.27.27,0,0,1,0,.13l.13-.05h0l-.06,0c.06,0,0,0,.06,0l0,0h0a.89.89,0,0,1,0-.23C189.07,316.33,189,316.38,189,316.48Z" fill="#ebebeb"/>
              <path d="M187.72,317.47h0S187.72,317.43,187.72,317.47Z" fill="#ebebeb"/>
              <path d="M187.84,317.34s.1.05.09.11-.1,0-.17,0,.16.14.25,0l0,0a.62.62,0,0,1,.37-.21A1.59,1.59,0,0,0,187.84,317.34Z" fill="#ebebeb"/>
              <path d="M188.35,316.76l0-.24-.2.05.1,0C188.14,316.71,188.27,316.72,188.35,316.76Z" fill="#ebebeb"/>
              <path d="M189.39,316.22l.14.17a2.7,2.7,0,0,1-.15-.29A.53.53,0,0,0,189.39,316.22Z" fill="#ebebeb"/>
              <polygon points="189.53 316.08 189.64 316.23 189.61 316.11 189.53 316.08" fill="#ebebeb"/>
              <path d="M188.4,324.51h0Z" fill="#ebebeb"/>
              <path d="M189,324.78l.05-.08C189,324.74,189,324.77,189,324.78Z" fill="#ebebeb"/>
              <path d="M194.44,318.71c-.13.15-.36.33-.16.25l.18-.09A.14.14,0,0,1,194.44,318.71Z" fill="#ebebeb"/>
              <path d="M194,323.5l.06,0c0-.08,0-.15,0-.22A1.16,1.16,0,0,1,194,323.5Z" fill="#ebebeb"/>
              <path d="M194.3,324.32l-.21-.07A.52.52,0,0,0,194.3,324.32Z" fill="#ebebeb"/>
              <path d="M185.37,322.35l-.23,0C185.25,322.53,185.28,322.4,185.37,322.35Z" fill="#ebebeb"/>
              <path d="M192,315.8c.06.1.08.16.12.18C192,315.84,192,315.64,192,315.8Z" fill="#ebebeb"/>
              <path d="M189.49,322.59a.14.14,0,0,0-.1.1A.14.14,0,0,0,189.49,322.59Z" fill="#ebebeb"/>
              <path d="M192.24,316.05s0,0,0-.06a.15.15,0,0,1-.16,0C192.09,316.09,192.12,316.16,192.24,316.05Z" fill="#ebebeb"/>
              <path d="M187.45,310.59l0,0S187.46,310.58,187.45,310.59Z" fill="#ebebeb"/>
              <path d="M191,312.39h-.12A.17.17,0,0,0,191,312.39Z" fill="#ebebeb"/>
              <path d="M190.34,315.84c-.05,0,0,0,0,0Z" fill="#ebebeb"/>
              <path d="M189.88,315.09a.19.19,0,0,0,0-.1A.46.46,0,0,1,189.88,315.09Z" fill="#ebebeb"/>
              <path d="M193.43,315.26h0S193.44,315.23,193.43,315.26Z" fill="#ebebeb"/>
              <path d="M190.25,315.76l.07.05S190.29,315.78,190.25,315.76Z" fill="#ebebeb"/>
              <path d="M190.28,315.85h-.05S190.24,315.89,190.28,315.85Z" fill="#ebebeb"/>
              <path d="M190.4,315.81h-.08l0,0Z" fill="#ebebeb"/>
              <path d="M184.24,316.56l0,0C184.17,316.46,184.19,316.5,184.24,316.56Z" fill="#ebebeb"/>
              <polygon points="196.88 320.21 196.87 320.2 196.86 320.21 196.88 320.21" fill="#ebebeb"/>
              <path d="M197,320.54c-.25-.15-.21-.22-.16-.33l-.59.11.37.1Z" fill="#ebebeb"/>
              <path d="M187,323.71l.07.29c-.4.08-.51-.14-.49.21.21-.25.4-.13.59,0s.41.21.59-.06l.05.19s-.05,0-.09,0c.11.41.41-.28.69-.06.09.1.13.22,0,.26l.32,0a.06.06,0,1,1-.06.1l.42.11v0a2.09,2.09,0,0,1,.35-.23c.07.12-.07,0-.07.13l.27-.08c0,.18-.19.29-.34.22,0,.67.23-.09.62.38a2.13,2.13,0,0,1-.25,0c.06.4.28.29.52.57-.06-.13-.43-.66-.14-.77.07.06.16.1.32,0,0,.23.12.2.29.21l-.05.3c.21-.07.21-.23.33-.36.2,0,.24.27.29.47.35.06-.23-.38.17-.43.28.14.48,0,.78-.24.2.09,0,.19.06.27l.14-.26s0,.08,0,.12,0-.3.17-.42c0-.34.53.38.71-.05.09.06,0,.18.07.29a1.45,1.45,0,0,0,.42-.69l.31.1c-.26-.15-.13-.47-.05-.75l-.23-.18a1.59,1.59,0,0,0,.18-.27s.08.13.09.27c0,0,0-.06,0-.09s.18.23.18.42l-.18-.11a1.34,1.34,0,0,0,.1.58.25.25,0,0,1,.07-.12c0,.05,0,.1,0,.12s0-.05,0-.15l.23.26,0-.13.27,0,.28,0a3.2,3.2,0,0,0,.07-.77,2.7,2.7,0,0,1,.11-.71c.12.25.3.27.52.46-.3-.07-.18.4-.46.56a.14.14,0,0,1,.21.12s0-.15.11-.29a2.51,2.51,0,0,0,.08-.28c.17.16.2,0,.36,0-.44-.21,0-.5-.06-.75.15.06.29.19.1.39.49-.07-.32-.59.06-.68,0,.05,0,.07,0,.13-.07-.18.16-.45.26-.34l0,.06c.21-.36.28-1.2-.15-1.27a4.74,4.74,0,0,1,.56.12,6.17,6.17,0,0,0-.66-.37,5.12,5.12,0,0,0-.68-.29c.35,0,1.16-.21,1.38.1a.36.36,0,0,0,0-.4c-.05.07-.49.18-.53.1.37-.25.2-.16.5-.49-.07.1-.61.07-.63-.05s.53-.11.6-.06l-.3-.13-.3-.12c.11.06.45-.07.58-.19-.1.06-.05-.32-.14-.39l-.07.18c0-.42-.84-.16-.93-.51.12,0,.68-.13.67-.34a5.84,5.84,0,0,1-1.67,0l.11-.11-.27-.11a4.78,4.78,0,0,1,1.81,0c.06-.19.16-.11.05-.32.1-.14.25,0,.29.09l-.15-.55c-.27.16-.49-.22-.71-.07,0,0,.58.35.57.36-.27.15-.95.11-1.08-.21.07-.14.53-.23.62-.29-.13,0-.35-.2-.32-.26l.23,0c0-.25-.54-.05-.44-.43,0-.08.17-.46,0-.36a4.6,4.6,0,0,1-1.34,1.15,5.92,5.92,0,0,1,.1-.69c.12-.29.64-.31.74-.56a.43.43,0,0,1-.24.07c0-.11.22-.15.06-.27-.25.19-.26-.31-.26.12-.19-.07-.1-.18-.28-.32a1.09,1.09,0,0,1-.78.39.61.61,0,0,0,.1-.22c-.29-.19-.36-.47-.69-.59,0-.08-.13-.23,0-.34-.07,0-.15.12-.26.09-.12-.35.25.05.2-.33-.07.16-.36.15-.54.24,0,.29.32.12.52.09a1.6,1.6,0,0,1-.85.81c-.26,0-.05-.28-.1-.23-.47-.18-.48.6-.8.31-.13-.26,0-.51,0-.69.22-.09.32.16.46.17a2.09,2.09,0,0,0-.17-.14c.08-.09.23-.13.3,0-.05-.14-.27-.17-.52-.18a4.4,4.4,0,0,1-.75-.09c-.06.1-.16.21-.09.3l.12-.06c.13.19-.17.32,0,.39-.12.19-.22.39-.41.36l-.14-.25c0,.07.18.1.21,0,0,.14-.44-.24-.37.15l.2.13c-.06.2-.06.49-.2.51.21.2,0-.06.26.18-.28-.33.3-.1,0-.45.24.33.21.06.43.37,0-.09-.09-.17,0-.14a.25.25,0,0,1,0-.09h0s0,0,0,0a.43.43,0,0,1-.09-.13c0-.22.22-.25.28-.38.08,0,0,.11,0,.21l.09-.19c0,.21.23.36.06.48l.16,0c.09.12.21.17.29.08s.22-.22.13-.07l.29-.07v.05c.25.08.69-.22.77.25a.2.2,0,0,1,.28.09l-.07.17c.12,0,.15.3.29.19-.22.45.31.4.38.63l.19-.15a1.32,1.32,0,0,0,.4.26l.17-.13c.24,0,.13.42.26.64-.08,0-.09,0-.07-.11-.27.48.62.41.41.83.1,0,.1.09.06.16v0l-.08.13.09-.11a.5.5,0,0,0,.14.17l-.21.1,0,0c-.06.09.12,0,.27-.07a.44.44,0,0,0,.17.07c-.34.16.18.17-.19.35.2,0,.22.36.63.35-.05,0-.07,0-.08,0s-.08.19,0,.27l-.28.06.4.17a.38.38,0,0,1-.5.07c.36.28.13.21.46.48l-.19,0c0,.08.26.26.08.29s-.24.28-.34.51-.11.23-.17.34a.76.76,0,0,1-.32.19c.47.28-.29,0,0,.27-.11-.07-.2-.09-.24-.21-.07.22-.31,0-.23.39-.09-.1-.07-.18-.13-.23s0,.12-.05.07,0-.11,0-.17c-.14.1,0,.47.19.81-.2-.1-.21,0-.22.22-.1-.09-.22-.19-.08-.28-.1,0-.6,0-.52.31,0-.06-.13,0-.14.07a1.56,1.56,0,0,0-.44.08l.07,0c0,.37-.16.12-.32.2v0c-.42-.21-.16.15-.57-.11l0,.22c0,.5-.37-.25-.57-.09l.07.13c-.14.17-.31-.67-.4-.74s.05-.06.08-.1c-.24-.31-.06.3-.29.34,0-.17.1-.4,0-.45s-.51.45-.63.07c0,.14,0,.27-.11.33s-.25-.56-.52-.27a.16.16,0,0,1,0-.1c-.15,0-.44,0-.61.13.14-.38-.06-.39-.28-.39s-.41,0-.19-.32l-.33-.2.05-.05c-.14-.2-.32-.14-.51-.07,0-.08.08-.1.1-.12-.16-.35-.18-.36-.66-.37l.16-.17c-.18,0,0-.63-.44-.77a.21.21,0,0,1,.12,0c-.22-.1-.18-.4-.2-.61s0-.38-.47-.29l-.3-.18c.08.36-.37.07-.45.26-.11-.12.13-.45.22-.28l0,0c.44-.09,0-.49.32-.56a3.12,3.12,0,0,1-.09-1c0-.35.06-.69.08-1l-.35.09,0-.24c.08-.06.27-.08.26.08.19-.08-.17-.26-.24-.27.14-.32.4.13.41,0l0-.13,0,0c-.13-.11-.3-.13-.26-.32s.22,0,.24-.09,0,0,0-.07l.05-.27-.28.08c-.12-.14,0-.27-.28-.18.48-.13.39-1,.59-1a.44.44,0,0,1,.07-.55c-.07,0-.36-.09-.24-.25.5.38.42-.13.86.05-.15-.05-.1-.15-.06-.26s.09-.2-.14-.28c.15-.07.18.16.36.19,0-.2.19-.28.38-.33s.4-.06.55-.19c0-.08-.14-.16-.11-.32l.36.32c0-.07-.09-.48.14-.25,0-.07-.1-.16,0-.2a4.31,4.31,0,0,0,1.33-.14,1.48,1.48,0,0,1,1.36.4c-.1-.18,0-.18.08-.18-.06,0,0-.21,0-.32l.18.17.17.19c.12-.3.42,0,.51-.25l-.13,0c.23-.33-.11-.82,0-1.27-.25.37-.48-.67-.89-.12-.06-.1.08-.14.05-.25-.11.19-.21.22-.4.12l0,0a10.45,10.45,0,0,1-1.47-.23l.08.21c-.15,0-.18-.08-.26-.13-.11.35.4,0,.29.37-.23-.46-.95.14-1.2-.34-.23.07.13.23-.09.3l-.1-.12v.19c-.15,0-.27-.12-.32-.23s.09-.07.13-.09c-.25-.1-.53.24-.61.23l.25,0c-.53.37-1.37.65-1.59,1.34l.1.05c-.18.44-.33.2-.57.66v0a.61.61,0,0,1-.07.4c0-.18-.32.09-.36-.12-.05.55,0,.3.26.75h-.19c.11.16.19.2.15.43-.08-.23-.3.06-.42-.21-.55.4.2.81-.41.93.43.3.35-.38.43-.23.18-.07.32.25.24.38s-.65.17-.68.58c0,0,0-.05,0-.09-.13.14.13.31-.07.47.3.12,0,.24.36.28l-.08-.36c.09.21.53.39.32.71a.58.58,0,0,1-.23-.18c-.11.09.07.18,0,.28-.38,0-.08-.42-.37-.65-.16.11.27.42-.14.31.53.15-.08.4.35.64h-.23s.15.12.15.19l-.3-.12c.27.2-.18.44,0,.63,0-.43.26-.12.41-.32.34.49-.57.36-.36,1-.05-.08.08-.34.21-.22a.89.89,0,0,1-.19.39c.12.41.21-.11.38,0-.25.2.15.17.28.32l-.22.06c0,.49.49,0,.43.43l-.35-.08.14.19-.26,0a.47.47,0,0,1,.26.5c.13-.11.4-.13.48.05-.07.19-.23,0-.09.27-.15,0-.35,0-.2-.2a1.77,1.77,0,0,1-.23,0c-.09.21.11.38.17.48s0-.1,0-.13l.49.24c-.05.1-.14.08-.22.07s.18.06.26.17c-.18.06-.34.16-.51,0l.38.27c0,.06-.07.29-.16.28.05.26.61.29.69.61a.22.22,0,0,1,.15,0c.16.24.14.62.58.67l-.09.38c.25.13.1-.49.51-.27s-.1.29-.08.44c.24,0,.66-.13.72.26C187.09,323.83,187.06,323.75,187,323.71Zm3.07,1.23c-.07,0-.23.16-.25,0C189.92,324.72,189.94,324.85,190,324.94Zm4.6-1.27c0,.09-.09.09-.2.06A.21.21,0,0,1,194.64,323.67Zm-3.76-8.06h0C191,315.69,191,315.66,190.88,315.61Zm-.19-.1s0,.06,0,.1.05-.07.1-.05S190.75,315.46,190.69,315.51Zm-4.88.33-.07,0C185.69,315.77,185.75,315.81,185.81,315.84Z" fill="#ebebeb"/>
              <path d="M194.27,324.22a.36.36,0,0,1-.07-.1S194.21,324.2,194.27,324.22Z" fill="#ebebeb"/>
              <path d="M185.42,322.34h0l0,0Z" fill="#ebebeb"/>
              <path d="M194.84,315.33a.21.21,0,0,1,0,.16S194.89,315.41,194.84,315.33Z" fill="#ebebeb"/>
              <path d="M189.94,316.06,190,316s-.07,0-.11,0S190,316.05,189.94,316.06Z" fill="#ebebeb"/>
              <path d="M188.25,315.63s0,0,0,.08l.08.05C188.37,315.69,188.35,315.58,188.25,315.63Z" fill="#ebebeb"/>
              <path d="M189.51,315.42c-.09-.17-.15-.1-.2,0h0C189.44,315.65,189.46,315.52,189.51,315.42Z" fill="#ebebeb"/>
              <path d="M189.3,315.44a.18.18,0,0,1-.07.05C189.28,315.59,189.27,315.49,189.3,315.44Z" fill="#ebebeb"/>
              <path d="M190.47,315.65s0,.25,0,.17C190.44,316.08,190.64,315.48,190.47,315.65Z" fill="#ebebeb"/>
              <polygon points="189.14 314.89 189.29 315.08 189.26 314.88 189.14 314.89" fill="#ebebeb"/>
              <path d="M190,314.76l-.19,0a.09.09,0,0,1,0,.09C189.91,314.8,190,314.83,190,314.76Z" fill="#ebebeb"/>
              <path d="M189.81,314.81a.13.13,0,0,0-.12.09A.74.74,0,0,0,189.81,314.81Z" fill="#ebebeb"/>
              <polygon points="189.34 314.72 189.41 314.75 189.53 314.71 189.34 314.72" fill="#ebebeb"/>
              <path d="M191.86,314.86l.21,0c0-.07,0-.13-.08-.12S191.85,314.77,191.86,314.86Z" fill="#ebebeb"/>
              <path d="M191.38,314.09c.05.06,0,.11.06.2l.05-.29Z" fill="#ebebeb"/>
              <path d="M192,314.15c0-.08.36-.16.08-.2C192,314,191.82,314,192,314.15Z" fill="#ebebeb"/>
              <polygon points="194.46 316.11 194.42 316.08 194.06 316.39 194.46 316.11" fill="#ebebeb"/>
              <path d="M196.84,318.1c0-.31-.31,0-.24-.25-.13,0-.06.22-.17.19C196.6,318.16,196.56,318.27,196.84,318.1Z" fill="#ebebeb"/>
              <path d="M196.43,318l-.09-.05A.14.14,0,0,0,196.43,318Z" fill="#ebebeb"/>
              <polygon points="191.47 312.73 191.59 312.85 191.53 312.67 191.47 312.73" fill="#ebebeb"/>
              <path d="M191.8,312.41l0,.31.13-.26S191.81,312.49,191.8,312.41Z" fill="#ebebeb"/>
              <path d="M190.45,325.64l0-.07a.17.17,0,0,0-.15-.12Z" fill="#ebebeb"/>
              <polygon points="188.06 324.68 188.1 324.71 188.15 324.43 188.06 324.68" fill="#ebebeb"/>
              <path d="M186.09,323.77c.06.07.18.09.24.15C186.14,323.84,186.31,323.49,186.09,323.77Z" fill="#ebebeb"/>
            </g>
            <path d="M172.88,362a85,85,0,0,0,9.48.17c1.11,0,2.45-8,3.56-8.06.87,0,1.51,7.8,2.37,7.8,22.06,0,33.07.32,31.19-9-.28-1.37-.69-4.22-1.14-8.1-11,4-35,4.28-46.34,2.16C171.43,355.8,171.54,361.94,172.88,362Z" fill="#3c2415"/>
            <path d="M205.88,347.21a21.11,21.11,0,0,1-4.78-.82h0v.1s0,0,0,0a.11.11,0,0,0,0,.06h0v.07h0a2.82,2.82,0,0,0,0,.31c-4.1-2.25-8.67-1.69-10.76.37.43,1.29,1.57,3.94,3.81,4,2.95.15,3-3.09,3-3.09s.8,2.27,2.83,2.4c1,.07,1.51-.75,1.73-1.57a2.57,2.57,0,0,0,1.15.92,3.22,3.22,0,0,0,.89.23C206.89,350.66,205.88,347.21,205.88,347.21Z" fill="#ebebeb"/>
          </g>
          <path d="M210.49,164.54a22,22,0,0,0,1.2-4.11A261.63,261.63,0,0,0,194.16,133,16.67,16.67,0,0,0,178,137.46c-4.91,4.73-1.23,28.51,6.23,29.62C190.08,168,207.16,172.88,210.49,164.54Z" fill="#3c2415"/>
          <path d="M141.71,168.13c-1.24,16.2,26.33,28.56,31.94,13.91,1.08-2.81,2.21-16.74-3.34-21C161.07,154,142.48,158,141.71,168.13Z" fill="#3c2415"/>
          <path d="M41.86,142.18c2.22-3.14,7.8-7.81,5.86-10.13-1.5-1.8-5,.68-5,.68s3.26-15.44-.83-14.62-4.68,4-5.27,6.29c-.87-3.15-2.65-7.66-6-5.33s-3.48,20.39,0,21.4S41.86,142.18,41.86,142.18Z" fill="#3c2415"/>
          <path d="M173,142.32s-3.25-20-6.93-24.56c-8.16,3.35-16.65,35.64-17.43,50.47-.75,14.3,3.64,46.83,3.66,54.64-1.84,3.92-7,10.14-4.4,12.31,2,1.68,5.41-1.77,5.41-1.77s-.49,17.7,3.86,16,4.37-5.32,4.56-8c1.59,3.29,4.45,7.91,7.68,4.67,3.08-3.08.06-21.35-3.74-23.42C163.83,209.66,157.7,159.36,173,142.32Z" fill="#ebebeb" style="mix-blend-mode: multiply"/>
          <g>
            <path d="M144.14,221c1-6.11-.2-40.82,2.11-55.48S159,116.44,167.47,114c3.2,4.93,5.69,28.29,5.69,28.29C154.61,159,157.39,218,157.67,224Z" fill="url(#linear-gradient-4)"/>
            <path d="M144.26,220.17c-2.21,3.71-8,9.41-5.68,11.84,1.83,1.88,5.57-1.19,5.57-1.19s-2.32,17.55,2.18,16.28,4.9-4.83,5.36-7.48c1.24,3.44,3.62,8.33,7.16,5.44S161,222,157,221.12,144.26,220.17,144.26,220.17Z" fill="#3c2415"/>
          </g>
          <g>
            <path d="M133.47,329.24l.16-.1C133.52,329.17,133.44,329.2,133.47,329.24Z" fill="#eee"/>
            <path d="M127.14,323.92l-.43.2C127,324.32,127,324.07,127.14,323.92Z" fill="#eee"/>
            <path d="M104.49,310.69l0-.08C104.43,310.66,104.45,310.68,104.49,310.69Z" fill="#eee"/>
            <path d="M117.73,316.08s0,0,0-.06C117.48,316.09,117.56,316.1,117.73,316.08Z" fill="#eee"/>
            <path d="M127.21,323.88v0s0,0-.06.06Z" fill="#eee"/>
            <path d="M134.31,332l.14-.06c.1-.13.07-.2,0-.34Z" fill="#eee"/>
            <polygon points="131.96 328.46 132.26 327.97 131.92 328.39 131.96 328.46" fill="#eee"/>
            <path d="M128.72,326.34c.1.12.32.14.41.26C128.83,326.45,129.14,325.79,128.72,326.34Z" fill="#eee"/>
          </g>
        </g>
      </g>
    </g>
  </g>
</svg>
