<?xml version="1.0" encoding="iso-8859-1"?>
<!-- Generator: Adobe Illustrator 19.0.0, SVG Export Plug-In . SVG Version: 6.00 Build 0)  -->
<svg version="1.1" id="Layer_1" xmlns="http://www.w3.org/2000/svg" xmlns:xlink="http://www.w3.org/1999/xlink" x="0px" y="0px"
	 viewBox="0 0 512 512" style="enable-background:new 0 0 512 512;" xml:space="preserve">
<polygon style="fill:#083B25;" points="294.128,8.17 296.797,40.851 242.22,62.638 261.338,8.17 "/>
<polygon style="fill:#0B4E31;" points="261.338,8.17 264.007,40.851 239.605,73.532 215.203,40.851 217.872,8.17 "/>
<path style="fill:#10744A;" d="M307.287,169.428L296.797,40.851h-32.79l-32.681,202l86.615,260.978
	c17.985,0,32.692-14.706,32.692-32.681l0.011-223.319C350.644,214.789,333.323,185.812,307.287,169.428z"/>
<path style="fill:#169B62;" d="M276.044,188.383L264.007,40.851h-48.803l-10.491,128.577
	c-26.036,16.384-43.351,45.361-43.351,78.401l-0.005,223.319c0,17.974,14.706,32.681,32.681,32.681h123.904l0.044-32.779
	L276.044,188.383z"/>
<path style="fill:#0B4E31;" d="M317.985,471.051l-0.033-223.221c0-20.709-10.491-39.675-28.073-50.742l-13.835-8.704H257.22
	l28.084,282.668v0.109l32.648-0.011C317.908,471.149,317.963,471.084,317.985,471.051z"/>
<path style="fill:#10744A;" d="M285.304,471.051v0.109l-91.169,0.011c-0.022-0.011-0.065-0.044-0.087-0.044V247.83
	c0-20.709,10.491-39.675,28.073-50.742l13.835-8.704h21.264c17.571,11.068,28.051,30.034,28.051,50.732L285.304,471.051z"/>
<polygon style="fill:#FFE1AA;" points="350.638,247.83 350.638,413.413 317.957,413.413 285.277,330.621 317.957,247.83 "/>
<rect x="161.356" y="247.83" style="fill:#FFFFFF;" width="156.596" height="165.583"/>
<path d="M315.108,164.795L302.272,7.506C301.924,3.265,298.382,0,294.128,0h-76.255c-4.255,0-7.797,3.265-8.143,7.506
	l-12.837,157.29c-27.441,18.852-43.701,49.59-43.701,83.034v223.319c0,22.526,18.325,40.851,40.851,40.851h123.915
	c22.526,0,40.851-18.325,40.851-40.851V247.83C358.809,214.385,342.549,183.647,315.108,164.795z M317.986,405.243
	c-0.021,0-148.454,0-148.454,0V256h172.936v149.243H317.986z M202.879,239.66c2.314-14.614,10.754-27.576,23.593-35.658
	l11.839-7.451h35.377l11.838,7.452c12.84,8.082,21.281,21.044,23.594,35.658H202.879V239.66z M286.597,16.34l1.333,16.34h-63.862
	l1.333-16.34H286.597z M209.064,176.344c2.177-1.37,3.582-3.686,3.79-6.25l9.882-121.073h66.528l9.881,121.073
	c0.209,2.564,1.613,4.879,3.791,6.25c22.422,14.114,36.66,37.372,39.142,63.316h-16.442c-2.418-20.284-13.772-38.387-31.406-49.486
	l-13.833-8.708c-1.303-0.82-2.812-1.256-4.352-1.256h-40.092c-1.54,0-3.049,0.435-4.352,1.256l-13.834,8.707
	c-17.635,11.101-28.988,29.204-31.406,49.488h-16.442C172.403,213.715,186.641,190.457,209.064,176.344z M317.957,495.66H194.043
	c-13.516,0-24.511-10.995-24.511-24.511v-49.566h140.275l0.004,41.397l-107.598,0.023v-16.909c0-4.512-3.658-8.17-8.17-8.17
	c-4.512,0-8.17,3.658-8.17,8.17v25.081c0,2.167,0.862,4.245,2.393,5.778s3.61,2.392,5.777,2.392
	c0.001,0,123.942-0.026,123.942-0.026c4.512-0.001,8.168-3.659,8.168-8.171l-0.005-49.565h16.321v49.566
	C342.468,484.665,331.472,495.66,317.957,495.66z"/>
<path d="M316.489,339.956l-27.23-29.709c-1.548-1.688-3.732-2.65-6.022-2.65c-2.29,0-4.475,0.961-6.023,2.648l-21.219,23.141
	l-21.209-23.139c-1.547-1.688-3.732-2.65-6.023-2.65c-2.291,0-4.475,0.961-6.023,2.65l-27.23,29.709
	c-3.049,3.326-2.824,8.495,0.502,11.543c3.327,3.05,8.494,2.824,11.543-0.502l21.207-23.138l21.208,23.138
	c1.547,1.688,3.732,2.65,6.022,2.65c2.291,0,4.475-0.961,6.023-2.648l21.22-23.141l21.208,23.139c1.611,1.758,3.815,2.65,6.025,2.65
	c1.973,0,3.95-0.709,5.518-2.147C319.313,348.451,319.538,343.282,316.489,339.956z"/>
<g>
</g>
<g>
</g>
<g>
</g>
<g>
</g>
<g>
</g>
<g>
</g>
<g>
</g>
<g>
</g>
<g>
</g>
<g>
</g>
<g>
</g>
<g>
</g>
<g>
</g>
<g>
</g>
<g>
</g>
</svg>
