<svg version="1.1"
	class="please-don-t--use"
	width="100%"
	height="100%"
	viewBox="0 0 297.496 297.496"
	style="enable-background:new 0 0 297.496 297.496;"
	xml:space="preserve">
<g>
	<g id="XMLID_36_">
		<g>
			<path class="svg-path" data-info="<div>Ovins</div>" style="fill:#AE9676;" d="M76.87,209.078v28.71c0,2.13-1.74,3.87-3.87,3.87h-5.37c-2.13,0-3.87-1.74-3.87-3.87v-31.23
				c1.9-0.51,3.76-1.14,5.57-1.9C71.73,206.338,74.25,207.808,76.87,209.078z"/>
			<path class="svg-path" data-info="<div>Ovins</div>" style="fill:#AE9676;" d="M183.23,212.788v25c0,2.13-1.73,3.87-3.86,3.87h-5.38c-2.13,0-3.86-1.74-3.86-3.87v-23.18
				C174.65,214.518,179.04,213.898,183.23,212.788z"/>
			<path class="svg-path" data-info="<div>Ovins</div>" style="fill:#AE9676;" d="M255.78,131.608l-7.03-37.51c10.95,2.4,21.75,11.38,27.84,24.57
				c9.05,19.62,4.31,41.18-10.58,48.05c-6.9,3.19-15.1,2.74-23.09-1.26c-0.23-0.11-0.46-0.25-0.69-0.38c3.2-2.26,6-5.09,8.28-8.42
				C255.56,149.278,257.43,140.388,255.78,131.608z M255.84,124.698c0,2.79,2.26,5.05,5.04,5.05c2.79,0,5.05-2.26,5.05-5.05
				c0-2.78-2.26-5.04-5.05-5.04h-0.01C258.09,119.658,255.84,121.918,255.84,124.698z"/>
			<path class="svg-path" data-info="<div>Ovins</div>" style="fill:#AE9676;" d="M235.96,135.318c0.66,3.49-0.09,7.02-2.09,9.95c-2,2.93-5.03,4.9-8.52,5.55
				c-1.69,0.32-3.68,0.31-7.6-0.07l12.75-44.59L235.96,135.318z"/>
			<path class="svg-path" data-info="<div>Ovins</div>" style="fill:#DBCEBD;" d="M214.94,87.218l-19.85,69.43c-0.81,2.84-0.33,5.89,1.3,8.35c1.51,2.27,3.86,3.81,6.52,4.31
				c-4.37,14.53-17.86,25.15-33.8,25.15c-10.11,0-19.76-4.36-26.46-11.96c-1.92-2.17-4.67-3.41-7.56-3.41
				c-2.9,0-5.65,1.24-7.56,3.41c-6.71,7.6-16.36,11.96-26.47,11.96c-8.82,0-17.26-3.27-23.77-9.2c-3.36-3.07-8.36-3.5-12.2-1.06
				c-3.84,2.44-8.28,3.73-12.83,3.73c-13.21,0-23.95-10.74-23.95-23.94c0-4.54,1.29-8.97,3.72-12.8c2.52-3.98,1.96-9.17-1.36-12.51
				c-6.62-6.66-10.26-15.49-10.26-24.87c0-19.45,15.83-35.28,35.28-35.28c7.03,0,13.82,2.06,19.63,5.96
				c2.59,1.73,5.84,2.17,8.8,1.19c2.96-0.99,5.29-3.29,6.33-6.23c4.95-14.12,18.33-23.61,33.29-23.61c14.97,0,28.35,9.49,33.3,23.61
				c1.03,2.94,3.37,5.24,6.33,6.23c2.96,0.98,6.21,0.54,8.8-1.19c5.81-3.9,12.6-5.96,19.62-5.96
				C200.65,78.528,208.73,81.818,214.94,87.218z"/>
			<path class="svg-path" data-info="<div>Ovins</div>" d="M291.24,111.908c12.78,27.7,4.49,58.86-18.47,69.46c-5.22,2.41-10.81,3.61-16.52,3.61c-6.79,0-13.77-1.7-20.54-5.09
				c-4.49-2.24-8.68-5.16-12.5-8.61c-2.82,12.64-9.98,23.66-19.81,31.43v35.08c0,13.25-10.78,24.03-24.03,24.03h-5.38
				c-13.25,0-24.03-10.78-24.03-24.03v-26.59c-5.33-1.97-10.36-4.74-14.87-8.25c-9.66,7.51-21.62,11.68-34.03,11.68
				c-1.35,0-2.69-0.05-4.03-0.15v23.31c0,13.25-10.78,24.03-24.03,24.03h-5.37c-13.25,0-24.03-10.78-24.03-24.03v-30.55
				c-20.19-4.04-35.45-21.89-35.45-43.25c0-5.78,1.13-11.46,3.3-16.74c-7.27-9.58-11.2-21.21-11.2-33.44
				c0-30.57,24.87-55.45,55.44-55.45c7.15,0,14.14,1.36,20.66,3.98c9.92-16.3,27.79-26.66,47.39-26.66
				c19.61,0,37.48,10.36,47.4,26.66c6.52-2.62,13.51-3.98,20.65-3.98c14.65,0,27.97,5.73,37.89,15.04c3.93,0.59,8.59,1.5,12.16,3.97
				C261.12,76.938,281.2,90.168,291.24,111.908z M266.01,166.718c14.89-6.87,19.63-28.43,10.58-48.05
				c-6.09-13.19-16.89-22.17-27.84-24.57l7.03,37.51c1.65,8.78-0.22,17.67-5.27,25.05c-2.28,3.33-5.08,6.16-8.28,8.42
				c0.23,0.13,0.46,0.27,0.69,0.38C250.91,169.458,259.11,169.908,266.01,166.718z M233.87,145.268c2-2.93,2.75-6.46,2.09-9.95
				l-5.46-29.16l-12.75,44.59c3.92,0.38,5.91,0.39,7.6,0.07C228.84,150.168,231.87,148.198,233.87,145.268z M195.09,156.648
				l19.85-69.43c-6.21-5.4-14.29-8.69-23.15-8.69c-7.02,0-13.81,2.06-19.62,5.96c-2.59,1.73-5.84,2.17-8.8,1.19
				c-2.96-0.99-5.3-3.29-6.33-6.23c-4.95-14.12-18.33-23.61-33.3-23.61c-14.96,0-28.34,9.49-33.29,23.61
				c-1.04,2.94-3.37,5.24-6.33,6.23c-2.96,0.98-6.21,0.54-8.8-1.19c-5.81-3.9-12.6-5.96-19.63-5.96
				c-19.45,0-35.28,15.83-35.28,35.28c0,9.38,3.64,18.21,10.26,24.87c3.32,3.34,3.88,8.53,1.36,12.51
				c-2.43,3.83-3.72,8.26-3.72,12.8c0,13.2,10.74,23.94,23.95,23.94c4.55,0,8.99-1.29,12.83-3.73c3.84-2.44,8.84-2.01,12.2,1.06
				c6.51,5.93,14.95,9.2,23.77,9.2c10.11,0,19.76-4.36,26.47-11.96c1.91-2.17,4.66-3.41,7.56-3.41c2.89,0,5.64,1.24,7.56,3.41
				c6.7,7.6,16.35,11.96,26.46,11.96c15.94,0,29.43-10.62,33.8-25.15c-2.66-0.5-5.01-2.04-6.52-4.31
				C194.76,162.538,194.28,159.488,195.09,156.648z M183.23,237.788v-25c-4.19,1.11-8.58,1.73-13.1,1.82v23.18
				c0,2.13,1.73,3.87,3.86,3.87h5.38C181.5,241.658,183.23,239.918,183.23,237.788z M76.87,237.788v-28.71
				c-2.62-1.27-5.14-2.74-7.54-4.42c-1.81,0.76-3.67,1.39-5.57,1.9v31.23c0,2.13,1.74,3.87,3.87,3.87H73
				C75.13,241.658,76.87,239.918,76.87,237.788z"/>
			<path class="svg-path" data-info="<div>Ovins</div>" d="M260.88,119.658c2.79,0,5.05,2.26,5.05,5.04c0,2.79-2.26,5.05-5.05,5.05c-2.78,0-5.04-2.26-5.04-5.05
				c0-2.78,2.25-5.04,5.03-5.04H260.88z"/>
		</g>
</svg>
