<?xml version="1.0" encoding="iso-8859-1"?>
<!-- Generator: Adobe Illustrator 18.0.0, SVG Export Plug-In . SVG Version: 6.00 Build 0)  -->
<!DOCTYPE svg PUBLIC "-//W3C//DTD SVG 1.1//EN" "http://www.w3.org/Graphics/SVG/1.1/DTD/svg11.dtd">
<svg version="1.1" id="Capa_1" xmlns="http://www.w3.org/2000/svg" xmlns:xlink="http://www.w3.org/1999/xlink" x="0px" y="0px"
	 viewBox="0 0 438.003 438.003" style="enable-background:new 0 0 438.003 438.003;" xml:space="preserve">
<g>
	<path d="M140.558,273.22c20.192,5.173,36.14,9.255,59.714,3.362c3.215-0.804,5.17-4.062,4.366-7.276
		c-0.804-3.216-4.065-5.17-7.276-4.366c-20.629,5.156-34.554,1.591-53.826-3.345c-2.611-0.669-5.291-1.354-8.067-2.042
		c1.454-7.077,3.545-13.951,6.454-20.334c49.224,11.014,79.24,9.048,107.808,2.505c3.229-0.74,5.249-3.958,4.509-7.188
		c-0.739-3.229-3.954-5.251-7.188-4.509c-26.277,6.019-53.992,7.905-98.928-1.735c9.765-13.994,24.319-22.424,43.313-25.031
		c51.86-7.119,80.674,16.639,108.541,39.612c20.617,16.998,40.091,33.053,66.722,33.885c3.356,0.123,6.081-2.498,6.185-5.81
		c0.104-3.313-2.498-6.081-5.81-6.185c-22.535-0.704-39.648-14.812-59.464-31.149c-28.47-23.472-60.74-50.079-117.805-42.242
		c-23.063,3.165-40.714,13.729-52.465,31.396c-0.582,0.875-1.14,1.766-1.686,2.664c-3.429-0.838-6.951-1.736-10.575-2.7
		c-3.113-0.828-6.174-1.546-9.186-2.157c1.517-2.525,3.089-4.979,4.73-7.339c13.683-19.679,31.777-33.635,53.781-41.481
		c3.121-1.113,4.749-4.546,3.636-7.667c-1.112-3.122-4.549-4.749-7.667-3.636c-28.688,10.23-51.375,30.004-67.153,58.159
		c-24.328-2.546-44.911,2.722-61.379,15.762C-1.73,268.873-0.064,344.832,0.029,348.049c0.093,3.254,2.76,5.826,5.994,5.826
		c0.057,0,0.114,0,0.172-0.002c3.312-0.094,5.92-2.854,5.829-6.165c-0.021-0.729-1.563-73.215,37.293-103.947
		c12.854-10.168,28.949-14.7,48.034-13.578c-3.109,6.767-5.862,13.948-8.261,21.52c-10.852-0.271-20.759,3.193-29.487,10.337
		c-29.489,24.137-35.439,82.778-35.679,85.263c-0.317,3.299,2.1,6.229,5.398,6.547c0.195,0.019,0.389,0.027,0.581,0.027
		c3.055,0,5.667-2.322,5.966-5.426c0.054-0.559,5.669-56.118,31.334-77.126c5.64-4.616,11.721-7.107,18.444-7.563
		c-0.46,1.814-0.905,3.646-1.327,5.5c-9.42,41.369-6.18,77.648-6.037,79.173c0.29,3.109,2.905,5.441,5.967,5.441
		c0.187,0,0.376-0.009,0.565-0.026c3.3-0.309,5.724-3.233,5.415-6.532c-0.033-0.354-3.208-35.875,5.791-75.391
		c0.567-2.489,1.176-4.932,1.814-7.344c8.998,1.131,16.87,2.566,23.981,4.106c-4.774,39.07,5.47,78.419,6.088,80.733
		c0.716,2.684,3.142,4.456,5.794,4.456c0.512,0,1.032-0.066,1.55-0.204c3.202-0.854,5.105-4.142,4.252-7.344
		c-0.142-0.532-9.965-38.224-5.891-74.874C135.989,272.051,138.302,272.642,140.558,273.22z M101.293,252.927
		c2.488-7.532,5.355-14.629,8.593-21.266c3.928,0.68,7.962,1.564,12.108,2.667c2.745,0.73,5.416,1.412,8.054,2.072
		c-2.774,6.526-4.817,13.412-6.285,20.431C117.044,255.389,109.661,254.035,101.293,252.927z"/>
	<path d="M437.832,291.376c-0.783-3.22-4.03-5.196-7.248-4.412c-67.592,16.439-118.781,0.953-165.419-16.322
		c-12.352-4.572-23.05-3.667-31.801,2.692c-7.069,5.137-12.503,13.712-16.257,25.571c-10.076-1.266-18.905,0.846-26.294,6.325
		c-17.745,13.157-19.93,41.038-20.014,42.219c-0.236,3.306,2.252,6.177,5.557,6.412c0.146,0.011,0.29,0.016,0.434,0.016
		c3.119,0,5.753-2.413,5.979-5.572c0.466-6.512,4.102-25.212,15.191-33.435c4.521-3.352,9.852-4.742,16.186-4.216
		c-0.473,2.407-0.898,4.903-1.267,7.506c-2.241,15.792-1.72,29.391-1.696,29.962c0.132,3.228,2.79,5.754,5.991,5.754
		c0.081,0,0.164-0.002,0.246-0.005c3.31-0.134,5.886-2.926,5.753-6.236c-0.291-7.275,0.11-21.219,2.742-34.581
		c7.854,2.016,15.792,4.423,24.094,6.945c32.144,9.768,65.379,19.866,102.765,9.803c3.2-0.861,5.096-4.154,4.234-7.354
		c-0.861-3.2-4.153-5.096-7.354-4.234c-34.066,9.171-65.631-0.421-96.156-9.696c-8.079-2.455-16.373-4.969-24.583-7.08
		c2.613-7.865,6.311-14.626,11.509-18.4c5.378-3.904,12.108-4.278,20.572-1.142c48.378,17.918,101.545,33.97,172.423,16.729
		C436.639,297.841,438.615,294.596,437.832,291.376z"/>
	<path d="M266.225,141.421c0.558,0.418,13.878,10.237,33.996,10.237c4.821,0,9.691-0.57,14.476-1.696
		c23.247-5.471,43.263-24.7,59.49-57.154c1.173-2.346,0.687-5.181-1.2-7.001s-4.736-2.205-7.039-0.95
		c-3.916,2.136-8.007,3.048-13.679,3.048c-3.688,0-7.667-0.374-12.274-0.806c-5.753-0.54-12.273-1.152-19.813-1.152
		c-6.145,0-12.088,0.403-18.169,1.232c-30.206,4.119-38.188,34.143-38.188,49.442C263.826,138.51,264.715,140.287,266.225,141.421z
		 M311.949,138.28c-3.885,0.914-7.831,1.378-11.728,1.378c-7.013,0-13.016-1.502-17.554-3.191
		c7.538-2.987,18.16-7.308,29.793-12.382l8.969,3.559c0.545,0.216,1.106,0.318,1.659,0.318c1.79,0,3.483-1.076,4.184-2.841
		c0.917-2.311-0.213-4.926-2.522-5.843l-0.797-0.316c10.154-4.628,20.543-9.654,29.933-14.733
		C341.488,123.2,327.433,134.637,311.949,138.28z M303.635,99.069c5.538-0.756,10.951-1.123,16.548-1.123
		c6.978,0,13.2,0.584,18.691,1.1c1.609,0.151,3.176,0.292,4.727,0.421c-14.575,7.512-30.987,14.818-44.768,20.635l3.902-10.668
		c0.854-2.334-0.347-4.918-2.681-5.772c-2.331-0.853-4.917,0.346-5.772,2.681l-6.748,18.446c-4.222,1.721-7.942,3.205-10.962,4.394
		C278.315,118.994,284.141,101.727,303.635,99.069z"/>
	<path d="M161.231,289.832c-6.969,2.869-11.935,7.829-14.757,14.743c-7.498,18.362,3.552,44.56,4.026,45.665
		c0.975,2.275,3.189,3.639,5.518,3.639c0.788,0,1.59-0.157,2.36-0.487c3.046-1.305,4.457-4.832,3.151-7.878
		c-2.679-6.252-8.611-24.979-3.946-36.402c1.586-3.883,4.273-6.56,8.216-8.184c3.064-1.262,4.525-4.769,3.264-7.832
		C167.801,290.029,164.291,288.572,161.231,289.832z"/>
	<path d="M246.705,329.38c-0.276-3.303-3.19-5.749-6.478-5.481c-3.303,0.275-5.757,3.176-5.481,6.478l1.5,17.999
		c0.262,3.133,2.885,5.502,5.973,5.502c0.167,0,0.336-0.007,0.505-0.021c3.303-0.275,5.757-3.176,5.481-6.478L246.705,329.38z"/>
</g>
<g>
</g>
<g>
</g>
<g>
</g>
<g>
</g>
<g>
</g>
<g>
</g>
<g>
</g>
<g>
</g>
<g>
</g>
<g>
</g>
<g>
</g>
<g>
</g>
<g>
</g>
<g>
</g>
<g>
</g>
</svg>
