<svg
   width="100%"
   height="150"
   viewBox="0 0 500.00001 500.00882"
   class="please-don-t--use"
   version="1.1"
>
  <g    
     id="layer1"
     transform="translate(-306.803,-539.83699)">
    <!-- <path
       d="m 306.803,1039.8458 500,0 0,-500.00881 -500,0 0,500.00881 z"
       style="fill:#295173;fill-opacity:1;fill-rule:nonzero;stroke:none"
       id="path290"
    /> -->
    <path
       d="m 484.44268,951.48066 144.73798,0 0,-2.41788 -144.73798,0 0,2.41788 z"
       style="fill:#ffffff;fill-opacity:1;fill-rule:nonzero;stroke:none"
       id="path292"
    />
    <path
       d="m 484.44268,630.61135 144.73798,0 0,-2.41823 -144.73798,0 0,2.41823 z"
       style="fill:#ffffff;fill-opacity:1;fill-rule:nonzero;stroke:none"
       id="path294"
    />
    <g
       id="g296"
       transform="matrix(8.6674641,0,0,-8.6674641,359.3166,806.70142)">
      <path
         d="m 0,0 0,8.524 2.342,0 0,-6.384 3.635,0 L 5.977,0 0,0 Z"
         style="fill:#99d420;fill-opacity:1;fill-rule:nonzero;stroke:none"
         id="path298"
      />
    </g>
    <g
       id="g300"
       transform="matrix(8.6674641,0,0,-8.6674641,393.61375,750.18248)">
      <path
         d="m 0,0 0,1.999 2.02,0 0,-3.613 -1.011,0 L 1.009,0 0,0 Z"
         style="fill:#f25c19;fill-opacity:1;fill-rule:nonzero;stroke:none"
         id="path302"
      />
    </g>
    <g
       id="g304"
       transform="matrix(8.6674641,0,0,-8.6674641,594.60268,806.68894)">
      <path
         d="m 0,0 -7.371,0 0,8.519 2.344,0 0,-6.379 2.685,0 0,6.379 L 0,8.519 0,0 Z"
         style="fill:#99d420;fill-opacity:1;fill-rule:nonzero;stroke:none"
         id="path306"
      />
    </g>
    <g
       id="g308"
       transform="matrix(8.6674641,0,0,-8.6674641,676.84824,773.61736)">
      <path
         d="m 0,0 -2.343,0 0,2.563 -2.684,0 0,-6.379 -2.343,0 0,8.519 7.37,0 L 0,0 Z"
         style="fill:#99d420;fill-opacity:1;fill-rule:nonzero;stroke:none"
         id="path310"
      />
    </g>
    <path
       d="m 492.55542,761.89742 -22.05869,0 0,-13.30455 22.05869,0 0,13.30455 z m -42.37523,-29.04467 0,73.83827 60.93227,0 0,-18.55739 -40.61573,0 0,-10.48763 40.61573,0 0,-44.79325 -60.93227,0 z"
       style="fill:#99d420;fill-opacity:1;fill-rule:nonzero;stroke:none"
       id="path312"
    />
    <path
       d="m 737.55863,761.89742 -22.04136,0 0,-13.30455 22.04136,0 0,13.30455 z m -42.34056,-29.04467 0,73.83827 60.88893,0 0,-18.55739 -40.58973,0 0,-10.48763 40.58973,0 0,-44.79325 -60.88893,0 z"
       style="fill:#99d420;fill-opacity:1;fill-rule:nonzero;stroke:none"
       id="path314"
    />
    <g
       transform="matrix(8.6674641,0,0,-8.6674641,-915.65613,1428.4776)"
       id="g316">
      <g
         id="g318"
         clip-path="url(#clipPath320)">
        <g
           id="g324"
           transform="translate(158.512,82.3134)">
          <path
             d="m 0,0 c 0,-0.533 -0.11,-0.602 -0.248,-0.602 l -0.165,0 0,1.107 0.151,0 C -0.113,0.505 0,0.447 0,0 M 0.544,-0.017 C 0.544,0.375 0.447,0.64 0.23,0.791 0.074,0.899 -0.097,0.91 -0.229,0.91 l -0.679,0 0,-1.921 0.698,0 c 0.26,0 0.414,0.085 0.535,0.231 0.174,0.206 0.219,0.465 0.219,0.763"
             style="fill:#99d420;fill-opacity:1;fill-rule:nonzero;stroke:none"
             id="path326"
          />
        </g>
        <g
           id="g328"
           transform="translate(161.3981,83.5244)">
          <path
             d="M 0,0 -0.638,-0.265 -0.789,-0.023 -0.188,0.31 0,0 Z m -1.013,-2.223 0,1.922 1.117,0 -0.035,-0.406 -0.587,0 0,-0.322 0.479,0 0,-0.392 -0.479,0 0,-0.392 0.658,0 0,-0.41 -1.153,0 z"
             style="fill:#99d420;fill-opacity:1;fill-rule:nonzero;stroke:none"
             id="path330"
          />
        </g>
        <g
           id="g332"
           transform="translate(163.6078,82.8179)">
          <path
             d="m 0,0 c 0.118,0 0.198,-0.031 0.198,-0.19 0,-0.21 -0.072,-0.252 -0.225,-0.252 l -0.145,0 0,0.442 L 0,0 Z m 0.736,-0.193 c 0,0.439 -0.287,0.599 -0.775,0.599 l -0.626,0 0,-1.922 0.493,0 0,0.683 0.155,0 c 0.629,0 0.753,0.356 0.753,0.64"
             style="fill:#99d420;fill-opacity:1;fill-rule:nonzero;stroke:none"
             id="path334"
          />
        </g>
        <g
           id="g336"
           transform="translate(166.1953,82.0516)">
          <path
             d="m 0,0 -0.248,0 0.076,0.314 c 0.034,0.13 0.047,0.235 0.053,0.306 L -0.083,0.35 0,0 Z m 0.733,-0.75 -0.582,1.921 -0.513,0 -0.617,-1.921 0.518,0 0.104,0.369 0.456,0 0.099,-0.369 0.535,0 z"
             style="fill:#99d420;fill-opacity:1;fill-rule:nonzero;stroke:none"
             id="path338"
          />
        </g>
        <g
           id="g340"
           transform="translate(168.782,82.8179)">
          <path
             d="m 0,0 c 0.155,0 0.23,-0.044 0.23,-0.182 0,-0.129 -0.059,-0.21 -0.227,-0.21 l -0.141,0 0,0.392 L 0,0 Z m 0.86,-1.517 c -0.063,0.144 -0.226,0.5 -0.289,0.629 -0.046,0.1 -0.127,0.188 -0.194,0.206 0.227,0.04 0.401,0.207 0.401,0.539 0,0.32 -0.182,0.548 -0.748,0.548 l -0.661,0 0,-1.922 0.493,0 0,0.762 c 0.108,0 0.152,-0.026 0.227,-0.224 l 0.2,-0.538 0.571,0 z"
             style="fill:#99d420;fill-opacity:1;fill-rule:nonzero;stroke:none"
             id="path342"
          />
        </g>
        <g
           id="g344"
           transform="translate(172.1316,82.8145)">
          <path
             d="m 0,0 -0.446,0 0,-1.513 -0.499,0 0,1.513 -0.446,0 0,0.409 1.449,0 L 0,0 Z"
             style="fill:#99d420;fill-opacity:1;fill-rule:nonzero;stroke:none"
             id="path346"
          />
        </g>
        <g
           id="g348"
           transform="translate(173.4338,81.3013)">
          <path
             d="m 0,0 0,1.922 1.116,0 -0.035,-0.405 -0.587,0 0,-0.323 0.479,0 0,-0.392 -0.479,0 0,-0.391 0.659,0 L 1.153,0 0,0 Z"
             style="fill:#99d420;fill-opacity:1;fill-rule:nonzero;stroke:none"
             id="path350"
          />
        </g>
        <g
           id="g352"
           transform="translate(177.4899,81.3013)">
          <path
             d="M 0,0 -0.047,0.775 C -0.055,0.896 -0.06,0.995 -0.06,1.16 l -0.004,0 C -0.086,0.998 -0.1,0.901 -0.13,0.799 L -0.364,0 -0.783,0 -0.987,0.778 C -1.014,0.885 -1.036,0.993 -1.05,1.163 l -0.004,0 c 0,-0.17 0,-0.275 -0.007,-0.397 L -1.101,0 l -0.495,0 0.187,1.922 0.604,0 0.187,-0.762 C -0.59,1.054 -0.57,0.951 -0.554,0.797 l 0.003,0 c 0.015,0.147 0.038,0.24 0.074,0.392 l 0.195,0.733 0.586,0 L 0.48,0 0,0 Z"
             style="fill:#99d420;fill-opacity:1;fill-rule:nonzero;stroke:none"
             id="path354"
          />
        </g>
        <g
           id="g356"
           transform="translate(179.392,81.3013)">
          <path
             d="m 0,0 0,1.922 1.116,0 -0.035,-0.405 -0.586,0 0,-0.323 0.479,0 0,-0.392 -0.479,0 0,-0.391 0.658,0 L 1.153,0 0,0 Z"
             style="fill:#99d420;fill-opacity:1;fill-rule:nonzero;stroke:none"
             id="path358"
          />
        </g>
        <g
           id="g360"
           transform="translate(182.8305,81.3013)">
          <path
             d="m 0,0 -0.339,0.668 c -0.05,0.098 -0.108,0.237 -0.149,0.361 0.011,-0.076 0.027,-0.251 0.027,-0.489 l 0,-0.54 -0.468,0 0,1.922 0.474,0 0.35,-0.659 C -0.05,1.16 0.007,1.026 0.055,0.896 0.041,1.009 0.039,1.199 0.039,1.326 l 0,0.596 0.468,0 L 0.507,0 0,0 Z"
             style="fill:#99d420;fill-opacity:1;fill-rule:nonzero;stroke:none"
             id="path362"
          />
        </g>
        <g
           id="g364"
           transform="translate(186.0133,82.8145)">
          <path
             d="m 0,0 -0.448,0 0,-1.513 -0.499,0 0,1.513 -0.445,0 0,0.409 1.449,0 L 0,0 Z"
             style="fill:#99d420;fill-opacity:1;fill-rule:nonzero;stroke:none"
             id="path366"
          />
        </g>
        <g
           id="g368"
           transform="translate(189.8749,82.3134)">
          <path
             d="m 0,0 c 0,-0.533 -0.11,-0.602 -0.247,-0.602 l -0.166,0 0,1.107 0.152,0 C -0.113,0.505 0,0.447 0,0 M 0.543,-0.017 C 0.543,0.375 0.447,0.64 0.229,0.791 0.074,0.899 -0.096,0.91 -0.228,0.91 l -0.678,0 0,-1.921 0.697,0 c 0.259,0 0.413,0.085 0.534,0.231 0.174,0.206 0.218,0.465 0.218,0.763"
             style="fill:#99d420;fill-opacity:1;fill-rule:nonzero;stroke:none"
             id="path370"
          />
        </g>
        <g
           id="g372"
           transform="translate(191.747,81.3013)">
          <path
             d="m 0,0 0,1.922 1.118,0 -0.037,-0.405 -0.587,0 0,-0.323 0.48,0 0,-0.392 -0.48,0 0,-0.391 0.659,0 L 1.153,0 0,0 Z"
             style="fill:#99d420;fill-opacity:1;fill-rule:nonzero;stroke:none"
             id="path374"
          />
        </g>
        <g
           id="g376"
           transform="translate(164.0883,69.476)">
          <path
             d="M 0,0 -0.058,0.127 -0.16,0.23 -0.259,0.269 -0.339,0.274 -0.434,0.269 -0.492,0.273 -0.583,0.277 -0.663,0.263 -0.808,0.227 -0.873,0.205 -0.941,0.173 -1.028,0.133 -1.101,0.096 -1.169,0.052 -1.232,-0.002 -1.287,-0.06 -1.338,-0.111 -1.45,-0.229 l -0.048,-0.064 -0.321,-0.536 -0.03,-0.085 -0.046,-0.095 -0.044,-0.107 -0.037,-0.08 -0.067,-0.145 -0.025,-0.077 -0.018,-0.081 -0.036,-0.112 -0.04,-0.099 -0.029,-0.085 -0.04,-0.1 -0.033,-0.124 -0.012,-0.055 -0.027,-0.096 -0.021,-0.07 -0.018,-0.08 -0.026,-0.078 -0.038,-0.15 -0.026,-0.078 -0.018,-0.081 -0.02,-0.101 -0.044,-0.178 -0.027,-0.097 -0.025,-0.077 -0.062,-0.272 -0.027,-0.116 -0.017,-0.062 -0.023,-0.089 -0.018,-0.081 -0.025,-0.077 -0.027,-0.097 -0.012,-0.054 -0.016,-0.08 -0.031,-0.093 -0.018,-0.093 -0.015,-0.068 -0.026,0.075 -0.017,0.07 -0.053,0.158 -0.018,0.071 -0.053,0.159 -0.026,0.114 -0.026,0.106 -0.028,0.078 -0.016,0.08 -0.019,0.07 -0.025,0.08 -0.018,0.079 -0.026,0.07 -0.027,0.079 -0.017,0.079 -0.044,0.15 -0.018,0.08 -0.026,0.069 -0.018,0.08 -0.026,0.071 -0.027,0.078 -0.035,0.158 -0.026,0.106 -0.088,0.308 -0.062,0.185 -0.017,0.079 -0.018,0.071 -0.018,0.078 -0.026,0.08 -0.018,0.07 -0.026,0.08 -0.027,0.07 -0.052,0.159 -0.018,0.069 -0.043,0.164 -0.033,0.106 -0.028,0.096 -0.029,0.107 -0.031,0.116 -0.01,0.053 -0.034,0.134 -0.062,0.185 -0.021,0.069 -0.01,0.021 -0.023,0.069 -0.07,0.052 -0.032,0.015 -0.031,0.019 -0.034,0.007 -0.07,0.021 -0.08,0.008 -0.087,0 L -4.658,0.292 -4.729,0.248 -4.79,0.187 -4.825,0.116 -4.876,-0.077 -4.89,-0.161 -4.934,-0.285 -4.996,-0.449 -5.018,-0.533 -5.045,-0.632 -5.054,-0.685 -5.08,-0.756 l -0.036,-0.157 -0.017,-0.07 -0.053,-0.16 -0.027,-0.07 -0.026,-0.079 -0.018,-0.071 -0.026,-0.078 -0.017,-0.08 -0.018,-0.07 -0.017,-0.079 -0.062,-0.185 -0.089,-0.308 -0.026,-0.106 -0.034,-0.157 -0.027,-0.08 -0.027,-0.07 -0.017,-0.08 -0.027,-0.07 -0.018,-0.079 -0.043,-0.149 -0.018,-0.08 -0.026,-0.079 -0.027,-0.071 -0.017,-0.079 -0.027,-0.079 -0.017,-0.07 -0.017,-0.079 -0.027,-0.08 -0.026,-0.105 -0.027,-0.115 -0.053,-0.158 -0.017,-0.07 -0.053,-0.158 -0.018,-0.071 -0.026,-0.079 -0.026,-0.114 -0.036,-0.124 -0.035,-0.096 -0.023,-0.077 0,0.001 -0.031,-0.075 -0.04,-0.073 -0.039,-0.065 -0.04,-0.073 -0.047,-0.063 -0.055,-0.062 -0.062,-0.052 -0.138,-0.065 -0.077,-0.039 -0.085,-0.066 -0.047,-0.117 0.012,-0.136 0.057,-0.135 0.098,-0.098 0.132,-0.06 0.108,0 0.081,0.01 0.077,0.023 0.065,0.017 0.083,0.03 0.071,0.048 c 0,0 0.276,0.067 0.457,0.549 l 0.006,0.005 0.062,0.212 0.017,0.079 0.027,0.08 0.026,0.07 0.035,0.079 0.053,0.237 0.027,0.08 0.026,0.07 0.027,0.079 0.052,0.238 0.106,0.317 0.018,0.07 0.017,0.079 0.052,0.158 0.018,0.071 0.027,0.079 0.017,0.088 0.019,0.079 0.026,0.07 0.052,0.159 0.043,0.17 0.034,0.129 0.035,0.124 0.049,0.155 0.036,0.191 0.053,0.146 0.032,0.186 0.02,0.079 0.019,0.072 0.022,0.085 0.018,0.053 0.026,0.097 0.053,0.158 0.01,0.039 0.014,-0.058 0.053,-0.158 0.027,-0.097 0.017,-0.053 0.026,-0.095 0.03,-0.142 0.054,-0.172 0.023,-0.124 0.042,-0.147 0.029,-0.148 0.018,-0.095 0.048,-0.171 0.028,-0.095 0.01,-0.078 0.035,-0.07 0.053,-0.159 0.026,-0.07 0.018,-0.08 0.018,-0.087 0.026,-0.08 0.017,-0.07 0.054,-0.158 0.017,-0.079 0.018,-0.071 0.105,-0.316 0.053,-0.238 0.026,-0.079 0.027,-0.07 0.026,-0.079 0.053,-0.238 0.035,-0.08 0.027,-0.07 0.026,-0.079 0.018,-0.08 0.061,-0.21 0.027,-0.097 0.026,-0.08 0.027,-0.069 0.026,-0.08 0.035,-0.079 0.035,-0.071 0.071,-0.088 0.114,-0.061 0.141,-0.035 0.149,0 0.132,0.035 0.064,0.057 0.009,0.008 0.015,0.014 0.003,0.016 0.002,0.009 0.031,0.102 0.048,0.222 0.054,0.292 0.035,0.147 0.004,0.08 0.027,0.093 0.014,0.071 0.01,0.088 0.026,0.077 0.035,0.164 0.027,0.076 0.013,0.075 0.076,0.231 0.018,0.081 0.051,0.154 0.021,0.069 0.027,0.077 0.016,0.082 0.014,0.074 0.037,0.163 0.05,0.154 0.021,0.07 0.019,0.081 0.025,0.077 0.014,0.073 0.025,0.077 0.018,0.082 0.021,0.07 0.036,0.162 0.014,0.074 0.051,0.155 0.013,0.074 0.077,0.23 0.03,0.085 0.033,0.073 0.026,0.076 0.032,0.105 0.036,0.112 0.025,0.076 0.034,0.093 0.034,0.072 0.036,0.061 0.033,0.072 0.243,0.408 0.057,0.058 0.063,0.055 0.058,0.047 0.063,0.054 0.067,0.042 0.074,0.038 0.076,0.026 0.151,0.012 0.088,0.009 0.101,0.033 0.087,0.091 0.037,0.132 L 0,0 Z"
             style="fill:#ffffff;fill-opacity:1;fill-rule:nonzero;stroke:none"
             id="path378"
          />
        </g>
        <g
           id="g380"
           transform="translate(150.0262,65.7585)">
          <path
             d="M 0,0 -0.044,-0.062 -0.15,-0.186 -0.274,-0.292 -0.336,-0.336 -0.416,-0.38 -0.469,-0.398 -0.557,-0.451 -0.61,-0.478 -0.69,-0.513 -0.778,-0.54 l -0.08,-0.026 -0.08,-0.009 -0.088,-0.018 -0.097,-0.009 -0.106,-0.017 -0.08,-0.009 -0.08,0 -0.159,0.018 -0.159,0.008 -0.079,0.009 -0.239,0.053 -0.062,0 -0.044,-0.035 -0.018,-0.062 0,-0.079 -0.009,-0.089 0,-0.15 0.009,-0.089 0.018,-0.07 0.053,-0.159 0.088,-0.142 0.053,-0.062 0.053,-0.053 0.142,-0.088 0.088,-0.027 0.08,-0.027 0.062,-0.008 0.079,-0.018 0.08,-0.009 0.088,0 0.08,0.009 0.23,0.044 0.079,0.018 0.08,0.026 0.071,0.027 0.15,0.062 0.142,0.071 0.123,0.097 0.062,0.044 0.062,0.053 0.124,0.115 0.106,0.124 0.044,0.062 0.053,0.07 0.089,0.124 0.044,0.071 0.035,0.071 0.045,0.071 0.035,0.07 0.044,0.062 0.035,0.071 0.036,0.08 0.035,0.07 0.045,0.071 0.061,0.044 0.08,0 0.08,-0.053 L 0.849,-0.212 0.84,-0.292 0.805,-0.372 0.76,-0.469 0.707,-0.566 0.663,-0.663 0.61,-0.761 0.557,-0.849 0.468,-0.991 0.442,-1.044 0.389,-1.123 0.301,-1.247 0.247,-1.309 0.194,-1.362 0.141,-1.424 0.079,-1.495 0.053,-1.53 l -0.062,-0.071 -0.053,-0.062 -0.124,-0.106 -0.088,-0.07 -0.08,-0.071 -0.141,-0.089 -0.221,-0.097 -0.071,-0.026 -0.08,-0.027 -0.115,-0.018 -0.106,-0.026 -0.185,-0.018 -0.116,-0.009 -0.097,-0.009 -0.079,0 -0.319,0.036 -0.07,0.017 -0.08,0.027 -0.08,0.035 -0.07,0.036 -0.142,0.079 -0.07,0.036 -0.063,0.053 -0.061,0.062 -0.036,0.044 -0.062,0.071 -0.053,0.061 -0.044,0.071 -0.035,0.062 -0.035,0.08 -0.027,0.07 -0.027,0.08 -0.017,0.08 -0.018,0.07 -0.018,0.08 -0.026,0.239 0,0.168 0.009,0.079 0,0.08 0.053,0.239 0.026,0.07 0.018,0.08 0.027,0.08 0.017,0.079 0.027,0.08 0.035,0.097 0.044,0.106 0.044,0.08 0.054,0.097 0.061,0.088 0.036,0.08 0.044,0.062 0.053,0.062 0.133,0.141 0.132,0.133 0.071,0.062 0.08,0.062 0.088,0.062 0.08,0.062 0.088,0.053 0.088,0.044 0.08,0.035 0.115,0.053 0.186,0.062 0.159,0.036 0.115,0.017 0.194,0 L -0.646,1.592 -0.504,1.565 -0.389,1.538 -0.31,1.512 -0.23,1.477 -0.159,1.441 -0.106,1.406 0.018,1.3 0.071,1.238 0.124,1.149 0.168,1.043 0.194,0.964 0.212,0.884 0.221,0.805 0.221,0.698 0.212,0.583 0.203,0.495 0.177,0.389 0.141,0.283 0.106,0.194 0.079,0.15 0.035,0.071 0,0 Z M -1.079,1.061 -1.203,1.008 -1.309,0.955 -1.38,0.911 -1.503,0.805 -1.583,0.725 -1.654,0.645 -1.715,0.575 -1.778,0.477 -1.839,0.389 -1.884,0.309 -1.937,0.212 -1.972,0.106 l -0.035,-0.08 -0.027,-0.07 -0.009,-0.062 0.045,-0.045 0.114,-0.026 0.177,-0.009 0.089,-0.009 0.247,0 0.089,0.018 0.079,0.018 0.089,0.035 0.053,0.018 0.088,0.044 0.062,0.044 0.062,0.053 0.062,0.062 0.062,0.053 0.053,0.071 0.044,0.062 0.036,0.071 0.044,0.079 0.053,0.159 0.017,0.089 0.009,0.079 -0.009,0.089 -0.035,0.079 -0.053,0.062 -0.071,0.053 -0.079,0.036 -0.08,0.017 -0.08,0.009 -0.088,-0.017 -0.115,-0.027 z"
             style="fill:#ffffff;fill-opacity:1;fill-rule:nonzero;stroke:none"
             id="path382"
          />
        </g>
        <g
           id="g384"
           transform="translate(152.502,66.7664)">
          <path
             d="M 0,0 -0.071,-0.036 -0.132,-0.071 -0.194,-0.115 -0.265,-0.168 -0.327,-0.221 -0.469,-0.318 -0.531,-0.362 -0.593,-0.416 -0.654,-0.478 -0.76,-0.601 -0.822,-0.663 -0.929,-0.787 -1.017,-0.928 -1.07,-0.999 -1.176,-1.212 -1.273,-1.503 -1.3,-1.618 -1.335,-1.751 -1.371,-1.866 -1.424,-2.105 -1.459,-2.22 l -0.035,-0.132 -0.027,-0.115 -0.026,-0.08 -0.027,-0.115 -0.018,-0.097 -0.026,-0.088 -0.009,-0.08 -0.018,-0.071 -0.026,-0.071 -0.053,-0.044 -0.08,-0.026 -0.079,-0.009 -0.115,-0.009 -0.133,0.009 -0.115,0.018 -0.071,0.035 -0.053,0.079 -0.009,0.098 0.018,0.088 0.027,0.115 0.026,0.106 0.018,0.08 0.026,0.08 0.018,0.079 0.027,0.071 0.026,0.079 0.018,0.08 0.017,0.071 0.018,0.079 0.027,0.08 0.026,0.071 0.036,0.159 0.017,0.07 0.009,0.08 0.027,0.08 0.017,0.079 0.027,0.08 0.026,0.106 0.036,0.115 0.044,0.159 0.018,0.071 0.017,0.08 0.027,0.079 0.018,0.08 0.026,0.07 0.018,0.08 0.026,0.08 0.027,0.114 0.026,0.107 0.018,0.079 0.053,0.159 0.018,0.071 0.026,0.08 0.036,0.159 0.062,0.088 0.114,0.062 0.142,0.018 L -1.035,0.548 -0.902,0.504 -0.814,0.416 -0.796,0.309 -0.814,0.221 -0.831,0.159 -0.858,0.08 -0.876,0 -0.902,-0.071 -0.92,-0.15 l -0.026,-0.08 -0.018,-0.079 -0.009,-0.053 0.009,-0.009 0.035,0.044 0.053,0.062 0.045,0.062 0.106,0.124 0.062,0.053 0.115,0.097 0.062,0.053 0.115,0.115 0.177,0.141 0.07,0.045 0.071,0.035 0.071,0.044 0.071,0.026 0.079,0.027 0.115,0.027 0.106,0.017 0.203,0 L 0.734,0.584 0.831,0.566 0.911,0.53 0.99,0.486 1.052,0.425 1.097,0.363 1.141,0.292 1.176,0.221 1.203,0.142 1.229,0.035 l 0.018,-0.106 0,-0.168 -0.009,-0.079 0,-0.08 L 1.229,-0.469 1.211,-0.548 1.194,-0.637 1.176,-0.69 1.15,-0.778 1.123,-0.893 1.088,-1.026 1.052,-1.141 1.026,-1.22 0.999,-1.335 0.964,-1.486 0.928,-1.627 0.893,-1.751 0.876,-1.83 0.858,-1.893 0.84,-1.972 0.814,-2.052 0.796,-2.122 0.743,-2.361 l -0.009,-0.08 0,-0.159 0.035,-0.07 0.062,-0.045 0.08,-0.009 0.079,0.027 0.08,0.035 0.071,0.045 0.062,0.044 0.07,0.053 0.115,0.115 0.045,0.062 0.053,0.07 0.044,0.062 0.062,0.071 0.044,0.062 0.053,0.08 0.08,0.132 0.053,0.08 0.026,0.044 0.053,0.08 0.045,0.079 0.07,0.142 0.036,0.079 0.026,0.071 0.027,0.079 0.044,0.071 0.079,0.053 0.115,-0.026 0.071,-0.089 0,-0.088 L 2.388,-1.371 2.352,-1.441 2.317,-1.521 2.281,-1.592 2.237,-1.662 2.202,-1.733 2.149,-1.813 2.122,-1.866 2.034,-2.025 2.016,-2.078 1.972,-2.158 1.884,-2.299 1.831,-2.379 1.795,-2.423 1.742,-2.494 1.68,-2.573 1.627,-2.635 1.53,-2.741 1.477,-2.803 1.353,-2.909 1.3,-2.962 1.229,-3.016 1.158,-3.06 1.017,-3.13 0.946,-3.157 0.867,-3.183 0.787,-3.201 0.716,-3.21 0.628,-3.219 l -0.08,0 -0.079,0.009 -0.071,0.018 -0.08,0.026 -0.07,0.027 -0.071,0.044 -0.053,0.044 -0.053,0.062 -0.036,0.08 -0.026,0.07 -0.018,0.08 -0.017,0.071 0,0.194 0.017,0.115 0.009,0.089 0.027,0.115 0.079,0.292 0.027,0.15 0.035,0.15 0.035,0.142 0.036,0.114 0.026,0.08 0.036,0.115 0.035,0.142 0.027,0.141 0.035,0.115 0.035,0.159 0.009,0.08 0.035,0.168 0.009,0.079 -0.017,0.089 -0.053,0.088 -0.08,0.08 L 0.256,0.035 0.177,0.044 0.097,0.035 0,0 Z"
             style="fill:#ffffff;fill-opacity:1;fill-rule:nonzero;stroke:none"
             id="path386"
          />
        </g>
        <g
           id="g388"
           transform="translate(164.8243,64.0517)">
          <path
             d="m 0,0 -0.124,-0.106 -0.141,-0.088 -0.071,-0.036 -0.142,-0.088 -0.07,-0.036 -0.16,-0.053 -0.088,-0.026 -0.159,-0.027 -0.053,-0.017 -0.089,-0.018 -0.07,-0.009 -0.08,0 -0.097,-0.009 -0.08,0 -0.159,0.018 -0.097,0.026 -0.08,0.027 -0.062,0.026 -0.079,0.027 -0.071,0.035 -0.142,0.089 -0.062,0.053 -0.106,0.123 -0.044,0.071 -0.035,0.071 -0.044,0.071 -0.054,0.159 -0.035,0.159 -0.018,0.159 -0.008,0.089 0.008,0.079 0,0.248 0.018,0.079 0.018,0.071 0.017,0.08 0.027,0.159 0.018,0.088 0.017,0.08 0.027,0.071 0.026,0.079 0.036,0.08 0.035,0.071 0.027,0.079 0.044,0.106 0.053,0.106 0.044,0.071 0.053,0.071 0.045,0.062 0.053,0.062 0.088,0.141 0.053,0.062 0.115,0.115 0.124,0.106 0.062,0.044 0.07,0.053 0.08,0.053 0.097,0.062 0.098,0.053 0.07,0.036 0.089,0.035 0.053,0.018 0.097,0.035 0.053,0.018 0.089,0.026 0.079,0.018 0.089,0.009 0.079,0.009 0.204,0 L -0.124,3.307 -0.009,3.289 0.071,3.272 0.15,3.245 0.221,3.21 0.38,3.113 0.477,3.06 0.539,3.006 0.583,2.953 0.637,2.892 0.69,2.821 0.796,2.626 0.822,2.547 0.831,2.467 0.84,2.396 0.875,2.237 0.875,1.928 0.858,1.822 0.849,1.724 0.84,1.636 0.787,1.371 0.751,1.247 0.725,1.158 0.69,1.07 0.654,0.973 0.628,0.893 0.575,0.796 0.495,0.637 0.451,0.539 0.46,0.477 0.53,0.469 0.583,0.469 0.681,0.477 0.743,0.486 0.822,0.504 0.911,0.539 0.972,0.575 1.114,0.663 1.176,0.716 1.291,0.831 1.397,0.955 1.441,1.017 1.485,1.088 1.53,1.149 1.6,1.291 1.68,1.441 1.706,1.494 1.76,1.574 1.839,1.618 1.945,1.6 2.016,1.521 2.025,1.424 1.998,1.344 1.892,1.132 1.848,1.07 1.76,0.928 1.724,0.858 1.68,0.796 1.627,0.725 1.583,0.663 1.53,0.61 1.415,0.486 1.362,0.433 1.3,0.38 1.238,0.336 1.167,0.283 1.105,0.248 0.964,0.177 0.884,0.142 0.813,0.124 0.495,0.088 0.398,0.097 0.318,0.106 0.247,0.124 0.177,0.132 0.115,0.106 0.053,0.062 0,0 Z M -1.751,0.964 -1.76,0.858 -1.751,0.769 -1.742,0.654 -1.725,0.513 -1.689,0.371 -1.627,0.239 -1.565,0.15 l 0.07,-0.062 0.098,-0.044 0.132,-0.035 0.115,0 0.089,0.009 0.088,0.017 0.08,0.036 0.07,0.035 0.08,0.044 0.071,0.044 0.062,0.054 0.07,0.053 0.036,0.061 0,0.053 -0.036,0.062 -0.044,0.071 -0.018,0.08 0.018,0.106 0.036,0.106 0.062,0.053 0.07,0.044 0.08,0.009 0.079,-0.018 0.062,-0.017 0.053,0.009 0.036,0.053 0.026,0.07 0.106,0.319 0.053,0.238 0.018,0.115 0.027,0.151 0.017,0.3 -0.009,0.142 -0.035,0.15 -0.053,0.133 -0.062,0.088 -0.071,0.053 -0.106,0.045 -0.132,0.026 -0.115,0.009 -0.089,0 L -0.602,2.794 -0.681,2.768 -0.769,2.715 -0.84,2.67 -0.92,2.617 -1.008,2.547 -1.07,2.494 -1.132,2.432 -1.176,2.37 -1.229,2.308 -1.274,2.237 -1.362,2.113 -1.406,2.043 -1.583,1.689 -1.61,1.609 -1.627,1.539 -1.68,1.38 -1.698,1.309 l -0.027,-0.08 -0.008,-0.08 0,-0.079 -0.018,-0.106 z"
             style="fill:#ffffff;fill-opacity:1;fill-rule:nonzero;stroke:none"
             id="path390"
          />
        </g>
        <g
           id="g392"
           transform="translate(167.0525,67.5182)">
          <path
             d="m 0,0 -0.08,0.239 -0.009,0.079 0,0.08 0.018,0.079 0.036,0.08 0.044,0.062 0.053,0.062 0.062,0.053 0.07,0.035 0.08,0.018 0.08,0 L 0.433,0.769 0.504,0.725 0.557,0.672 0.593,0.601 0.619,0.522 l 0,-0.239 -0.018,-0.089 0,-0.07 L 0.619,0.053 0.663,-0.009 0.725,-0.071 0.787,-0.124 0.849,-0.195 0.946,-0.31 1.008,-0.363 1.123,-0.478 1.185,-0.548 1.22,-0.593 1.282,-0.663 1.344,-0.716 1.397,-0.778 1.486,-0.92 1.512,-0.999 1.539,-1.106 1.565,-1.22 1.556,-1.3 1.53,-1.38 1.495,-1.45 1.442,-1.512 1.353,-1.654 1.3,-1.716 1.256,-1.786 1.211,-1.848 1.159,-1.919 1.114,-1.99 1.061,-2.061 1.017,-2.131 0.867,-2.432 0.84,-2.512 0.814,-2.582 0.796,-2.662 0.778,-2.75 0.761,-2.83 0.752,-2.91 l 0,-0.088 0.035,-0.177 0.044,-0.071 0.045,-0.079 0.061,-0.053 0.071,-0.044 0.088,-0.018 0.168,0 0.08,0.018 0.08,0.026 0.079,0.036 0.062,0.044 0.133,0.088 0.071,0.053 0.061,0.053 0.054,0.053 0.053,0.071 0.159,0.186 0.133,0.212 0.044,0.062 0.044,0.079 0.044,0.071 0.035,0.071 0.045,0.08 0.026,0.053 0.053,0.097 0.036,0.071 0.026,0.07 0.036,0.071 0.079,0.044 0.115,-0.026 0.08,-0.089 0,-0.097 L 2.865,-2.123 2.794,-2.273 2.759,-2.344 2.715,-2.414 2.644,-2.556 2.556,-2.697 2.511,-2.777 2.476,-2.821 2.432,-2.901 2.343,-3.042 2.237,-3.184 2.167,-3.281 2.105,-3.369 1.999,-3.493 1.937,-3.546 1.83,-3.652 1.76,-3.705 1.68,-3.758 1.539,-3.829 1.459,-3.864 1.388,-3.9 1.309,-3.926 1.238,-3.944 1.15,-3.962 l -0.204,0 -0.115,0.009 -0.177,0.035 -0.07,0.027 -0.089,0.044 -0.132,0.089 -0.062,0.053 -0.053,0.053 -0.054,0.071 -0.044,0.062 -0.035,0.079 -0.035,0.071 -0.018,0.079 -0.018,0.089 -0.017,0.079 -0.009,0.08 0,0.079 0.035,0.319 0.027,0.079 0.026,0.071 0.035,0.08 0.045,0.097 0.053,0.097 0.044,0.08 0.062,0.097 0.062,0.089 0.044,0.079 0.053,0.097 0.071,0.098 0.053,0.07 0.07,0.124 0.098,0.142 0.044,0.097 0.027,0.133 L 0.849,-1.008 0.761,-0.867 0.708,-0.796 0.566,-0.637 0.513,-0.575 0.442,-0.522 0.372,-0.54 0.336,-0.619 0.318,-0.699 0.292,-0.778 0.274,-0.858 0.256,-0.929 0.23,-1.008 0.15,-1.22 0.124,-1.3 0.097,-1.371 0.071,-1.45 0.027,-1.557 -0.018,-1.654 -0.053,-1.733 -0.097,-1.84 -0.141,-1.937 -0.186,-2.025 -0.23,-2.123 -0.283,-2.22 -0.327,-2.29 -0.38,-2.335 l -0.08,0 -0.071,0.045 -0.053,0.061 0.009,0.071 0.027,0.08 0.035,0.079 0.027,0.071 0.026,0.08 0.071,0.159 0.027,0.053 0.035,0.088 0.035,0.071 0.027,0.08 0.035,0.079 0.027,0.08 0.026,0.071 0.071,0.159 0.017,0.079 0.027,0.08 0.018,0.08 0.035,0.079 0.018,0.08 0.018,0.07 0.017,0.08 0.027,0.08 0.018,0.088 0,0.08 -0.018,0.07 L 0,0 Z"
             style="fill:#ffffff;fill-opacity:1;fill-rule:nonzero;stroke:none"
             id="path394"
          />
        </g>
        <g
           id="g396"
           transform="translate(173.7556,63.5566)">
          <path
             d="m 0,0 -0.08,0.018 -0.079,0.026 -0.071,0.035 -0.071,0.053 -0.106,0.124 -0.044,0.071 -0.027,0.08 -0.008,0.079 -0.009,0.089 0.017,0.159 0.009,0.088 0.018,0.159 0.035,0.16 0.018,0.061 0.018,0.08 0.026,0.097 0.018,0.071 0.026,0.08 0.018,0.079 0.027,0.08 0.017,0.079 0.027,0.107 0.035,0.114 0.018,0.08 0.026,0.08 0.018,0.079 0.027,0.08 0.017,0.071 0.036,0.159 0.008,0.079 0.054,0.239 0.008,0.08 0.009,0.088 -0.009,0.08 -0.035,0.07 L -0.062,3.227 -0.133,3.245 -0.221,3.254 -0.301,3.236 -0.371,3.21 -0.584,3.077 -0.654,3.024 -0.778,2.918 -0.831,2.856 -0.893,2.803 -0.946,2.741 -0.999,2.67 -1.044,2.6 -1.088,2.538 -1.132,2.467 -1.185,2.405 -1.229,2.334 -1.265,2.264 -1.3,2.184 -1.379,2.042 -1.406,1.972 -1.459,1.813 -1.477,1.733 -1.512,1.627 -1.539,1.521 -1.565,1.432 -1.592,1.326 -1.627,1.22 -1.654,1.132 -1.707,0.919 -1.715,0.831 -1.742,0.716 -1.777,0.575 -1.813,0.46 -1.839,0.38 -1.857,0.309 -1.883,0.23 -1.919,0.159 -1.972,0.106 -2.052,0.071 -2.131,0.053 -2.22,0.044 l -0.088,0.009 -0.089,0 -0.079,0.018 -0.071,0.035 -0.044,0.053 0.009,0.08 0.009,0.088 0.017,0.106 0.027,0.106 0.035,0.089 0.027,0.115 0.044,0.141 0.035,0.142 0.027,0.115 0.018,0.088 0.053,0.212 0.053,0.239 0.026,0.071 0.027,0.079 0.026,0.106 0.018,0.106 0.026,0.089 0.018,0.071 0.053,0.185 0.027,0.107 0.026,0.088 0.018,0.115 0.026,0.141 0,0.151 -0.008,0.115 -0.053,0.07 L -2.096,3.219 -2.202,3.236 -2.282,3.219 -2.388,3.174 -2.476,3.121 -2.538,3.059 -2.662,2.953 -2.741,2.883 -2.821,2.803 -2.874,2.741 -2.918,2.679 -2.953,2.608 -3.007,2.529 -3.042,2.485 -3.104,2.387 -3.166,2.299 -3.219,2.219 -3.281,2.122 -3.396,1.892 -3.431,1.813 -3.458,1.733 -3.475,1.653 -3.528,1.494 -3.546,1.415 -3.564,1.326 -3.617,1.088 -3.643,1.008 -3.679,0.849 -3.705,0.769 -3.723,0.681 -3.75,0.592 -3.767,0.513 -3.785,0.451 -3.803,0.371 -3.829,0.292 -3.856,0.203 -3.918,0.124 -4.041,0.062 -4.192,0.053 l -0.141,0.009 -0.141,0.053 -0.089,0.088 -0.018,0.106 0.018,0.08 0.036,0.088 0.017,0.053 0.026,0.089 0.018,0.079 0.027,0.115 0.026,0.106 0.018,0.08 0.053,0.159 0.018,0.071 0.026,0.08 0.018,0.079 0.026,0.071 0.018,0.079 0.027,0.08 0.026,0.115 0.027,0.106 0.017,0.08 0.054,0.159 0.026,0.115 0.027,0.106 0.026,0.08 0.018,0.079 0.009,0.08 0.026,0.079 0.018,0.08 0.035,0.106 0.036,0.115 0.035,0.159 0.018,0.071 0.088,0.398 0.027,0.071 0.035,0.079 0.062,0.044 0.088,0.027 0.089,0.018 0.177,-0.018 0.088,-0.018 0.08,-0.035 0.07,-0.053 L -2.971,3.599 -2.98,3.519 -3.007,3.431 -3.033,3.351 -3.051,3.272 -3.077,3.192 -3.095,3.104 -3.122,3.024 -3.157,2.865 -3.166,2.812 -3.13,2.83 l 0.044,0.079 0.053,0.071 0.044,0.071 0.053,0.062 0.044,0.07 0.053,0.062 0.062,0.08 0.053,0.053 0.044,0.053 0.124,0.106 0.142,0.097 0.062,0.045 0.07,0.044 0.08,0.035 0.071,0.027 0.088,0.026 0.089,0.009 0.15,0 0.08,-0.009 0.079,-0.018 0.071,-0.026 0.071,-0.035 0.062,-0.045 0.053,-0.053 0.053,-0.062 0.07,-0.141 0.027,-0.071 0.026,-0.079 0.009,-0.08 0,-0.08 L -1.212,3.015 -1.22,2.9 -1.229,2.838 l 0.009,0 0.035,0.045 0.053,0.07 0.053,0.062 0.097,0.124 0.062,0.071 0.036,0.044 0.115,0.133 0.053,0.062 0.062,0.044 0.132,0.106 0.071,0.053 0.062,0.044 0.071,0.036 0.079,0.035 0.08,0.018 0.106,0.017 0.15,0.009 0.062,0.009 0.08,0 L 0.318,3.802 0.425,3.776 0.53,3.732 0.61,3.679 0.663,3.625 0.708,3.555 0.743,3.484 0.76,3.413 0.787,3.334 0.796,3.254 0.805,3.183 0.805,3.024 0.796,2.945 0.787,2.856 0.751,2.697 0.725,2.582 0.592,2.158 0.557,2.042 0.53,1.963 0.513,1.848 0.486,1.751 0.46,1.662 0.425,1.556 0.398,1.45 0.371,1.362 0.327,1.149 0.309,1.061 0.292,0.946 0.274,0.796 0.283,0.654 0.309,0.548 0.362,0.495 0.451,0.504 0.522,0.522 0.584,0.557 0.654,0.592 0.725,0.646 0.787,0.69 0.911,0.813 0.955,0.875 1.061,1.017 1.105,1.061 1.158,1.132 1.468,1.627 1.503,1.706 1.583,1.866 1.609,1.91 1.662,1.989 1.698,2.06 1.777,2.104 1.883,2.087 1.954,1.998 1.954,1.91 1.919,1.83 1.875,1.751 1.848,1.68 1.813,1.618 1.733,1.459 1.671,1.353 1.618,1.264 1.574,1.194 1.53,1.132 1.397,0.919 1.353,0.858 1.264,0.725 1.211,0.654 1.114,0.53 0.999,0.415 0.946,0.354 0.893,0.301 0.769,0.194 0.698,0.15 0.486,0.044 0.407,0.018 0.336,0 0.247,-0.009 0.071,-0.009 0,0 Z"
             style="fill:#ffffff;fill-opacity:1;fill-rule:nonzero;stroke:none"
             id="path398"
          />
        </g>
        <g
           id="g400"
           transform="translate(179.7422,65.3073)">
          <path
             d="m 0,0 -0.018,-0.044 -0.044,-0.089 -0.044,-0.062 -0.035,-0.07 -0.036,-0.08 -0.035,-0.071 -0.089,-0.141 -0.044,-0.062 -0.044,-0.071 -0.035,-0.07 -0.045,-0.071 -0.053,-0.062 -0.053,-0.071 -0.053,-0.062 -0.097,-0.123 -0.053,-0.062 -0.053,-0.054 -0.248,-0.212 -0.07,-0.044 -0.08,-0.044 -0.097,-0.045 -0.106,-0.043 -0.08,-0.027 -0.08,-0.018 -0.088,0 -0.106,0.009 -0.106,0.026 -0.08,0.027 -0.062,0.044 -0.062,0.053 -0.062,0.089 -0.061,0.097 -0.027,0.08 -0.026,0.106 -0.009,0.115 0,0.088 0.009,0.115 0.008,0.106 -0.026,0.018 -0.044,-0.062 -0.089,-0.141 -0.088,-0.124 -0.053,-0.062 -0.045,-0.062 -0.053,-0.062 -0.044,-0.062 -0.062,-0.053 -0.053,-0.053 -0.062,-0.053 -0.062,-0.044 -0.07,-0.044 -0.098,-0.063 -0.132,-0.061 -0.142,-0.044 -0.115,-0.027 -0.159,-0.018 -0.088,0.009 -0.106,0.018 -0.107,0.026 -0.079,0.027 -0.071,0.027 -0.062,0.043 -0.123,0.107 -0.045,0.062 -0.044,0.07 -0.053,0.098 -0.053,0.132 -0.027,0.115 -0.008,0.089 -0.018,0.115 -0.009,0.141 0,0.115 0.009,0.089 0.009,0.115 0.017,0.106 0.027,0.088 0.026,0.106 0.027,0.115 0.027,0.08 0.035,0.07 0.027,0.08 0.212,0.425 0.044,0.07 0.044,0.062 0.044,0.071 0.089,0.124 0.053,0.062 0.115,0.132 0.035,0.035 0.062,0.071 0.124,0.107 0.079,0.079 0.098,0.071 0.124,0.097 0.07,0.044 0.062,0.045 0.08,0.035 0.106,0.044 0.097,0.053 0.089,0.044 0.106,0.036 0.106,0.026 0.088,0.027 0.221,0.017 0.08,0.009 0.106,0 L -1.839,2.06 -1.636,2.043 -1.441,2.007 -1.362,1.99 -1.264,1.963 -0.911,1.804 -0.849,1.751 -0.787,1.707 -0.725,1.654 -0.672,1.592 -0.654,1.495 -0.69,1.371 -0.787,1.264 -0.884,1.203 -0.955,1.194 -1.026,1.22 l -0.07,0.053 -0.08,0.045 -0.071,0.044 -0.062,0.026 -0.07,0.036 -0.08,0.035 -0.071,0.018 -0.15,0.035 -0.088,0.027 -0.089,0.017 -0.177,0 L -2.096,1.548 -2.184,1.539 -2.299,1.512 -2.52,1.433 -2.609,1.388 -2.697,1.335 -2.759,1.291 -2.83,1.247 -2.892,1.203 -2.953,1.15 -3.024,1.088 -3.059,1.052 -3.121,0.981 -3.174,0.92 -3.219,0.858 -3.325,0.734 -3.369,0.672 -3.413,0.601 -3.519,0.389 -3.563,0.318 -3.617,0.159 -3.652,0.08 -3.687,0.009 -3.74,-0.23 l -0.027,-0.088 -0.026,-0.239 0,-0.248 0.008,-0.088 0.027,-0.08 0.035,-0.071 0.044,-0.07 0.054,-0.053 0.079,-0.036 0.106,-0.017 0.115,0.009 0.08,0.026 0.141,0.071 0.124,0.106 0.053,0.053 0.062,0.053 0.053,0.062 0.044,0.062 0.053,0.062 0.045,0.062 0.097,0.132 0.044,0.062 0.133,0.212 0.053,0.098 0.062,0.115 0.035,0.053 0.106,0.23 0.035,0.079 0.018,0.062 0.036,0.08 0.026,0.07 0.027,0.08 0.035,0.097 0.053,0.177 0.035,0.097 0.027,0.089 0.053,0.08 0.089,0.044 0.079,0.017 0.08,-0.009 0.079,-0.017 0.142,-0.071 0.07,-0.044 L -1.22,1.026 -1.211,0.946 -1.238,0.876 -1.256,0.796 -1.282,0.716 -1.317,0.557 -1.344,0.477 -1.362,0.407 -1.415,0.248 -1.432,0.159 -1.441,0.106 -1.468,0 -1.485,-0.079 -1.521,-0.23 l -0.026,-0.106 -0.018,-0.088 -0.018,-0.098 -0.026,-0.132 -0.027,-0.151 -0.009,-0.132 0.009,-0.115 0.044,-0.071 0.089,-0.044 0.132,-0.009 0.107,0.035 0.079,0.045 0.124,0.088 0.062,0.062 0.106,0.115 0.106,0.124 0.089,0.123 0.044,0.071 0.053,0.071 0.018,0.053 0.141,0.212 0.035,0.071 0.045,0.071 0.176,0.353 0.08,0.045 L 0,0.345 0.071,0.257 0.08,0.168 0.044,0.088 0,0 Z"
             style="fill:#ffffff;fill-opacity:1;fill-rule:nonzero;stroke:none"
             id="path402"
          />
        </g>
        <g
           id="g404"
           transform="translate(181.5021,66.7664)">
          <path
             d="M 0,0 -0.071,-0.036 -0.132,-0.071 -0.194,-0.115 -0.265,-0.168 -0.327,-0.221 -0.469,-0.318 -0.53,-0.362 -0.593,-0.416 -0.654,-0.478 -0.76,-0.601 -0.822,-0.663 -0.928,-0.787 -1.017,-0.928 -1.07,-0.999 -1.176,-1.212 -1.273,-1.503 -1.3,-1.618 -1.335,-1.751 -1.371,-1.866 -1.424,-2.105 -1.459,-2.22 l -0.035,-0.132 -0.027,-0.115 -0.026,-0.08 -0.027,-0.115 -0.018,-0.097 -0.026,-0.088 -0.009,-0.08 -0.018,-0.071 -0.026,-0.071 -0.053,-0.044 -0.08,-0.026 -0.079,-0.009 -0.115,-0.009 -0.133,0.009 -0.115,0.018 -0.071,0.035 -0.053,0.079 -0.009,0.098 0.018,0.088 0.027,0.115 0.026,0.106 0.018,0.08 0.026,0.08 0.018,0.079 0.027,0.071 0.026,0.079 0.018,0.08 0.017,0.071 0.018,0.079 0.027,0.08 0.026,0.071 0.036,0.159 0.017,0.07 0.009,0.08 0.027,0.08 0.017,0.079 0.027,0.08 0.026,0.106 0.036,0.115 0.044,0.159 0.018,0.071 0.017,0.08 0.027,0.079 0.018,0.08 0.026,0.07 0.018,0.08 0.026,0.08 0.027,0.114 0.026,0.107 0.018,0.079 0.053,0.159 0.018,0.071 0.026,0.08 0.036,0.159 0.062,0.088 0.115,0.062 0.141,0.018 L -1.035,0.548 -0.902,0.504 -0.813,0.416 -0.796,0.309 -0.813,0.221 -0.831,0.159 -0.858,0.08 -0.875,0 -0.902,-0.071 -0.919,-0.15 l -0.027,-0.08 -0.018,-0.079 -0.009,-0.053 0.009,-0.009 0.036,0.044 0.053,0.062 0.044,0.062 0.106,0.124 0.062,0.053 0.115,0.097 0.062,0.053 0.115,0.115 0.177,0.141 0.07,0.045 0.071,0.035 0.071,0.044 0.071,0.026 0.079,0.027 0.115,0.027 0.106,0.017 0.204,0 L 0.734,0.584 0.831,0.566 0.911,0.53 0.991,0.486 1.052,0.425 1.097,0.363 1.141,0.292 1.176,0.221 1.203,0.142 1.229,0.035 l 0.018,-0.106 0,-0.168 -0.009,-0.079 0,-0.08 L 1.229,-0.469 1.211,-0.548 1.194,-0.637 1.176,-0.69 1.15,-0.778 1.123,-0.893 1.088,-1.026 1.052,-1.141 1.026,-1.22 0.999,-1.335 0.964,-1.486 0.928,-1.627 0.893,-1.751 0.875,-1.83 0.858,-1.893 0.84,-1.972 0.814,-2.052 0.796,-2.122 0.743,-2.361 l -0.009,-0.08 0,-0.159 0.035,-0.07 0.062,-0.045 0.08,-0.009 0.08,0.027 0.079,0.035 0.071,0.045 0.062,0.044 0.07,0.053 0.115,0.115 0.045,0.062 0.053,0.07 0.044,0.062 0.062,0.071 0.044,0.062 0.053,0.08 0.08,0.132 0.053,0.08 0.026,0.044 0.053,0.08 0.044,0.079 0.071,0.142 0.036,0.079 0.026,0.071 0.027,0.079 0.044,0.071 0.08,0.053 0.114,-0.026 0.071,-0.089 0,-0.088 L 2.388,-1.371 2.352,-1.441 2.317,-1.521 2.281,-1.592 2.237,-1.662 2.202,-1.733 2.149,-1.813 2.122,-1.866 2.034,-2.025 2.016,-2.078 1.972,-2.158 1.884,-2.299 1.831,-2.379 1.795,-2.423 1.742,-2.494 1.68,-2.573 1.627,-2.635 1.53,-2.741 1.477,-2.803 1.353,-2.909 1.3,-2.962 1.229,-3.016 1.158,-3.06 1.017,-3.13 0.946,-3.157 0.867,-3.183 0.787,-3.201 0.716,-3.21 0.628,-3.219 l -0.08,0 -0.079,0.009 -0.071,0.018 -0.08,0.026 -0.07,0.027 -0.071,0.044 -0.053,0.044 -0.053,0.062 -0.036,0.08 -0.026,0.07 -0.018,0.08 -0.018,0.071 0,0.194 0.018,0.115 0.009,0.089 0.027,0.115 0.079,0.292 0.027,0.15 0.035,0.15 0.036,0.142 0.035,0.114 0.026,0.08 0.036,0.115 0.035,0.142 0.027,0.141 0.035,0.115 0.035,0.159 0.009,0.08 0.036,0.168 0.008,0.079 -0.017,0.089 -0.053,0.088 -0.08,0.08 L 0.257,0.035 0.177,0.044 0.097,0.035 0,0 Z"
             style="fill:#ffffff;fill-opacity:1;fill-rule:nonzero;stroke:none"
             id="path406"
          />
        </g>
        <g
           id="g408"
           transform="translate(184.0492,66.4834)">
          <path
             d="m 0,0 0.062,0.062 0.106,0.124 0.186,0.159 0.062,0.044 0.07,0.053 0.062,0.044 0.071,0.036 0.08,0.035 0.132,0.071 0.08,0.044 0.159,0.053 0.071,0.027 0.159,0.035 0.08,0.009 0.088,0.009 0.159,0.017 0.203,0 0.115,-0.017 0.098,-0.018 0.062,-0.009 0.053,0.027 0.035,0.062 0.018,0.079 0.053,0.159 0.017,0.071 0.027,0.08 0.062,0.15 0.027,0.088 0.017,0.053 0.036,0.089 0.017,0.071 0.053,0.159 0.027,0.071 0.088,0.265 0.044,0.106 0.053,0.159 0.027,0.071 0.035,0.088 0.018,0.053 0.071,0.159 0.026,0.071 0.08,0.151 0.035,0.07 0.08,0.062 0.097,0.036 0.088,0 L 3.369,3.219 3.457,3.201 3.511,3.183 3.599,3.157 3.661,3.113 3.688,3.042 3.67,2.971 3.652,2.892 3.617,2.812 3.581,2.741 3.555,2.671 3.528,2.591 3.484,2.485 3.449,2.379 3.413,2.281 3.307,1.998 3.272,1.892 3.228,1.786 3.201,1.707 3.174,1.636 3.113,1.45 3.068,1.344 3.042,1.256 2.945,0.964 2.927,0.884 2.9,0.813 2.874,0.734 2.847,0.663 2.821,0.584 2.794,0.513 2.777,0.433 2.759,0.363 2.741,0.283 2.715,0.204 2.688,0.133 2.662,0.053 2.644,-0.026 2.626,-0.097 2.609,-0.177 2.582,-0.257 2.556,-0.371 2.52,-0.486 2.502,-0.54 2.476,-0.637 2.458,-0.716 2.44,-0.822 2.423,-0.937 2.37,-1.176 2.361,-1.256 2.343,-1.335 2.326,-1.45 2.308,-1.556 2.299,-1.636 2.281,-1.715 l -0.008,-0.08 0,-0.08 0.008,-0.088 0.009,-0.115 0.027,-0.106 0.026,-0.08 0.054,-0.053 0.07,-0.026 0.08,-0.009 0.07,0.018 0.08,0.026 0.071,0.044 0.159,0.142 0.062,0.062 0.088,0.123 0.089,0.142 0.123,0.177 0.045,0.071 0.035,0.07 0.044,0.08 0.089,0.194 0.044,0.08 0.035,0.062 0.036,0.079 0.044,0.098 0.097,0.071 0.106,-0.018 0.062,-0.089 0,-0.115 L 3.882,-1.141 3.838,-1.229 3.785,-1.327 3.732,-1.441 3.696,-1.494 3.59,-1.707 3.537,-1.786 3.422,-1.972 3.334,-2.114 3.289,-2.175 3.236,-2.246 3.192,-2.308 3.139,-2.361 3.077,-2.414 3.015,-2.485 2.98,-2.52 2.918,-2.591 2.856,-2.644 2.785,-2.688 2.723,-2.724 l -0.07,-0.035 -0.23,-0.08 -0.08,-0.017 -0.07,0 -0.08,-0.009 -0.079,0.009 -0.08,0.017 -0.071,0.036 -0.071,0.044 -0.053,0.044 -0.062,0.062 -0.088,0.124 -0.036,0.071 -0.026,0.079 -0.018,0.071 -0.026,0.239 0,0.168 L 1.565,-1.892 1.521,-1.954 1.477,-2.025 1.397,-2.166 1.353,-2.228 1.3,-2.29 1.203,-2.414 1.149,-2.467 0.964,-2.626 0.884,-2.688 0.796,-2.759 0.716,-2.812 0.646,-2.847 0.557,-2.874 0.354,-2.918 0.265,-2.936 0.186,-2.945 l -0.071,0.009 -0.08,0.009 -0.079,0.018 -0.071,0.017 -0.079,0.036 -0.063,0.035 -0.07,0.053 -0.08,0.08 -0.079,0.071 -0.045,0.07 -0.035,0.071 -0.027,0.08 -0.053,0.141 -0.026,0.08 -0.009,0.079 -0.009,0.106 0,0.115 -0.009,0.08 0,0.08 0.009,0.088 0.009,0.106 0.018,0.115 0.017,0.079 0.027,0.089 0.009,0.053 0.026,0.089 0.027,0.079 0.08,0.212 0.026,0.08 0.071,0.141 0.053,0.098 0.044,0.097 0.053,0.088 0.036,0.044 0.053,0.071 0.088,0.124 L 0,0 Z M 1.804,0.309 1.636,0.301 1.556,0.301 1.477,0.283 1.388,0.265 1.335,0.247 1.247,0.212 1.167,0.186 1.088,0.15 1.017,0.106 0.955,0.062 0.893,0.009 0.831,-0.053 0.707,-0.159 0.654,-0.212 0.601,-0.274 0.495,-0.407 0.451,-0.469 0.407,-0.548 0.301,-0.743 0.256,-0.813 0.23,-0.884 0.203,-0.964 0.177,-1.035 0.141,-1.114 0.088,-1.327 0.062,-1.406 0.044,-1.521 0.035,-1.627 0.027,-1.715 0.044,-1.831 0.062,-1.972 0.079,-2.087 0.106,-2.166 0.15,-2.228 l 0.053,-0.053 0.062,-0.053 0.08,-0.036 0.106,-0.017 0.106,0.008 0.089,0.036 0.053,0.026 0.079,0.044 0.062,0.045 0.106,0.106 0.062,0.07 0.053,0.062 0.062,0.062 0.044,0.062 0.044,0.071 0.053,0.08 0.063,0.105 0.061,0.08 0.036,0.071 0.035,0.08 0.027,0.07 0.035,0.08 0.044,0.106 0.044,0.097 0.036,0.08 0.026,0.071 0.124,0.371 0.035,0.115 0.071,0.283 0.027,0.115 0.026,0.088 0.018,0.097 -0.027,0.08 -0.062,0.035 -0.079,0 z"
             style="fill:#ffffff;fill-opacity:1;fill-rule:nonzero;stroke:none"
             id="path410"
          />
        </g>
        <g
           id="g412"
           transform="translate(189.7085,65.5461)">
          <path
             d="m 0,0 0,-0.097 -0.026,-0.08 -0.071,-0.141 -0.08,-0.133 -0.044,-0.08 -0.035,-0.07 -0.053,-0.08 -0.027,-0.053 -0.044,-0.079 -0.044,-0.071 -0.045,-0.062 -0.053,-0.071 -0.044,-0.062 -0.088,-0.141 -0.16,-0.186 -0.106,-0.115 -0.061,-0.062 -0.054,-0.062 -0.061,-0.053 -0.195,-0.15 -0.062,-0.044 -0.079,-0.036 -0.08,-0.026 -0.071,-0.018 -0.159,-0.035 -0.15,0 -0.097,0.009 -0.071,0.026 -0.08,0.026 -0.071,0.045 -0.061,0.053 -0.045,0.062 -0.044,0.071 -0.035,0.079 -0.018,0.071 -0.018,0.08 -0.009,0.079 0,0.08 0.018,0.159 0.018,0.079 0.026,0.08 0.036,0.159 0.026,0.071 0.018,0.08 0.027,0.079 0.026,0.071 0.08,0.239 0.008,0.07 0.018,0.08 0.027,0.08 0.017,0.079 0.018,0.071 0.053,0.159 0.027,0.106 0.026,0.115 0.053,0.159 0.018,0.08 0.018,0.062 0.017,0.079 0.036,0.089 0.026,0.07 0.053,0.239 0.027,0.08 0.026,0.106 0.036,0.115 0.026,0.079 0.035,0.071 0.054,0.044 0.079,0.036 0.071,0.009 0.088,-0.009 0.16,-0.018 0.141,-0.053 0.044,-0.062 0,-0.08 L -0.981,1.468 -1.008,1.362 -1.035,1.247 -1.088,1.088 -1.105,1.017 -1.123,0.937 -1.149,0.849 -1.176,0.743 -1.264,0.478 -1.282,0.398 -1.318,0.283 -1.379,0.097 -1.397,0.018 l -0.018,-0.071 -0.017,-0.08 -0.062,-0.15 -0.018,-0.079 -0.062,-0.222 -0.053,-0.159 -0.018,-0.079 -0.026,-0.115 -0.027,-0.142 -0.017,-0.15 0.017,-0.133 0.071,-0.097 0.097,-0.026 0.08,0.008 0.079,0.036 0.062,0.044 0.071,0.053 0.292,0.292 0.053,0.062 0.044,0.062 0.053,0.07 0.089,0.142 0.053,0.062 0.035,0.053 0.044,0.07 0.053,0.08 0.036,0.08 0.071,0.15 0.106,0.212 0.044,0.071 0.079,0.044 L -0.071,0.089 0,0 Z m -1.424,2.715 0.045,0.07 0.07,0.062 0.071,0.045 0.089,0.026 0.079,0.018 0.089,0 0.079,-0.018 0.071,-0.044 0.062,-0.053 0.062,-0.062 0.044,-0.071 0.026,-0.079 0.009,-0.08 0,-0.088 L -0.654,2.361 -0.698,2.29 -0.752,2.22 -0.814,2.166 -0.884,2.113 -0.964,2.078 -1.052,2.06 l -0.08,0.009 -0.088,0.018 -0.142,0.088 -0.053,0.062 -0.044,0.071 -0.018,0.08 -0.008,0.079 0.008,0.08 0.018,0.088 0.035,0.08 z"
             style="fill:#ffffff;fill-opacity:1;fill-rule:nonzero;stroke:none"
             id="path414"
          />
        </g>
        <g
           id="g416"
           transform="translate(192.2732,65.7585)">
          <path
             d="M 0,0 -0.044,-0.062 -0.15,-0.186 -0.274,-0.292 -0.336,-0.336 -0.416,-0.38 -0.469,-0.398 -0.557,-0.451 -0.61,-0.478 -0.69,-0.513 -0.778,-0.54 l -0.08,-0.026 -0.08,-0.009 -0.088,-0.018 -0.097,-0.009 -0.106,-0.017 -0.08,-0.009 -0.08,0 -0.159,0.018 -0.159,0.008 -0.079,0.009 -0.239,0.053 -0.062,0 -0.044,-0.035 -0.018,-0.062 0,-0.079 -0.009,-0.089 0,-0.15 0.009,-0.089 0.018,-0.07 0.053,-0.159 0.088,-0.142 0.053,-0.062 0.053,-0.053 0.142,-0.088 0.088,-0.027 0.08,-0.027 0.062,-0.008 0.079,-0.018 0.08,-0.009 0.088,0 0.08,0.009 0.23,0.044 0.079,0.018 0.08,0.026 0.071,0.027 0.15,0.062 0.142,0.071 0.123,0.097 0.062,0.044 0.062,0.053 0.124,0.115 0.106,0.124 0.044,0.062 0.054,0.07 0.088,0.124 0.044,0.071 0.035,0.071 0.045,0.071 0.035,0.07 0.044,0.062 0.036,0.071 0.035,0.08 0.035,0.07 0.045,0.071 0.061,0.044 0.08,0 0.08,-0.053 L 0.849,-0.212 0.84,-0.292 0.805,-0.372 0.76,-0.469 0.707,-0.566 0.663,-0.663 0.61,-0.761 0.557,-0.849 0.469,-0.991 0.442,-1.044 0.389,-1.123 0.301,-1.247 0.247,-1.309 0.194,-1.362 0.142,-1.424 0.079,-1.495 0.053,-1.53 l -0.062,-0.071 -0.053,-0.062 -0.124,-0.106 -0.088,-0.07 -0.08,-0.071 -0.141,-0.089 -0.221,-0.097 -0.071,-0.026 -0.08,-0.027 -0.115,-0.018 -0.106,-0.026 -0.185,-0.018 -0.116,-0.009 -0.097,-0.009 -0.079,0 -0.319,0.036 -0.07,0.017 -0.08,0.027 -0.08,0.035 -0.07,0.036 -0.142,0.079 -0.071,0.036 -0.062,0.053 -0.061,0.062 -0.036,0.044 -0.062,0.071 -0.053,0.061 -0.044,0.071 -0.035,0.062 -0.036,0.08 -0.026,0.07 -0.027,0.08 -0.017,0.08 -0.018,0.07 -0.018,0.08 -0.026,0.239 0,0.168 0.009,0.079 0,0.08 0.053,0.239 0.026,0.07 0.018,0.08 0.026,0.08 0.018,0.079 0.027,0.08 0.035,0.097 0.044,0.106 0.044,0.08 0.053,0.097 0.062,0.088 0.036,0.08 0.044,0.062 0.053,0.062 0.133,0.141 0.132,0.133 0.071,0.062 0.08,0.062 0.088,0.062 0.08,0.062 0.088,0.053 0.088,0.044 0.08,0.035 0.115,0.053 0.186,0.062 0.159,0.036 0.115,0.017 0.194,0 L -0.646,1.592 -0.504,1.565 -0.389,1.538 -0.31,1.512 -0.23,1.477 -0.159,1.441 -0.106,1.406 0.018,1.3 0.071,1.238 0.124,1.149 0.168,1.043 0.194,0.964 0.212,0.884 0.221,0.805 0.221,0.698 0.212,0.583 0.203,0.495 0.177,0.389 0.142,0.283 0.106,0.194 0.079,0.15 0.035,0.071 0,0 Z M -1.079,1.061 -1.203,1.008 -1.309,0.955 -1.38,0.911 -1.503,0.805 -1.583,0.725 -1.654,0.645 -1.715,0.575 -1.778,0.477 -1.839,0.389 -1.884,0.309 -1.937,0.212 -1.972,0.106 l -0.035,-0.08 -0.027,-0.07 -0.009,-0.062 0.044,-0.045 0.115,-0.026 0.177,-0.009 0.089,-0.009 0.247,0 0.089,0.018 0.079,0.018 0.089,0.035 0.053,0.018 0.088,0.044 0.062,0.044 0.062,0.053 0.062,0.062 0.062,0.053 0.053,0.071 0.044,0.062 0.035,0.071 0.045,0.079 0.053,0.159 0.017,0.089 0.009,0.079 -0.009,0.089 -0.035,0.079 -0.053,0.062 -0.071,0.053 -0.079,0.036 -0.08,0.017 -0.08,0.009 -0.088,-0.017 -0.115,-0.027 z"
             style="fill:#ffffff;fill-opacity:1;fill-rule:nonzero;stroke:none"
             id="path418"
          />
        </g>
      </g>
    </g>
  </g>
</svg>
